<?xml version="1.0" encoding="iso-8859-1"?>
<!-- Generator: Adobe Illustrator 19.0.0, SVG Export Plug-In . SVG Version: 6.00 Build 0)  -->
<svg version="1.1" id="Layer_1" xmlns="http://www.w3.org/2000/svg" xmlns:xlink="http://www.w3.org/1999/xlink" x="0px" y="0px"
	 viewBox="0 0 512 512" style="enable-background:new 0 0 512 512;" xml:space="preserve">
<path style="fill:#666666;" d="M65.918,367.577l-8.734,42.461l-8.734-42.461c-0.992-4.824,2.114-9.539,6.937-10.531
	c4.824-0.992,9.539,2.114,10.531,6.937C66.166,365.193,66.146,366.438,65.918,367.577z"/>
<g>
	<polyline style="fill:#E6E6E6;" points="210.281,427.553 11.765,427.553 11.765,491.605 210.281,491.605 	"/>
	<path style="fill:#E6E6E6;" d="M230.261,277.322H42.004c-16.701,0-30.241,13.539-30.241,30.241V373.4h89.668v-32.026H247.21"/>
</g>
<circle style="fill:#B3B3B3;" cx="57.181" cy="326.594" r="21.327"/>
<path style="fill:#FCEA81;" d="M413.455,406.28V512H159.577V406.28c0-28.264,16.281-52.732,39.968-64.518
	c9.654-4.81,20.532-7.512,32.049-7.512h109.831c11.518,0,22.395,2.702,32.049,7.512C397.174,353.547,413.455,378.015,413.455,406.28
	z"/>
<rect x="277.787" y="394.513" style="fill:#E5D273;" width="17.469" height="117.483"/>
<path style="fill:#F7CBA4;" d="M373.474,341.762l-77.892,76.504c-5.034,4.945-13.102,4.945-18.136,0l-57.848-56.812l-20.054-19.693
	c2.795-1.386,5.695-2.609,8.688-3.622c7.325-2.527,15.186-3.89,23.361-3.89h109.831c8.175,0,16.025,1.363,23.35,3.878
	C367.768,339.153,370.668,340.364,373.474,341.762z"/>
<path style="fill:#E5D273;" d="M275.975,334.25h-44.377c-39.777,0-72.025,32.246-72.025,72.025v105.722h44.377V406.275
	C203.951,366.496,236.197,334.25,275.975,334.25z"/>
<g>
	<path style="fill:#E0B394;" d="M275.975,334.25c-22.837,0-43.194,10.633-56.377,27.205l-20.054-19.693
		c9.654-4.81,20.532-7.512,32.049-7.512H275.975z"/>
	<path style="fill:#E0B394;" d="M364.774,338.128l-38.955,28.323c-23.443,17.026-55.178,17.026-78.621,0l-38.967-28.311
		c7.325-2.527,15.186-3.89,23.361-3.89h109.831C349.6,334.25,357.449,335.613,364.774,338.128z"/>
</g>
<path style="fill:#90BC42;" d="M84.742,43.874c-29.472,0-53.363,23.891-53.363,53.363s23.891,53.363,53.363,53.363
	s53.363-23.891,53.363-53.363S114.213,43.874,84.742,43.874z M69.213,121.322c-4.824,0-8.734-3.911-8.734-8.734
	c0-4.824,3.911-8.734,8.734-8.734s8.734,3.911,8.734,8.734C77.948,117.412,74.037,121.322,69.213,121.322z M69.213,90.623
	c-4.824,0-8.734-3.911-8.734-8.734c0-4.824,3.911-8.734,8.734-8.734s8.734,3.911,8.734,8.734
	C77.948,86.712,74.037,90.623,69.213,90.623z M100.269,121.322c-4.824,0-8.734-3.911-8.734-8.734c0-4.824,3.911-8.734,8.734-8.734
	s8.734,3.911,8.734,8.734C109.004,117.412,105.093,121.322,100.269,121.322z M100.269,90.623c-4.824,0-8.734-3.911-8.734-8.734
	c0-4.824,3.911-8.734,8.734-8.734s8.734,3.911,8.734,8.734C109.004,86.712,105.093,90.623,100.269,90.623z"/>
<path style="fill:#86AA37;" d="M84.741,157.007c-32.956,0-59.769-26.812-59.769-59.769S51.784,37.47,84.741,37.47
	s59.769,26.812,59.769,59.768C144.51,130.195,117.698,157.007,84.741,157.007z M84.741,50.28c-25.893,0-46.958,21.065-46.958,46.958
	s21.065,46.958,46.958,46.958s46.958-21.065,46.958-46.958C131.7,71.346,110.634,50.28,84.741,50.28z"/>
<path style="fill:#F7CBA4;" d="M247.209,353.255l-47.805-34.732c-25.262-18.354-38.928-48.705-35.925-79.786l8.292-85.804
	c5.711-59.097,55.372-104.19,114.744-104.19l0,0c59.371,0,109.033,45.094,114.744,104.19l8.292,85.804
	c3.003,31.081-10.662,61.432-35.925,79.786l-47.805,34.732C302.382,370.282,270.646,370.282,247.209,353.255z"/>
<g>
	<rect x="185.18" y="119.672" style="fill:#E0B394;" width="232.135" height="51.241"/>
	<path style="fill:#E0B394;" d="M193.228,255.646c-0.804,13.591,3.622,26.96,12.379,37.383l49.964,61.397
		c2.609,3.109,5.567,5.718,8.769,7.803c-6.009-2.096-11.786-5.101-17.131-8.979l-47.806-34.728
		c-25.26-18.354-38.92-48.703-35.916-79.785l8.28-85.806c5.66-58.52,54.409-103.31,113.022-104.16
		c-36.102,0.873-76.982,34.902-79.113,71.144L193.228,255.646z"/>
</g>
<path style="fill:#666666;" d="M443.15,156.636v145.98h-35.636h-17.143c14.324-17.725,21.428-40.597,19.181-63.877l-8.292-85.806
	h-62.736h-36.102H171.769l-8.292,85.806c-2.236,23.28,4.856,46.152,19.181,63.877h-17.131h-35.648v-145.98
	C129.879,70.131,200.01,0,286.514,0S443.15,70.131,443.15,156.636z"/>
<path style="fill:#4D4D4D;" d="M308.349,1.522C301.213,0.526,293.926,0,286.515,0C200.01,0,129.879,70.131,129.879,156.636v145.98
	h35.648h8.022v-145.98C173.548,77.542,232.181,12.149,308.349,1.522z"/>
<path style="fill:#E6E6E6;" d="M500.151,440.423l-22.603-261.991l-22.603,261.989c-1.144,13.249,9.304,24.637,22.603,24.637l0,0
	C490.847,465.059,501.294,453.672,500.151,440.423z M484.147,439.152c0,3.645-2.954,6.6-6.6,6.6s-6.6-2.954-6.6-6.6v-19.41
	c0-3.645,2.955-6.6,6.6-6.6s6.6,2.954,6.6,6.6V439.152z"/>
<g>
	<path style="fill:#4D4D4D;" d="M234.67,237.513c-4.825,0-8.734-3.911-8.734-8.734v-13.97c0-4.824,3.909-8.734,8.734-8.734
		c4.825,0,8.734,3.911,8.734,8.734v13.97C243.404,233.603,239.495,237.513,234.67,237.513z"/>
	<path style="fill:#4D4D4D;" d="M338.357,237.513c-4.825,0-8.734-3.911-8.734-8.734v-13.97c0-4.824,3.909-8.734,8.734-8.734
		s8.734,3.911,8.734,8.734v13.97C347.091,233.603,343.182,237.513,338.357,237.513z"/>
</g>
<path style="fill:#E0B394;" d="M295.644,248.725h-0.397v-18.051c0-4.824-3.909-8.734-8.734-8.734s-8.734,3.911-8.734,8.734v18.051
	h-0.397c-4.825,0-8.734,3.911-8.734,8.734c0,4.824,3.909,8.734,8.734,8.734h18.263c4.825,0,8.734-3.911,8.734-8.734
	C304.378,252.636,300.469,248.725,295.644,248.725z"/>
<path style="fill:#F2F2F2;" d="M332.104,282.387c0,0-0.664,1.63-2.061,4.204c-0.338,0.664-0.734,1.363-1.176,2.12
	c-0.524,0.745-1.13,1.502-1.782,2.352c-0.652,0.85-1.397,1.712-2.189,2.667c-0.279,0.361-0.582,0.664-0.908,0.978
	c-0.116,0.116-0.245,0.233-0.373,0.349c-0.454,0.419-0.92,0.862-1.397,1.304c-0.955,0.897-1.991,1.782-3.075,2.713
	c-1.141,0.839-2.364,1.63-3.622,2.492c-0.629,0.431-1.281,0.85-1.945,1.269c-0.664,0.396-1.374,0.722-2.096,1.083
	c-1.421,0.722-2.9,1.421-4.425,2.12c-3.144,1.071-6.417,2.329-9.911,2.853c-3.447,0.804-7.046,0.932-10.633,1.106
	c-3.587-0.175-7.185-0.291-10.633-1.095c-3.494-0.524-6.766-1.782-9.911-2.853c-1.526-0.687-3.005-1.386-4.437-2.108
	c-0.71-0.361-1.421-0.687-2.096-1.083c-0.652-0.431-1.304-0.839-1.933-1.269c-1.258-0.862-2.492-1.665-3.633-2.492
	c-1.083-0.932-2.108-1.828-3.074-2.713c-0.477-0.454-0.932-0.885-1.386-1.316c-0.163-0.151-0.326-0.303-0.489-0.454
	c-0.28-0.279-0.547-0.547-0.78-0.862c-0.757-0.92-1.491-1.77-2.131-2.609c-0.629-0.85-1.246-1.595-1.758-2.341
	c-0.466-0.792-0.897-1.514-1.258-2.178c-1.456-2.655-2.061-4.239-2.061-4.239s1.724,0.524,4.379,1.595
	c0.675,0.256,1.374,0.571,2.154,0.885c0.827,0.245,1.677,0.559,2.585,0.862c0.92,0.303,1.84,0.675,2.818,1.025
	c0.967,0.373,2.061,0.617,3.144,0.943c1.083,0.314,2.166,0.699,3.296,1.036c1.176,0.256,2.352,0.559,3.564,0.85
	c0.606,0.14,1.2,0.314,1.805,0.477c0.617,0.14,1.258,0.221,1.887,0.349c1.269,0.221,2.539,0.477,3.808,0.769
	c2.644,0.245,5.252,0.827,7.977,0.932c2.69,0.349,5.439,0.256,8.164,0.419c2.737-0.163,5.485-0.058,8.175-0.408
	c2.725-0.093,5.334-0.687,7.977-0.932c1.269-0.28,2.539-0.536,3.808-0.757c0.629-0.128,1.269-0.21,1.887-0.349
	c0.606-0.175,1.211-0.338,1.805-0.478c1.211-0.291,2.387-0.606,3.564-0.85c1.141-0.338,2.224-0.722,3.307-1.036
	c1.071-0.326,2.189-0.582,3.121-0.943c0.955-0.326,1.852-0.687,2.76-0.967c0.897-0.303,1.735-0.606,2.562-0.85
	c0.815-0.349,1.537-0.687,2.224-0.955C330.416,282.876,332.104,282.387,332.104,282.387z"/>
<path style="fill:#4D4D4D;" d="M323.987,294.708c-0.116,0.116-0.245,0.233-0.373,0.349c-0.454,0.419-0.92,0.862-1.397,1.304
	c-0.955,0.897-1.991,1.782-3.075,2.713c-1.141,0.839-2.364,1.63-3.622,2.492c-0.629,0.431-1.281,0.85-1.945,1.269
	c-0.664,0.396-1.374,0.722-2.096,1.083c-1.421,0.722-2.9,1.421-4.425,2.12c-3.144,1.071-6.417,2.329-9.911,2.853
	c-3.447,0.804-7.046,0.932-10.633,1.106c-3.587-0.175-7.185-0.291-10.633-1.095c-3.494-0.524-6.766-1.782-9.911-2.853
	c-1.526-0.687-3.005-1.386-4.437-2.108c-0.71-0.361-1.421-0.687-2.096-1.083c-0.652-0.431-1.304-0.839-1.933-1.269
	c-1.258-0.862-2.492-1.665-3.633-2.492c-1.083-0.932-2.108-1.828-3.074-2.713c-0.477-0.454-0.932-0.885-1.386-1.316
	c-0.163-0.151-0.326-0.303-0.489-0.454c0.373,0.128,0.745,0.256,1.13,0.384c0.92,0.303,1.84,0.664,2.818,1.013
	c0.967,0.384,2.061,0.629,3.144,0.955c1.083,0.314,2.166,0.687,3.296,1.036c1.176,0.245,2.352,0.559,3.564,0.85
	c0.606,0.14,1.2,0.303,1.805,0.466c0.617,0.14,1.258,0.221,1.887,0.349c1.269,0.221,2.539,0.489,3.808,0.769
	c2.644,0.256,5.252,0.839,7.977,0.932c2.69,0.361,5.439,0.256,8.164,0.431c2.737-0.163,5.485-0.058,8.175-0.419
	c2.725-0.093,5.334-0.675,7.977-0.92c1.269-0.279,2.539-0.547,3.808-0.769c0.629-0.128,1.269-0.21,1.887-0.349
	c0.606-0.163,1.211-0.326,1.805-0.466c1.211-0.291,2.387-0.606,3.564-0.85c1.141-0.349,2.224-0.734,3.307-1.036
	c1.071-0.326,2.189-0.594,3.121-0.943c0.955-0.338,1.852-0.687,2.76-0.978C323.277,294.953,323.638,294.825,323.987,294.708z"/>
<g>
	<path style="fill:#666666;" d="M318.388,193.906c0,0,0.023-0.232,0.101-0.63c0.09-0.385,0.181-0.995,0.376-1.684
		c0.087-0.356,0.2-0.728,0.33-1.137c0.169-0.415,0.396-0.832,0.637-1.304c0.239-0.475,0.54-0.944,0.857-1.472
		c0.319-0.536,0.7-0.942,1.09-1.459c0.396-0.497,0.842-0.978,1.308-1.495c0.493-0.467,1.027-0.927,1.595-1.389
		c1.112-0.979,2.471-1.687,3.887-2.475c1.465-0.62,3.02-1.292,4.685-1.602c1.649-0.429,3.378-0.53,5.103-0.61
		c1.725,0.079,3.455,0.171,5.105,0.597c1.667,0.307,3.222,0.983,4.689,1.598c1.417,0.786,2.778,1.493,3.891,2.474
		c0.567,0.464,1.103,0.925,1.597,1.389c0.466,0.518,0.91,1.004,1.308,1.498c0.384,0.515,0.784,0.937,1.076,1.452
		c0.293,0.512,0.578,0.971,0.808,1.436c0.229,0.466,0.452,0.876,0.62,1.289c0.153,0.431,0.288,0.821,0.388,1.19
		c0.221,0.714,0.313,1.328,0.398,1.712c0.075,0.397,0.091,0.623,0.091,0.623s-0.241-0.006-0.649-0.045
		c-0.396-0.051-1.011-0.077-1.69-0.176c-0.352-0.036-0.71-0.101-1.105-0.154c-0.42-0.02-0.835-0.078-1.286-0.113
		c-0.884-0.093-1.806-0.232-2.821-0.271c-0.498-0.033-0.982-0.105-1.487-0.147c-0.523-0.007-1.039-0.034-1.551-0.072
		c-1.004-0.13-2.095-0.054-3.108-0.181c-1.066,0.038-2.086-0.092-3.142-0.059c-1.039-0.078-2.089,0.005-3.132-0.069
		c-1.042,0.071-2.093-0.02-3.134,0.056c-1.057-0.037-2.078,0.098-3.146,0.055c-1.014,0.126-2.108,0.048-3.112,0.179
		c-0.512,0.038-1.028,0.066-1.552,0.072c-0.505,0.042-0.986,0.119-1.487,0.149c-1.034,0.056-1.894,0.154-2.757,0.228
		c-0.453,0.035-0.877,0.068-1.269,0.097c-0.418,0.076-0.8,0.16-1.163,0.207c-0.705,0.125-1.321,0.154-1.712,0.204
		C318.621,193.905,318.388,193.906,318.388,193.906z"/>
	<path style="fill:#666666;" d="M214.701,193.906c0,0,0.023-0.232,0.101-0.63c0.09-0.385,0.18-0.995,0.376-1.684
		c0.087-0.356,0.2-0.728,0.33-1.137c0.169-0.415,0.396-0.832,0.637-1.304c0.239-0.475,0.54-0.944,0.857-1.472
		c0.319-0.536,0.7-0.942,1.09-1.459c0.396-0.497,0.842-0.978,1.308-1.495c0.493-0.467,1.027-0.927,1.595-1.389
		c1.112-0.979,2.471-1.687,3.887-2.475c1.465-0.62,3.02-1.292,4.685-1.602c1.649-0.429,3.378-0.53,5.103-0.61
		c1.725,0.079,3.455,0.171,5.106,0.597c1.667,0.307,3.222,0.983,4.689,1.598c1.417,0.786,2.778,1.493,3.891,2.474
		c0.567,0.464,1.103,0.925,1.597,1.389c0.466,0.518,0.91,1.004,1.308,1.498c0.384,0.515,0.784,0.937,1.076,1.452
		c0.293,0.512,0.578,0.971,0.808,1.436c0.229,0.466,0.452,0.876,0.62,1.289c0.153,0.431,0.288,0.821,0.388,1.19
		c0.221,0.714,0.313,1.328,0.398,1.712c0.075,0.397,0.091,0.623,0.091,0.623s-0.241-0.006-0.649-0.045
		c-0.396-0.051-1.011-0.077-1.69-0.176c-0.352-0.036-0.71-0.101-1.105-0.154c-0.42-0.02-0.835-0.078-1.286-0.113
		c-0.884-0.093-1.806-0.232-2.821-0.271c-0.498-0.033-0.982-0.105-1.487-0.147c-0.523-0.007-1.039-0.034-1.551-0.072
		c-1.004-0.13-2.095-0.054-3.108-0.181c-1.066,0.038-2.086-0.092-3.142-0.059c-1.039-0.078-2.089,0.005-3.132-0.069
		c-1.042,0.071-2.093-0.02-3.134,0.056c-1.057-0.037-2.078,0.098-3.146,0.055c-1.014,0.126-2.108,0.048-3.112,0.179
		c-0.512,0.038-1.028,0.066-1.552,0.072c-0.505,0.042-0.986,0.119-1.487,0.149c-1.034,0.056-1.894,0.154-2.757,0.228
		c-0.453,0.035-0.877,0.068-1.269,0.097c-0.418,0.076-0.8,0.16-1.163,0.207c-0.705,0.125-1.321,0.154-1.712,0.204
		C214.934,193.905,214.701,193.906,214.701,193.906z"/>
</g>
<g>
</g>
<g>
</g>
<g>
</g>
<g>
</g>
<g>
</g>
<g>
</g>
<g>
</g>
<g>
</g>
<g>
</g>
<g>
</g>
<g>
</g>
<g>
</g>
<g>
</g>
<g>
</g>
<g>
</g>
</svg>
