<svg width="174" height="36" viewBox="0 0 174 36" fill="none" xmlns="http://www.w3.org/2000/svg">
<path d="M0.46875 35V0.875H10.5469C13.5625 0.875 16.2344 1.54688 18.5625 2.89062C20.9062 4.23437 22.7188 6.14062 24 8.60938C25.2812 11.0781 25.9219 13.9062 25.9219 17.0938V18.8047C25.9219 22.0391 25.2734 24.8828 23.9766 27.3359C22.6953 29.7891 20.8594 31.6797 18.4688 33.0078C16.0938 34.3359 13.3672 35 10.2891 35H0.46875ZM6.39844 5.65625V30.2656H10.2656C13.375 30.2656 15.7578 29.2969 17.4141 27.3594C19.0859 25.4062 19.9375 22.6094 19.9688 18.9688V17.0703C19.9688 13.3672 19.1641 10.5391 17.5547 8.58594C15.9453 6.63281 13.6094 5.65625 10.5469 5.65625H6.39844ZM30.2109 22.0859C30.2109 19.6016 30.7031 17.3672 31.6875 15.3828C32.6719 13.3828 34.0547 11.8516 35.8359 10.7891C37.6172 9.71094 39.6641 9.17188 41.9766 9.17188C45.3984 9.17188 48.1719 10.2734 50.2969 12.4766C52.4375 14.6797 53.5938 17.6016 53.7656 21.2422L53.7891 22.5781C53.7891 25.0781 53.3047 27.3125 52.3359 29.2812C51.3828 31.25 50.0078 32.7734 48.2109 33.8516C46.4297 34.9297 44.3672 35.4688 42.0234 35.4688C38.4453 35.4688 35.5781 34.2812 33.4219 31.9062C31.2812 29.5156 30.2109 26.3359 30.2109 22.3672V22.0859ZM35.9062 22.5781C35.9062 25.1875 36.4453 27.2344 37.5234 28.7188C38.6016 30.1875 40.1016 30.9219 42.0234 30.9219C43.9453 30.9219 45.4375 30.1719 46.5 28.6719C47.5781 27.1719 48.1172 24.9766 48.1172 22.0859C48.1172 19.5234 47.5625 17.4922 46.4531 15.9922C45.3594 14.4922 43.8672 13.7422 41.9766 13.7422C40.1172 13.7422 38.6406 14.4844 37.5469 15.9688C36.4531 17.4375 35.9062 19.6406 35.9062 22.5781ZM63.9609 9.64062L64.125 12.2891C65.9062 10.2109 68.3438 9.17188 71.4375 9.17188C74.8281 9.17188 77.1484 10.4688 78.3984 13.0625C80.2422 10.4688 82.8359 9.17188 86.1797 9.17188C88.9766 9.17188 91.0547 9.94531 92.4141 11.4922C93.7891 13.0391 94.4922 15.3203 94.5234 18.3359V35H88.8281V18.5C88.8281 16.8906 88.4766 15.7109 87.7734 14.9609C87.0703 14.2109 85.9062 13.8359 84.2812 13.8359C82.9844 13.8359 81.9219 14.1875 81.0938 14.8906C80.2812 15.5781 79.7109 16.4844 79.3828 17.6094L79.4062 35H73.7109V18.3125C73.6328 15.3281 72.1094 13.8359 69.1406 13.8359C66.8594 13.8359 65.2422 14.7656 64.2891 16.625V35H58.5938V9.64062H63.9609ZM118.383 35H112.688V9.64062H118.383V35ZM112.336 3.05469C112.336 2.17969 112.609 1.45313 113.156 0.875C113.719 0.296875 114.516 0.0078125 115.547 0.0078125C116.578 0.0078125 117.375 0.296875 117.938 0.875C118.5 1.45313 118.781 2.17969 118.781 3.05469C118.781 3.91406 118.5 4.63281 117.938 5.21094C117.375 5.77344 116.578 6.05469 115.547 6.05469C114.516 6.05469 113.719 5.77344 113.156 5.21094C112.609 4.63281 112.336 3.91406 112.336 3.05469ZM132.844 0.875L142.688 27.0312L152.508 0.875H160.172V35H154.266V23.75L154.852 8.70312L144.773 35H140.531L130.477 8.72656L131.062 23.75V35H125.156V0.875H132.844ZM172.711 35H167.016V9.64062H172.711V35ZM166.664 3.05469C166.664 2.17969 166.938 1.45313 167.484 0.875C168.047 0.296875 168.844 0.0078125 169.875 0.0078125C170.906 0.0078125 171.703 0.296875 172.266 0.875C172.828 1.45313 173.109 2.17969 173.109 3.05469C173.109 3.91406 172.828 4.63281 172.266 5.21094C171.703 5.77344 170.906 6.05469 169.875 6.05469C168.844 6.05469 168.047 5.77344 167.484 5.21094C166.938 4.63281 166.664 3.91406 166.664 3.05469Z" fill="#2F80ED"/>
</svg>
