<svg width="14" height="14" viewBox="0 0 14 14" fill="none" xmlns="http://www.w3.org/2000/svg">
<path d="M13.5621 6.56151H8.0205C7.779 6.56151 7.58301 6.36551 7.58301 6.12401C7.58301 5.88252 7.779 5.68652 8.0205 5.68652H13.5621C13.8036 5.68652 13.9996 5.88252 13.9996 6.12401C13.9996 6.36551 13.8036 6.56151 13.5621 6.56151Z" fill="#C8C8C8"/>
<path d="M11.3746 8.74996C11.2626 8.74996 11.1507 8.70734 11.0654 8.62168C10.8945 8.45068 10.8945 8.17361 11.0654 8.00272L12.9438 6.12448L11.0654 4.24613C10.8945 4.07523 10.8945 3.79817 11.0654 3.62727C11.2364 3.45627 11.5135 3.45627 11.6844 3.62727L13.8718 5.81473C14.0427 5.98562 14.0427 6.26269 13.8718 6.43358L11.6844 8.62104C11.5986 8.70734 11.4867 8.74996 11.3746 8.74996Z" fill="#C8C8C8"/>
<path d="M4.66661 14.0007C4.54175 14.0007 4.42329 13.9832 4.30495 13.9464L0.794448 12.7769C0.316796 12.61 0 12.165 0 11.6674V1.16765C0 0.524235 0.523259 0.000976562 1.16668 0.000976562C1.29143 0.000976562 1.40988 0.0184933 1.52833 0.0552357L5.03873 1.2248C5.51649 1.39163 5.83318 1.83671 5.83318 2.33423V12.834C5.83318 13.4774 5.31002 14.0007 4.66661 14.0007ZM1.16668 0.875958C1.00625 0.875958 0.874982 1.00723 0.874982 1.16765V11.6674C0.874982 11.7917 0.9584 11.9071 1.07739 11.9486L4.57144 13.1129C4.59654 13.121 4.62922 13.1257 4.66661 13.1257C4.82703 13.1257 4.9582 12.9944 4.9582 12.834V2.33423C4.9582 2.21001 4.87478 2.09455 4.75579 2.0531L1.26174 0.888776C1.23664 0.880658 1.20395 0.875958 1.16668 0.875958Z" fill="#C8C8C8"/>
<path d="M8.89543 4.66661C8.65393 4.66661 8.45794 4.47061 8.45794 4.22912V1.60417C8.45794 1.20225 8.13078 0.874982 7.72886 0.874982H1.16649C0.924999 0.874982 0.729004 0.678987 0.729004 0.437491C0.729004 0.195995 0.924999 0 1.16649 0H7.72886C8.61377 0 9.33292 0.719254 9.33292 1.60417V4.22912C9.33292 4.47061 9.13693 4.66661 8.89543 4.66661Z" fill="#C8C8C8"/>
<path d="M7.72886 12.2496H5.3955C5.154 12.2496 4.95801 12.0536 4.95801 11.8121C4.95801 11.5706 5.154 11.3746 5.3955 11.3746H7.72886C8.13078 11.3746 8.45794 11.0474 8.45794 10.6454V8.0205C8.45794 7.779 8.65393 7.58301 8.89543 7.58301C9.13692 7.58301 9.33292 7.779 9.33292 8.0205V10.6454C9.33292 11.5304 8.61377 12.2496 7.72886 12.2496Z" fill="#C8C8C8"/>
</svg>
