<svg width="29" height="29" viewBox="0 0 29 29" fill="none" xmlns="http://www.w3.org/2000/svg">
<path d="M14.6193 28.679C22.5387 28.679 28.9587 22.259 28.9587 14.3395C28.9587 6.42 22.5387 0 14.6193 0C6.69979 0 0.279785 6.42 0.279785 14.3395C0.279785 22.259 6.69979 28.679 14.6193 28.679Z" fill="#DC4E41"/>
<path d="M5.27219 14.9811C5.22132 17.4483 6.92064 19.8028 9.25824 20.5707C11.4601 21.3104 14.1673 20.757 15.6325 18.8713C16.7023 17.5501 16.9453 15.7886 16.8296 14.143C14.9439 14.1261 13.0582 14.1317 11.1754 14.1345C11.1723 14.8063 11.1754 15.4755 11.1782 16.1472C12.3072 16.1784 13.4365 16.1641 14.5656 16.1869C14.2806 17.1636 13.6313 18.0725 12.6459 18.4253C10.7434 19.2637 8.31579 18.1684 7.71714 16.1726C6.99452 14.2613 8.1775 11.9549 10.1307 11.3989C11.3418 10.9728 12.5894 11.4526 13.6257 12.0822C14.1507 11.5909 14.642 11.0659 15.1246 10.5352C13.9472 9.55009 12.4343 8.94607 10.8788 9.07873C7.82706 9.11503 5.15639 11.9324 5.27219 14.9811Z" fill="#DC4E41"/>
<path d="M20.4993 12.4404C20.4936 13.0023 20.4878 13.5669 20.485 14.1285C19.9203 14.1341 19.3587 14.1369 18.7969 14.1398C18.7969 14.7016 18.7969 15.2604 18.7969 15.8222C19.3587 15.825 19.9234 15.8278 20.485 15.8337C20.4906 16.3956 20.4906 16.9571 20.4962 17.5218C21.0552 17.5218 21.6171 17.519 22.1787 17.5218C22.1817 16.9571 22.1843 16.3956 22.1902 15.8309C22.7517 15.8281 23.3164 15.8253 23.8782 15.8225C23.8782 15.2606 23.8782 14.7019 23.8782 14.14C23.3167 14.1372 22.752 14.1344 22.1902 14.1288C22.1871 13.5669 22.1817 13.0023 22.1787 12.4407C21.6171 12.4404 21.058 12.4404 20.4993 12.4404Z" fill="#DC4E41"/>
<path d="M5.27219 14.9804C5.15639 11.9317 7.8268 9.11431 10.8786 9.07776C12.434 8.94509 13.9472 9.54911 15.1243 10.5343C14.6415 11.0652 14.1502 11.5899 13.6254 12.0812C12.5892 11.4517 11.3415 10.9719 10.1304 11.398C8.17699 11.9542 6.99401 14.2606 7.71689 16.1716C8.31554 18.1674 10.7431 19.2627 12.6456 18.4243C13.6308 18.0716 14.2803 17.1626 14.5653 16.1859C13.4363 16.1634 12.307 16.1775 11.1779 16.1463C11.1751 15.4745 11.1723 14.8053 11.1751 14.1336C13.058 14.1307 14.9436 14.1251 16.8293 14.142C16.9451 15.7879 16.7023 17.5493 15.6323 18.8704C14.1671 20.756 11.4601 21.3094 9.25799 20.5697C6.9209 19.8021 5.22132 17.4476 5.27219 14.9804Z" fill="white"/>
<path d="M20.4993 12.4404C21.0583 12.4404 21.6171 12.4404 22.1787 12.4404C22.1817 13.0023 22.1871 13.5669 22.1902 14.1285C22.7517 14.1341 23.3164 14.1369 23.8782 14.1398C23.8782 14.7016 23.8782 15.2604 23.8782 15.8222C23.3167 15.825 22.752 15.8278 22.1902 15.8306C22.1845 16.3953 22.1817 16.9569 22.1787 17.5215C21.6171 17.5187 21.055 17.5215 20.4962 17.5215C20.4908 16.9569 20.4908 16.3953 20.485 15.8335C19.9234 15.8276 19.3587 15.825 18.7969 15.822C18.7969 15.2601 18.7969 14.7013 18.7969 14.1395C19.3587 14.1367 19.9206 14.1339 20.485 14.1283C20.4878 13.5669 20.4934 13.0023 20.4993 12.4404Z" fill="white"/>
</svg>
