<svg width="26" height="26" viewBox="0 0 26 26" fill="none" xmlns="http://www.w3.org/2000/svg">
<path d="M25.5667 3.9H20.8V0.433333C20.8 0.194025 20.606 0 20.3667 0H5.63333C5.39402 0 5.2 0.194025 5.2 0.433333V6.5H0.433333C0.194025 6.5 0 6.69403 0 6.93333V24.7C0 24.9393 0.194025 25.1333 0.433333 25.1333C0.672642 25.1333 0.866667 24.9393 0.866667 24.7V7.36667H5.2V25.1333C5.2 25.3726 5.39402 25.5667 5.63333 25.5667H20.3667C20.606 25.5667 20.8 25.3726 20.8 25.1333V4.76667H25.1333V24.7C25.1333 24.9393 25.3274 25.1333 25.5667 25.1333C25.806 25.1333 26 24.9393 26 24.7V4.33333C26 4.09403 25.806 3.9 25.5667 3.9ZM12.5667 24.7H10.8333V20.8H12.5667V24.7ZM15.1667 24.7H13.4333V20.8H15.1667V24.7ZM19.9333 24.7H16.0333V20.3667C16.0333 20.1274 15.8393 19.9333 15.6 19.9333H10.4C10.1607 19.9333 9.96667 20.1274 9.96667 20.3667V24.7H6.06667V0.866667H19.9333V24.7Z" fill="#565656"/>
<path d="M9.96668 1.73242H7.36668C7.12737 1.73242 6.93335 1.92645 6.93335 2.16576V4.76575C6.93335 5.00506 7.12737 5.19909 7.36668 5.19909H9.96668C10.206 5.19909 10.4 5.00506 10.4 4.76575V2.16576C10.4 1.92645 10.206 1.73242 9.96668 1.73242ZM9.53335 4.33242H7.80002V2.59909H9.53335V4.33242Z" fill="#565656"/>
<path d="M14.3001 1.73242H11.7001C11.4607 1.73242 11.2667 1.92645 11.2667 2.16576V4.76575C11.2667 5.00506 11.4607 5.19909 11.7001 5.19909H14.3001C14.5394 5.19909 14.7334 5.00506 14.7334 4.76575V2.16576C14.7334 1.92645 14.5394 1.73242 14.3001 1.73242ZM13.8667 4.33242H12.1334V2.59909H13.8667V4.33242Z" fill="#565656"/>
<path d="M18.6334 1.73242H16.0334C15.7941 1.73242 15.6 1.92645 15.6 2.16576V4.76575C15.6 5.00506 15.7941 5.19909 16.0334 5.19909H18.6334C18.8727 5.19909 19.0667 5.00506 19.0667 4.76575V2.16576C19.0667 1.92645 18.8727 1.73242 18.6334 1.73242ZM18.2 4.33242H16.4667V2.59909H18.2V4.33242Z" fill="#565656"/>
<path d="M9.96668 6.06738H7.36668C7.12737 6.06738 6.93335 6.26141 6.93335 6.50072V9.10072C6.93335 9.34002 7.12737 9.53405 7.36668 9.53405H9.96668C10.206 9.53405 10.4 9.34002 10.4 9.10072V6.50072C10.4 6.26141 10.206 6.06738 9.96668 6.06738ZM9.53335 8.66738H7.80002V6.93405H9.53335V8.66738Z" fill="#565656"/>
<path d="M14.3001 6.06738H11.7001C11.4607 6.06738 11.2667 6.26141 11.2667 6.50072V9.10072C11.2667 9.34002 11.4607 9.53405 11.7001 9.53405H14.3001C14.5394 9.53405 14.7334 9.34002 14.7334 9.10072V6.50072C14.7334 6.26141 14.5394 6.06738 14.3001 6.06738ZM13.8667 8.66738H12.1334V6.93405H13.8667V8.66738Z" fill="#565656"/>
<path d="M18.6334 6.06738H16.0334C15.7941 6.06738 15.6 6.26141 15.6 6.50072V9.10072C15.6 9.34002 15.7941 9.53405 16.0334 9.53405H18.6334C18.8727 9.53405 19.0667 9.34002 19.0667 9.10072V6.50072C19.0667 6.26141 18.8727 6.06738 18.6334 6.06738ZM18.2 8.66738H16.4667V6.93405H18.2V8.66738Z" fill="#565656"/>
<path d="M9.96668 10.4004H7.36668C7.12737 10.4004 6.93335 10.5944 6.93335 10.8337V13.4337C6.93335 13.673 7.12737 13.8671 7.36668 13.8671H9.96668C10.206 13.8671 10.4 13.673 10.4 13.4337V10.8337C10.4 10.5944 10.206 10.4004 9.96668 10.4004ZM9.53335 13.0004H7.80002V11.2671H9.53335V13.0004Z" fill="#565656"/>
<path d="M14.3001 10.4004H11.7001C11.4607 10.4004 11.2667 10.5944 11.2667 10.8337V13.4337C11.2667 13.673 11.4607 13.8671 11.7001 13.8671H14.3001C14.5394 13.8671 14.7334 13.673 14.7334 13.4337V10.8337C14.7334 10.5944 14.5394 10.4004 14.3001 10.4004ZM13.8667 13.0004H12.1334V11.2671H13.8667V13.0004Z" fill="#565656"/>
<path d="M18.6334 10.4004H16.0334C15.7941 10.4004 15.6 10.5944 15.6 10.8337V13.4337C15.6 13.673 15.7941 13.8671 16.0334 13.8671H18.6334C18.8727 13.8671 19.0667 13.673 19.0667 13.4337V10.8337C19.0667 10.5944 18.8727 10.4004 18.6334 10.4004ZM18.2 13.0004H16.4667V11.2671H18.2V13.0004Z" fill="#565656"/>
<path d="M9.96668 14.7324H7.36668C7.12737 14.7324 6.93335 14.9264 6.93335 15.1658V17.7658C6.93335 18.0051 7.12737 18.1991 7.36668 18.1991H9.96668C10.206 18.1991 10.4 18.0051 10.4 17.7658V15.1658C10.4 14.9264 10.206 14.7324 9.96668 14.7324ZM9.53335 17.3324H7.80002V15.5991H9.53335V17.3324Z" fill="#565656"/>
<path d="M14.3001 14.7324H11.7001C11.4607 14.7324 11.2667 14.9264 11.2667 15.1658V17.7658C11.2667 18.0051 11.4607 18.1991 11.7001 18.1991H14.3001C14.5394 18.1991 14.7334 18.0051 14.7334 17.7658V15.1658C14.7334 14.9264 14.5394 14.7324 14.3001 14.7324ZM13.8667 17.3324H12.1334V15.5991H13.8667V17.3324Z" fill="#565656"/>
<path d="M18.6334 14.7324H16.0334C15.7941 14.7324 15.6 14.9264 15.6 15.1658V17.7658C15.6 18.0051 15.7941 18.1991 16.0334 18.1991H18.6334C18.8727 18.1991 19.0667 18.0051 19.0667 17.7658V15.1658C19.0667 14.9264 18.8727 14.7324 18.6334 14.7324ZM18.2 17.3324H16.4667V15.5991H18.2V17.3324Z" fill="#565656"/>
<path d="M2.59994 8.23438H2.16661C1.9273 8.23438 1.73328 8.4284 1.73328 8.66771V9.10104C1.73328 9.34035 1.9273 9.53438 2.16661 9.53438H2.59994C2.83925 9.53438 3.03328 9.34035 3.03328 9.10104V8.66771C3.03328 8.4284 2.83925 8.23438 2.59994 8.23438Z" fill="#565656"/>
<path d="M4.33328 8.23438H3.89995C3.66064 8.23438 3.46661 8.4284 3.46661 8.66771V9.10104C3.46661 9.34035 3.66064 9.53438 3.89995 9.53438H4.33328C4.57259 9.53438 4.76661 9.34035 4.76661 9.10104V8.66771C4.76661 8.4284 4.57259 8.23438 4.33328 8.23438Z" fill="#565656"/>
<path d="M2.59994 9.9668H2.16661C1.9273 9.9668 1.73328 10.1608 1.73328 10.4001V10.8335C1.73328 11.0728 1.9273 11.2668 2.16661 11.2668H2.59994C2.83925 11.2668 3.03328 11.0728 3.03328 10.8335V10.4001C3.03328 10.1608 2.83925 9.9668 2.59994 9.9668Z" fill="#565656"/>
<path d="M4.33328 9.9668H3.89995C3.66064 9.9668 3.46661 10.1608 3.46661 10.4001V10.8335C3.46661 11.0728 3.66064 11.2668 3.89995 11.2668H4.33328C4.57259 11.2668 4.76661 11.0728 4.76661 10.8335V10.4001C4.76661 10.1608 4.57259 9.9668 4.33328 9.9668Z" fill="#565656"/>
<path d="M2.59994 11.7002H2.16661C1.9273 11.7002 1.73328 11.8942 1.73328 12.1335V12.5669C1.73328 12.8062 1.9273 13.0002 2.16661 13.0002H2.59994C2.83925 13.0002 3.03328 12.8062 3.03328 12.5669V12.1335C3.03328 11.8942 2.83925 11.7002 2.59994 11.7002Z" fill="#565656"/>
<path d="M4.33328 11.7002H3.89995C3.66064 11.7002 3.46661 11.8942 3.46661 12.1335V12.5669C3.46661 12.8062 3.66064 13.0002 3.89995 13.0002H4.33328C4.57259 13.0002 4.76661 12.8062 4.76661 12.5669V12.1335C4.76661 11.8942 4.57259 11.7002 4.33328 11.7002Z" fill="#565656"/>
<path d="M2.59994 13.4326H2.16661C1.9273 13.4326 1.73328 13.6266 1.73328 13.8659V14.2993C1.73328 14.5386 1.9273 14.7326 2.16661 14.7326H2.59994C2.83925 14.7326 3.03328 14.5386 3.03328 14.2993V13.8659C3.03328 13.6266 2.83925 13.4326 2.59994 13.4326Z" fill="#565656"/>
<path d="M4.33328 13.4326H3.89995C3.66064 13.4326 3.46661 13.6266 3.46661 13.8659V14.2993C3.46661 14.5386 3.66064 14.7326 3.89995 14.7326H4.33328C4.57259 14.7326 4.76661 14.5386 4.76661 14.2993V13.8659C4.76661 13.6266 4.57259 13.4326 4.33328 13.4326Z" fill="#565656"/>
<path d="M2.59994 15.168H2.16661C1.9273 15.168 1.73328 15.362 1.73328 15.6013V16.0346C1.73328 16.2739 1.9273 16.468 2.16661 16.468H2.59994C2.83925 16.468 3.03328 16.2739 3.03328 16.0346V15.6013C3.03328 15.362 2.83925 15.168 2.59994 15.168Z" fill="#565656"/>
<path d="M4.33328 15.168H3.89995C3.66064 15.168 3.46661 15.362 3.46661 15.6013V16.0346C3.46661 16.2739 3.66064 16.468 3.89995 16.468H4.33328C4.57259 16.468 4.76661 16.2739 4.76661 16.0346V15.6013C4.76661 15.362 4.57259 15.168 4.33328 15.168Z" fill="#565656"/>
<path d="M2.59994 16.9004H2.16661C1.9273 16.9004 1.73328 17.0944 1.73328 17.3337V17.7671C1.73328 18.0064 1.9273 18.2004 2.16661 18.2004H2.59994C2.83925 18.2004 3.03328 18.0064 3.03328 17.7671V17.3337C3.03328 17.0944 2.83925 16.9004 2.59994 16.9004Z" fill="#565656"/>
<path d="M4.33328 16.9004H3.89995C3.66064 16.9004 3.46661 17.0944 3.46661 17.3337V17.7671C3.46661 18.0064 3.66064 18.2004 3.89995 18.2004H4.33328C4.57259 18.2004 4.76661 18.0064 4.76661 17.7671V17.3337C4.76661 17.0944 4.57259 16.9004 4.33328 16.9004Z" fill="#565656"/>
<path d="M2.59994 18.6338H2.16661C1.9273 18.6338 1.73328 18.8278 1.73328 19.0671V19.5005C1.73328 19.7398 1.9273 19.9338 2.16661 19.9338H2.59994C2.83925 19.9338 3.03328 19.7398 3.03328 19.5005V19.0671C3.03328 18.8278 2.83925 18.6338 2.59994 18.6338Z" fill="#565656"/>
<path d="M4.33328 18.6338H3.89995C3.66064 18.6338 3.46661 18.8278 3.46661 19.0671V19.5005C3.46661 19.7398 3.66064 19.9338 3.89995 19.9338H4.33328C4.57259 19.9338 4.76661 19.7398 4.76661 19.5005V19.0671C4.76661 18.8278 4.57259 18.6338 4.33328 18.6338Z" fill="#565656"/>
<path d="M2.59994 20.3662H2.16661C1.9273 20.3662 1.73328 20.5602 1.73328 20.7995V21.2329C1.73328 21.4722 1.9273 21.6662 2.16661 21.6662H2.59994C2.83925 21.6662 3.03328 21.4722 3.03328 21.2329V20.7995C3.03328 20.5602 2.83925 20.3662 2.59994 20.3662Z" fill="#565656"/>
<path d="M4.33328 20.3662H3.89995C3.66064 20.3662 3.46661 20.5602 3.46661 20.7995V21.2329C3.46661 21.4722 3.66064 21.6662 3.89995 21.6662H4.33328C4.57259 21.6662 4.76661 21.4722 4.76661 21.2329V20.7995C4.76661 20.5602 4.57259 20.3662 4.33328 20.3662Z" fill="#565656"/>
<path d="M2.59994 22.0996H2.16661C1.9273 22.0996 1.73328 22.2936 1.73328 22.5329V22.9663C1.73328 23.2056 1.9273 23.3996 2.16661 23.3996H2.59994C2.83925 23.3996 3.03328 23.2056 3.03328 22.9663V22.5329C3.03328 22.2936 2.83925 22.0996 2.59994 22.0996Z" fill="#565656"/>
<path d="M4.33328 22.0996H3.89995C3.66064 22.0996 3.46661 22.2936 3.46661 22.5329V22.9663C3.46661 23.2056 3.66064 23.3996 3.89995 23.3996H4.33328C4.57259 23.3996 4.76661 23.2056 4.76661 22.9663V22.5329C4.76661 22.2936 4.57259 22.0996 4.33328 22.0996Z" fill="#565656"/>
<path d="M23.8333 5.63379H22.1C21.8607 5.63379 21.6666 5.82781 21.6666 6.06712V7.80046C21.6666 8.03976 21.8607 8.23379 22.1 8.23379H23.8333C24.0726 8.23379 24.2666 8.03976 24.2666 7.80046V6.06712C24.2666 5.82781 24.0726 5.63379 23.8333 5.63379ZM23.4 7.36712H22.5333V6.50046H23.4V7.36712Z" fill="#565656"/>
<path d="M23.8333 9.09961H22.1C21.8607 9.09961 21.6666 9.29363 21.6666 9.53294V11.2663C21.6666 11.5056 21.8607 11.6996 22.1 11.6996H23.8333C24.0726 11.6996 24.2666 11.5056 24.2666 11.2663V9.53294C24.2666 9.29363 24.0726 9.09961 23.8333 9.09961ZM23.4 10.8329H22.5333V9.96628H23.4V10.8329Z" fill="#565656"/>
<path d="M23.8333 12.5674H22.1C21.8607 12.5674 21.6666 12.7614 21.6666 13.0007V14.734C21.6666 14.9734 21.8607 15.1674 22.1 15.1674H23.8333C24.0726 15.1674 24.2666 14.9734 24.2666 14.734V13.0007C24.2666 12.7614 24.0726 12.5674 23.8333 12.5674ZM23.4 14.3007H22.5333V13.434H23.4V14.3007Z" fill="#565656"/>
<path d="M23.8333 16.0342H22.1C21.8607 16.0342 21.6666 16.2282 21.6666 16.4675V18.2008C21.6666 18.4402 21.8607 18.6342 22.1 18.6342H23.8333C24.0726 18.6342 24.2666 18.4402 24.2666 18.2008V16.4675C24.2666 16.2282 24.0726 16.0342 23.8333 16.0342ZM23.4 17.7675H22.5333V16.9008H23.4V17.7675Z" fill="#565656"/>
<path d="M23.8333 19.5H22.1C21.8607 19.5 21.6666 19.694 21.6666 19.9333V21.6667C21.6666 21.906 21.8607 22.1 22.1 22.1H23.8333C24.0726 22.1 24.2666 21.906 24.2666 21.6667V19.9333C24.2666 19.694 24.0726 19.5 23.8333 19.5ZM23.4 21.2333H22.5333V20.3667H23.4V21.2333Z" fill="#565656"/>
</svg>
