<svg width="16" height="17" viewBox="0 0 16 17" fill="none" xmlns="http://www.w3.org/2000/svg">
<path d="M15.7333 3.3668H12.8V1.23346C12.8 1.0862 12.6806 0.966797 12.5333 0.966797H3.46667C3.3194 0.966797 3.2 1.0862 3.2 1.23346V4.9668H0.266667C0.1194 4.9668 0 5.0862 0 5.23346V16.1668C0 16.3141 0.1194 16.4335 0.266667 16.4335C0.413933 16.4335 0.533333 16.3141 0.533333 16.1668V5.50013H3.2V16.4335C3.2 16.5807 3.3194 16.7001 3.46667 16.7001H12.5333C12.6806 16.7001 12.8 16.5807 12.8 16.4335V3.90013H15.4667V16.1668C15.4667 16.3141 15.5861 16.4335 15.7333 16.4335C15.8806 16.4335 16 16.3141 16 16.1668V3.63346C16 3.4862 15.8806 3.3668 15.7333 3.3668ZM7.73333 16.1668H6.66667V13.7668H7.73333V16.1668ZM9.33333 16.1668H8.26667V13.7668H9.33333V16.1668ZM12.2667 16.1668H9.86667V13.5001C9.86667 13.3529 9.74727 13.2335 9.6 13.2335H6.4C6.25273 13.2335 6.13333 13.3529 6.13333 13.5001V16.1668H3.73333V1.50013H12.2667V16.1668Z" fill="#333333"/>
<path d="M6.13327 2.0332H4.53327C4.386 2.0332 4.2666 2.1526 4.2666 2.29987V3.89987C4.2666 4.04714 4.386 4.16654 4.53327 4.16654H6.13327C6.28053 4.16654 6.39993 4.04714 6.39993 3.89987V2.29987C6.39993 2.1526 6.28053 2.0332 6.13327 2.0332ZM5.8666 3.6332H4.79993V2.56654H5.8666V3.6332Z" fill="#333333"/>
<path d="M8.80002 2.0332H7.20002C7.05275 2.0332 6.93335 2.1526 6.93335 2.29987V3.89987C6.93335 4.04714 7.05275 4.16654 7.20002 4.16654H8.80002C8.94728 4.16654 9.06668 4.04714 9.06668 3.89987V2.29987C9.06668 2.1526 8.94728 2.0332 8.80002 2.0332ZM8.53335 3.6332H7.46668V2.56654H8.53335V3.6332Z" fill="#333333"/>
<path d="M11.4666 2.0332H9.86664C9.71938 2.0332 9.59998 2.1526 9.59998 2.29987V3.89987C9.59998 4.04714 9.71938 4.16654 9.86664 4.16654H11.4666C11.6139 4.16654 11.7333 4.04714 11.7333 3.89987V2.29987C11.7333 2.1526 11.6139 2.0332 11.4666 2.0332ZM11.2 3.6332H10.1333V2.56654H11.2V3.6332Z" fill="#333333"/>
<path d="M6.13327 4.7002H4.53327C4.386 4.7002 4.2666 4.8196 4.2666 4.96686V6.56686C4.2666 6.71413 4.386 6.83353 4.53327 6.83353H6.13327C6.28053 6.83353 6.39993 6.71413 6.39993 6.56686V4.96686C6.39993 4.8196 6.28053 4.7002 6.13327 4.7002ZM5.8666 6.3002H4.79993V5.23353H5.8666V6.3002Z" fill="#333333"/>
<path d="M8.80002 4.7002H7.20002C7.05275 4.7002 6.93335 4.8196 6.93335 4.96686V6.56686C6.93335 6.71413 7.05275 6.83353 7.20002 6.83353H8.80002C8.94728 6.83353 9.06668 6.71413 9.06668 6.56686V4.96686C9.06668 4.8196 8.94728 4.7002 8.80002 4.7002ZM8.53335 6.3002H7.46668V5.23353H8.53335V6.3002Z" fill="#333333"/>
<path d="M11.4666 4.7002H9.86664C9.71938 4.7002 9.59998 4.8196 9.59998 4.96686V6.56686C9.59998 6.71413 9.71938 6.83353 9.86664 6.83353H11.4666C11.6139 6.83353 11.7333 6.71413 11.7333 6.56686V4.96686C11.7333 4.8196 11.6139 4.7002 11.4666 4.7002ZM11.2 6.3002H10.1333V5.23353H11.2V6.3002Z" fill="#333333"/>
<path d="M6.13327 7.36719H4.53327C4.386 7.36719 4.2666 7.48659 4.2666 7.63385V9.23385C4.2666 9.38112 4.386 9.50052 4.53327 9.50052H6.13327C6.28053 9.50052 6.39993 9.38112 6.39993 9.23385V7.63385C6.39993 7.48659 6.28053 7.36719 6.13327 7.36719ZM5.8666 8.96719H4.79993V7.90052H5.8666V8.96719Z" fill="#333333"/>
<path d="M8.80002 7.36719H7.20002C7.05275 7.36719 6.93335 7.48659 6.93335 7.63385V9.23385C6.93335 9.38112 7.05275 9.50052 7.20002 9.50052H8.80002C8.94728 9.50052 9.06668 9.38112 9.06668 9.23385V7.63385C9.06668 7.48659 8.94728 7.36719 8.80002 7.36719ZM8.53335 8.96719H7.46668V7.90052H8.53335V8.96719Z" fill="#333333"/>
<path d="M11.4666 7.36719H9.86664C9.71938 7.36719 9.59998 7.48659 9.59998 7.63385V9.23385C9.59998 9.38112 9.71938 9.50052 9.86664 9.50052H11.4666C11.6139 9.50052 11.7333 9.38112 11.7333 9.23385V7.63385C11.7333 7.48659 11.6139 7.36719 11.4666 7.36719ZM11.2 8.96719H10.1333V7.90052H11.2V8.96719Z" fill="#333333"/>
<path d="M6.13327 10.0332H4.53327C4.386 10.0332 4.2666 10.1526 4.2666 10.2999V11.8999C4.2666 12.0471 4.386 12.1665 4.53327 12.1665H6.13327C6.28053 12.1665 6.39993 12.0471 6.39993 11.8999V10.2999C6.39993 10.1526 6.28053 10.0332 6.13327 10.0332ZM5.8666 11.6332H4.79993V10.5665H5.8666V11.6332Z" fill="#333333"/>
<path d="M8.80002 10.0332H7.20002C7.05275 10.0332 6.93335 10.1526 6.93335 10.2999V11.8999C6.93335 12.0471 7.05275 12.1665 7.20002 12.1665H8.80002C8.94728 12.1665 9.06668 12.0471 9.06668 11.8999V10.2999C9.06668 10.1526 8.94728 10.0332 8.80002 10.0332ZM8.53335 11.6332H7.46668V10.5665H8.53335V11.6332Z" fill="#333333"/>
<path d="M11.4666 10.0332H9.86664C9.71938 10.0332 9.59998 10.1526 9.59998 10.2999V11.8999C9.59998 12.0471 9.71938 12.1665 9.86664 12.1665H11.4666C11.6139 12.1665 11.7333 12.0471 11.7333 11.8999V10.2999C11.7333 10.1526 11.6139 10.0332 11.4666 10.0332ZM11.2 11.6332H10.1333V10.5665H11.2V11.6332Z" fill="#333333"/>
<path d="M1.59998 6.03418H1.33332C1.18605 6.03418 1.06665 6.15358 1.06665 6.30085V6.56751C1.06665 6.71478 1.18605 6.83418 1.33332 6.83418H1.59998C1.74725 6.83418 1.86665 6.71478 1.86665 6.56751V6.30085C1.86665 6.15358 1.74725 6.03418 1.59998 6.03418Z" fill="#333333"/>
<path d="M2.66663 6.03418H2.39997C2.2527 6.03418 2.1333 6.15358 2.1333 6.30085V6.56751C2.1333 6.71478 2.2527 6.83418 2.39997 6.83418H2.66663C2.8139 6.83418 2.9333 6.71478 2.9333 6.56751V6.30085C2.9333 6.15358 2.8139 6.03418 2.66663 6.03418Z" fill="#333333"/>
<path d="M1.59998 7.10059H1.33332C1.18605 7.10059 1.06665 7.21999 1.06665 7.36725V7.63392C1.06665 7.78119 1.18605 7.90059 1.33332 7.90059H1.59998C1.74725 7.90059 1.86665 7.78119 1.86665 7.63392V7.36725C1.86665 7.21999 1.74725 7.10059 1.59998 7.10059Z" fill="#333333"/>
<path d="M2.66663 7.10059H2.39997C2.2527 7.10059 2.1333 7.21999 2.1333 7.36725V7.63392C2.1333 7.78119 2.2527 7.90059 2.39997 7.90059H2.66663C2.8139 7.90059 2.9333 7.78119 2.9333 7.63392V7.36725C2.9333 7.21999 2.8139 7.10059 2.66663 7.10059Z" fill="#333333"/>
<path d="M1.59998 8.16699H1.33332C1.18605 8.16699 1.06665 8.28639 1.06665 8.43366V8.70033C1.06665 8.84759 1.18605 8.96699 1.33332 8.96699H1.59998C1.74725 8.96699 1.86665 8.84759 1.86665 8.70033V8.43366C1.86665 8.28639 1.74725 8.16699 1.59998 8.16699Z" fill="#333333"/>
<path d="M2.66663 8.16699H2.39997C2.2527 8.16699 2.1333 8.28639 2.1333 8.43366V8.70033C2.1333 8.84759 2.2527 8.96699 2.39997 8.96699H2.66663C2.8139 8.96699 2.9333 8.84759 2.9333 8.70033V8.43366C2.9333 8.28639 2.8139 8.16699 2.66663 8.16699Z" fill="#333333"/>
<path d="M1.59998 9.2334H1.33332C1.18605 9.2334 1.06665 9.3528 1.06665 9.50006V9.76673C1.06665 9.914 1.18605 10.0334 1.33332 10.0334H1.59998C1.74725 10.0334 1.86665 9.914 1.86665 9.76673V9.50006C1.86665 9.3528 1.74725 9.2334 1.59998 9.2334Z" fill="#333333"/>
<path d="M2.66663 9.2334H2.39997C2.2527 9.2334 2.1333 9.3528 2.1333 9.50006V9.76673C2.1333 9.914 2.2527 10.0334 2.39997 10.0334H2.66663C2.8139 10.0334 2.9333 9.914 2.9333 9.76673V9.50006C2.9333 9.3528 2.8139 9.2334 2.66663 9.2334Z" fill="#333333"/>
<path d="M1.59998 10.3008H1.33332C1.18605 10.3008 1.06665 10.4202 1.06665 10.5674V10.8341C1.06665 10.9814 1.18605 11.1008 1.33332 11.1008H1.59998C1.74725 11.1008 1.86665 10.9814 1.86665 10.8341V10.5674C1.86665 10.4202 1.74725 10.3008 1.59998 10.3008Z" fill="#333333"/>
<path d="M2.66663 10.3008H2.39997C2.2527 10.3008 2.1333 10.4202 2.1333 10.5674V10.8341C2.1333 10.9814 2.2527 11.1008 2.39997 11.1008H2.66663C2.8139 11.1008 2.9333 10.9814 2.9333 10.8341V10.5674C2.9333 10.4202 2.8139 10.3008 2.66663 10.3008Z" fill="#333333"/>
<path d="M1.59998 11.3672H1.33332C1.18605 11.3672 1.06665 11.4866 1.06665 11.6339V11.9005C1.06665 12.0478 1.18605 12.1672 1.33332 12.1672H1.59998C1.74725 12.1672 1.86665 12.0478 1.86665 11.9005V11.6339C1.86665 11.4866 1.74725 11.3672 1.59998 11.3672Z" fill="#333333"/>
<path d="M2.66663 11.3672H2.39997C2.2527 11.3672 2.1333 11.4866 2.1333 11.6339V11.9005C2.1333 12.0478 2.2527 12.1672 2.39997 12.1672H2.66663C2.8139 12.1672 2.9333 12.0478 2.9333 11.9005V11.6339C2.9333 11.4866 2.8139 11.3672 2.66663 11.3672Z" fill="#333333"/>
<path d="M1.59998 12.4336H1.33332C1.18605 12.4336 1.06665 12.553 1.06665 12.7003V12.9669C1.06665 13.1142 1.18605 13.2336 1.33332 13.2336H1.59998C1.74725 13.2336 1.86665 13.1142 1.86665 12.9669V12.7003C1.86665 12.553 1.74725 12.4336 1.59998 12.4336Z" fill="#333333"/>
<path d="M2.66663 12.4336H2.39997C2.2527 12.4336 2.1333 12.553 2.1333 12.7003V12.9669C2.1333 13.1142 2.2527 13.2336 2.39997 13.2336H2.66663C2.8139 13.2336 2.9333 13.1142 2.9333 12.9669V12.7003C2.9333 12.553 2.8139 12.4336 2.66663 12.4336Z" fill="#333333"/>
<path d="M1.59998 13.5H1.33332C1.18605 13.5 1.06665 13.6194 1.06665 13.7667V14.0333C1.06665 14.1806 1.18605 14.3 1.33332 14.3H1.59998C1.74725 14.3 1.86665 14.1806 1.86665 14.0333V13.7667C1.86665 13.6194 1.74725 13.5 1.59998 13.5Z" fill="#333333"/>
<path d="M2.66663 13.5H2.39997C2.2527 13.5 2.1333 13.6194 2.1333 13.7667V14.0333C2.1333 14.1806 2.2527 14.3 2.39997 14.3H2.66663C2.8139 14.3 2.9333 14.1806 2.9333 14.0333V13.7667C2.9333 13.6194 2.8139 13.5 2.66663 13.5Z" fill="#333333"/>
<path d="M1.59998 14.5664H1.33332C1.18605 14.5664 1.06665 14.6858 1.06665 14.8331V15.0997C1.06665 15.247 1.18605 15.3664 1.33332 15.3664H1.59998C1.74725 15.3664 1.86665 15.247 1.86665 15.0997V14.8331C1.86665 14.6858 1.74725 14.5664 1.59998 14.5664Z" fill="#333333"/>
<path d="M2.66663 14.5664H2.39997C2.2527 14.5664 2.1333 14.6858 2.1333 14.8331V15.0997C2.1333 15.247 2.2527 15.3664 2.39997 15.3664H2.66663C2.8139 15.3664 2.9333 15.247 2.9333 15.0997V14.8331C2.9333 14.6858 2.8139 14.5664 2.66663 14.5664Z" fill="#333333"/>
<path d="M14.6667 4.43359H13.6C13.4528 4.43359 13.3334 4.55299 13.3334 4.70026V5.76693C13.3334 5.91419 13.4528 6.03359 13.6 6.03359H14.6667C14.814 6.03359 14.9334 5.91419 14.9334 5.76693V4.70026C14.9334 4.55299 14.814 4.43359 14.6667 4.43359ZM14.4 5.50026H13.8667V4.96693H14.4V5.50026Z" fill="#333333"/>
<path d="M14.6667 6.56641H13.6C13.4528 6.56641 13.3334 6.68581 13.3334 6.83307V7.89974C13.3334 8.04701 13.4528 8.16641 13.6 8.16641H14.6667C14.814 8.16641 14.9334 8.04701 14.9334 7.89974V6.83307C14.9334 6.68581 14.814 6.56641 14.6667 6.56641ZM14.4 7.63307H13.8667V7.09974H14.4V7.63307Z" fill="#333333"/>
<path d="M14.6667 8.7002H13.6C13.4528 8.7002 13.3334 8.8196 13.3334 8.96686V10.0335C13.3334 10.1808 13.4528 10.3002 13.6 10.3002H14.6667C14.814 10.3002 14.9334 10.1808 14.9334 10.0335V8.96686C14.9334 8.8196 14.814 8.7002 14.6667 8.7002ZM14.4 9.76686H13.8667V9.23353H14.4V9.76686Z" fill="#333333"/>
<path d="M14.6667 10.834H13.6C13.4528 10.834 13.3334 10.9534 13.3334 11.1007V12.1673C13.3334 12.3146 13.4528 12.434 13.6 12.434H14.6667C14.814 12.434 14.9334 12.3146 14.9334 12.1673V11.1007C14.9334 10.9534 14.814 10.834 14.6667 10.834ZM14.4 11.9007H13.8667V11.3673H14.4V11.9007Z" fill="#333333"/>
<path d="M14.6667 12.9668H13.6C13.4528 12.9668 13.3334 13.0862 13.3334 13.2335V14.3001C13.3334 14.4474 13.4528 14.5668 13.6 14.5668H14.6667C14.814 14.5668 14.9334 14.4474 14.9334 14.3001V13.2335C14.9334 13.0862 14.814 12.9668 14.6667 12.9668ZM14.4 14.0335H13.8667V13.5001H14.4V14.0335Z" fill="#333333"/>
</svg>
