<svg height="512pt" viewBox="0 -27 512 512" width="512pt" xmlns="http://www.w3.org/2000/svg"><path d="m309.839844 277.019531c-78.964844-40.082031-172.3125-40.082031-251.273438 0-17.160156 8.710938-27.96875 26.324219-27.96875 45.566407v111.25h307.210938v-111.25c0-19.242188-10.8125-36.855469-27.96875-45.566407zm0 0" fill="#fc6a58"/><path d="m309.839844 277.019531c-29.585938-15.019531-61.191406-24.402343-93.304688-28.164062-3.152344 14.964843-16.429687 26.199219-32.332031 26.199219-6.589844 0-12.726563-1.9375-17.882813-5.261719v.039062c4.175782 10.589844 13.914063 17.972657 25.242188 19.101563 23.351562 2.328125 46.21875 5.351562 67.988281 16.402344 17.160157 8.710937 27.96875 26.324218 27.96875 45.566406v82.933594h50.289063v-111.25c0-19.242188-10.8125-36.855469-27.96875-45.566407zm0 0" fill="#e35052"/><path d="m184.203125 275.054688c-18.253906 0-33.046875-14.796876-33.046875-33.046876v-51.6875h66.09375v51.6875c0 18.25-14.796875 33.046876-33.046875 33.046876zm0 0" fill="#fed6a6"/><path d="m166.386719 269.832031c5.140625 3.300781 11.253906 5.222657 17.816406 5.222657 18.25 0 33.046875-14.796876 33.046875-33.046876v-51.6875h-50.34375zm0 0" fill="#efc79c"/><path d="m260.515625 31.644531h-152.628906c-12.433594 0-22.507813 10.078125-22.507813 22.511719v62.277344h197.648438v-62.277344c0-12.433594-10.078125-22.511719-22.511719-22.511719zm0 0" fill="#fa9a39"/><path d="m111.730469 96.957031h-12.015625c-10.195313 0-18.453125 8.269531-18.453125 18.464844v8.734375c0 10.195312 8.253906 18.460938 18.453125 18.460938h12.015625zm0 0" fill="#fed6a6"/><path d="m256.675781 96.957031h12.015625c10.195313 0 18.453125 8.269531 18.453125 18.464844v8.734375c0 10.195312-8.257812 18.460938-18.453125 18.460938h-12.015625zm0 0" fill="#fed6a6"/><path d="m106.285156 66.710938.265625 86.144531c.515625 21.953125 12.964844 37.097656 26.171875 50.105469 12.15625 11.96875 28.695313 26.101562 51.894532 26.300781 23.199218-.359375 39.640624-14.589844 51.710937-26.640625 13.117187-13.097656 25.464844-28.347656 25.828125-50.300782l-.164062-52.230468c-.054688-18.453125-15.03125-33.378906-33.484376-33.378906zm0 0" fill="#ffe3c2"/><path d="m261.996094 100.089844c-.058594-18.453125-15.03125-33.378906-33.484375-33.378906h-16.757813l.113282 85.609374c-.363282 21.953126-12.710938 37.203126-25.828126 50.300782-7.195312 7.1875-15.945312 15.144531-26.753906 20.476562 7.429688 3.65625 15.820313 6.085938 25.332032 6.164063 23.199218-.355469 39.640624-14.585938 51.710937-26.640625 13.117187-13.097656 25.464844-28.347656 25.828125-50.300782zm0 0" fill="#f7d6b5"/><path d="m139.425781 0c-17.820312 0-32.34375 14.078125-33.074219 31.71875-11.570312.945312-20.972656 10.628906-20.972656 22.4375v49.648438c3.378906-4.175782 8.542969-6.847657 14.335938-6.847657h6.664062s.027344 0-.003906 0c12.214844 0 22.640625-9.796875 25.042969-21.769531 0-4.632812 3.753906-8.386719 8.386719-8.386719h90.492187c27.421875 0 49.648437-22.226562 49.648437-49.648437v-14.859375c0-1.265625-1.027343-2.292969-2.292968-2.292969zm0 0" fill="#fdbd37"/><path d="m191.109375 160.277344h-5.71875c-5.703125 0-10.34375-4.640625-10.34375-10.347656v-17.351563c0-4.207031 3.410156-7.617187 7.613281-7.617187 4.207032 0 7.617188 3.410156 7.617188 7.617187v12.46875h.832031c4.207031 0 7.613281 3.40625 7.613281 7.613281 0 4.207032-3.40625 7.617188-7.613281 7.617188zm0 0" fill="#d08f61"/><path d="m184.203125 197.9375c-13.671875 0-26.082031-6.1875-32.386719-16.148438-2.25-3.554687-1.191406-8.257812 2.363282-10.507812 3.554687-2.25 8.257812-1.191406 10.507812 2.363281 3.484375 5.503907 11.144531 9.0625 19.515625 9.0625 8.375 0 16.035156-3.558593 19.519531-9.0625 2.25-3.554687 6.957032-4.613281 10.507813-2.363281 3.554687 2.25 4.613281 6.953125 2.363281 10.507812-6.304688 9.960938-18.714844 16.148438-32.390625 16.148438zm0 0" fill="#c35f58"/><path d="m223.933594 131.953125c-4.207032 0-7.613282-3.40625-7.613282-7.613281v-7.90625c0-4.207032 3.40625-7.617188 7.613282-7.617188 4.207031 0 7.617187 3.410156 7.617187 7.617188v7.90625c0 4.207031-3.410156 7.613281-7.617187 7.613281zm0 0" fill="#844535"/><path d="m144.472656 131.953125c-4.207031 0-7.617187-3.40625-7.617187-7.613281v-7.90625c0-4.207032 3.410156-7.617188 7.617187-7.617188 4.207032 0 7.613282 3.410156 7.613282 7.617188v7.90625c0 4.207031-3.40625 7.613281-7.613282 7.613281zm0 0" fill="#844535"/><path d="m128.441406 252.617188c-8.605468 1.761718-17.144531 3.945312-25.589844 6.53125v100.660156h25.589844zm0 0" fill="#4c7ba5"/><path d="m265.546875 259.148438c-8.445313-2.589844-16.984375-4.769532-25.589844-6.535157v111.570313h25.589844zm0 0" fill="#4c7ba5"/><path d="m292.382812 433.835938v-77.082032c0-3.789062-2.035156-7.289062-5.34375-9.136718-7.828124-4.371094-21.484374-13.515626-21.484374-24.089844v-3.496094c0-3.824219-3.101563-6.925781-6.925782-6.925781h-148.855468c-3.820313 0-6.921876 3.101562-6.921876 6.925781v3.496094c0 10.574218-13.660156 19.71875-21.484374 24.089844-3.308594 1.847656-5.347657 5.347656-5.347657 9.136718v77.082032zm0 0" fill="#375779"/><g fill="#394856"><path d="m421.378906 275.253906h-26.148437c-4.203125 0-7.613281 3.40625-7.613281 7.613282 0 4.207031 3.410156 7.617187 7.613281 7.617187h5.460937v11.800781c0 4.207032 3.40625 7.613282 7.613282 7.613282 4.207031 0 7.617187-3.40625 7.617187-7.613282v-11.800781h5.457031c4.207032 0 7.613282-3.410156 7.613282-7.617187 0-4.207032-3.40625-7.613282-7.613282-7.613282zm0 0"/><path d="m495.746094 327.949219h-14.207032c-4.207031 0-7.613281 3.410156-7.613281 7.617187v7.613282h21.820313c.566406 0 1.023437.460937 1.023437 1.023437v9.96875c0 .5625-.457031 1.023437-1.023437 1.023437h-21.820313v7.613282c0 4.207031 3.40625 7.617187 7.613281 7.617187h14.207032c8.964844 0 16.253906-7.292969 16.253906-16.253906v-9.972656c0-8.957031-7.289062-16.25-16.253906-16.25zm0 0"/><path d="m319.839844 354.171875v-9.96875c0-.5625.460937-1.019531 1.023437-1.019531h21.824219v-7.617188c0-4.207031-3.410156-7.613281-7.617188-7.613281h-14.207031c-8.960937 0-16.253906 7.289063-16.253906 16.25v9.972656c0 8.960938 7.292969 16.253907 16.253906 16.253907h14.207031c4.207032 0 7.617188-3.410157 7.617188-7.617188v-7.613281h-21.824219c-.5625-.003907-1.023437-.460938-1.023437-1.027344zm0 0"/></g><path d="m449.65625 302.285156h-82.703125c-18.378906 0-33.277344 14.902344-33.277344 33.28125v52.554688c0 14.109375 11.4375 25.546875 25.546875 25.546875h98.164063c14.109375 0 25.546875-11.4375 25.546875-25.546875v-52.554688c0-18.382812-14.898438-33.28125-33.277344-33.28125zm0 0" fill="#b2b9bf"/><path d="m449.65625 302.285156h-28.21875c6.191406 0 11.207031 5.019532 11.207031 11.210938v96.695312c0 1.917969-1.554687 3.476563-3.476562 3.476563h28.21875c14.109375 0 25.546875-11.4375 25.546875-25.546875v-52.554688c0-18.382812-14.898438-33.28125-33.277344-33.28125zm0 0" fill="#a3acb2"/><path d="m449.65625 302.285156h-82.703125c-18.378906 0-33.277344 14.898438-33.277344 33.28125h149.257813c0-18.382812-14.898438-33.28125-33.277344-33.28125zm0 0" fill="#545464"/><path d="m421.4375 302.285156c6.191406 0 11.207031 5.019532 11.207031 11.210938v22.070312h50.289063c0-2.871094-.363282-5.660156-1.046875-8.316406-.273438-1.0625-.597657-2.105469-.972657-3.128906-.933593-2.546875-2.167968-4.949219-3.664062-7.160156-1.792969-2.65625-3.960938-5.039063-6.425781-7.074219-.410157-.339844-.832031-.667969-1.257813-.988281-5.550781-4.152344-12.445312-6.613282-19.910156-6.613282zm0 0" fill="#394856"/><path d="m497.75 458.832031h-490.863281c-3.800781 0-6.886719-3.085937-6.886719-6.886719v-33.421874c0-3.804688 3.085938-6.886719 6.886719-6.886719h490.867187c3.800782 0 6.886719 3.082031 6.886719 6.886719v33.421874c0 3.800782-3.085937 6.886719-6.890625 6.886719zm0 0" fill="#8b5f46"/><path d="m497.75 411.636719h-43.398438v47.195312h43.398438c3.804688 0 6.886719-3.085937 6.886719-6.890625v-33.417968c.003906-3.804688-3.082031-6.886719-6.886719-6.886719zm0 0" fill="#844535"/></svg>