<svg width="351" height="140" viewBox="0 0 351 140" fill="none" xmlns="http://www.w3.org/2000/svg">
<rect width="351" height="140" rx="11" fill="#2F80ED"/>
<path d="M129.939 55.4932V59H127.889V49.0469H131.771C132.519 49.0469 133.175 49.1836 133.74 49.457C134.31 49.7305 134.747 50.1201 135.053 50.626C135.358 51.1273 135.511 51.6992 135.511 52.3418C135.511 53.3171 135.176 54.0872 134.506 54.6523C133.84 55.2129 132.918 55.4932 131.737 55.4932H129.939ZM129.939 53.832H131.771C132.314 53.832 132.726 53.7044 133.009 53.4492C133.296 53.194 133.439 52.8294 133.439 52.3555C133.439 51.8678 133.296 51.4736 133.009 51.1729C132.722 50.8721 132.325 50.7171 131.819 50.708H129.939V53.832ZM141 59C140.909 58.8223 140.843 58.6012 140.802 58.3369C140.323 58.8701 139.701 59.1367 138.936 59.1367C138.211 59.1367 137.609 58.9271 137.131 58.5078C136.657 58.0885 136.42 57.5599 136.42 56.9219C136.42 56.138 136.709 55.5365 137.288 55.1172C137.871 54.6979 138.712 54.486 139.811 54.4814H140.72V54.0576C140.72 53.7158 140.631 53.4424 140.453 53.2373C140.28 53.0322 140.004 52.9297 139.626 52.9297C139.293 52.9297 139.031 53.0094 138.84 53.1689C138.653 53.3285 138.56 53.5472 138.56 53.8252H136.584C136.584 53.3968 136.716 53.0003 136.98 52.6357C137.245 52.2712 137.618 51.9863 138.102 51.7812C138.585 51.5716 139.127 51.4668 139.729 51.4668C140.64 51.4668 141.362 51.6969 141.896 52.1572C142.433 52.613 142.702 53.2555 142.702 54.085V57.291C142.707 57.9928 142.805 58.5238 142.996 58.8838V59H141ZM139.366 57.626C139.658 57.626 139.927 57.5622 140.173 57.4346C140.419 57.3024 140.601 57.127 140.72 56.9082V55.6367H139.981C138.993 55.6367 138.466 55.9785 138.402 56.6621L138.396 56.7783C138.396 57.0244 138.482 57.2272 138.655 57.3867C138.828 57.5462 139.065 57.626 139.366 57.626ZM147.296 57.5439C147.66 57.5439 147.957 57.4437 148.185 57.2432C148.412 57.0426 148.531 56.776 148.54 56.4434H150.393C150.388 56.9447 150.251 57.4049 149.982 57.8242C149.714 58.2389 149.344 58.5625 148.875 58.7949C148.41 59.0228 147.895 59.1367 147.33 59.1367C146.273 59.1367 145.439 58.8018 144.828 58.1318C144.217 57.4574 143.912 56.5277 143.912 55.3428V55.2129C143.912 54.0736 144.215 53.1644 144.821 52.4854C145.427 51.8063 146.259 51.4668 147.316 51.4668C148.242 51.4668 148.982 51.7311 149.538 52.2598C150.099 52.7839 150.383 53.4834 150.393 54.3584H148.54C148.531 53.9756 148.412 53.6657 148.185 53.4287C147.957 53.1872 147.656 53.0664 147.282 53.0664C146.822 53.0664 146.473 53.235 146.236 53.5723C146.004 53.9049 145.888 54.4473 145.888 55.1992V55.4043C145.888 56.1654 146.004 56.7122 146.236 57.0449C146.469 57.3776 146.822 57.5439 147.296 57.5439ZM154.419 56.2725H153.626V59H151.65V51.6035H153.626V54.3857H154.33L155.943 51.6035H158.438L156.019 55.124L158.664 59H156.032L154.419 56.2725ZM166.067 55.3701C166.067 56.5094 165.808 57.4232 165.288 58.1113C164.773 58.7949 164.076 59.1367 163.196 59.1367C162.449 59.1367 161.845 58.877 161.385 58.3574V61.8438H159.409V51.6035H161.241L161.31 52.3281C161.788 51.7539 162.412 51.4668 163.183 51.4668C164.094 51.4668 164.803 51.804 165.309 52.4785C165.814 53.153 166.067 54.0827 166.067 55.2676V55.3701ZM164.092 55.2266C164.092 54.5384 163.969 54.0075 163.723 53.6338C163.481 53.2601 163.128 53.0732 162.663 53.0732C162.043 53.0732 161.617 53.3102 161.385 53.7842V56.8125C161.626 57.3001 162.057 57.5439 162.677 57.5439C163.62 57.5439 164.092 56.7715 164.092 55.2266ZM169.978 56.2041L171.345 51.6035H173.464L170.49 60.1484L170.326 60.5381C169.884 61.5042 169.155 61.9873 168.139 61.9873C167.852 61.9873 167.56 61.944 167.264 61.8574V60.3604L167.564 60.3672C167.938 60.3672 168.216 60.3102 168.398 60.1963C168.585 60.0824 168.731 59.8932 168.836 59.6289L169.068 59.0205L166.478 51.6035H168.604L169.978 56.2041ZM180.382 53.1895H178.01V59H176.027V53.1895H173.696V51.6035H180.382V53.1895ZM185.837 51.6035H187.812V59H185.837V54.4336L183.362 59H181.38V51.6035H183.362V56.1631L185.837 51.6035ZM192.939 59V49.0469H196.002C196.877 49.0469 197.659 49.2451 198.347 49.6416C199.039 50.0335 199.579 50.5941 199.967 51.3232C200.354 52.0479 200.548 52.8727 200.548 53.7979V54.2559C200.548 55.181 200.356 56.0036 199.974 56.7236C199.595 57.4437 199.06 58.002 198.367 58.3984C197.674 58.7949 196.893 58.9954 196.022 59H192.939ZM194.99 50.708V57.3525H195.981C196.784 57.3525 197.396 57.0905 197.82 56.5664C198.244 56.0423 198.461 55.2926 198.47 54.3174V53.791C198.47 52.7793 198.26 52.0137 197.841 51.4941C197.422 50.9701 196.809 50.708 196.002 50.708H194.99ZM201.607 55.2334C201.607 54.4997 201.749 53.8457 202.031 53.2715C202.314 52.6973 202.719 52.2529 203.248 51.9385C203.781 51.624 204.399 51.4668 205.101 51.4668C206.099 51.4668 206.912 51.7721 207.541 52.3828C208.174 52.9935 208.528 53.8229 208.601 54.8711L208.614 55.377C208.614 56.5117 208.298 57.4232 207.664 58.1113C207.031 58.7949 206.181 59.1367 205.114 59.1367C204.048 59.1367 203.196 58.7949 202.558 58.1113C201.924 57.4277 201.607 56.498 201.607 55.3223V55.2334ZM203.583 55.377C203.583 56.0788 203.715 56.6165 203.979 56.9902C204.244 57.3594 204.622 57.5439 205.114 57.5439C205.593 57.5439 205.966 57.3617 206.235 56.9971C206.504 56.6279 206.639 56.04 206.639 55.2334C206.639 54.5452 206.504 54.012 206.235 53.6338C205.966 53.2555 205.588 53.0664 205.101 53.0664C204.618 53.0664 204.244 53.2555 203.979 53.6338C203.715 54.0075 203.583 54.5885 203.583 55.377ZM212.641 49.0469L215.197 56.2656L217.74 49.0469H220.434V59H218.376V56.2793L218.581 51.583L215.895 59H214.486L211.807 51.5898L212.012 56.2793V59H209.961V49.0469H212.641ZM224.18 59H222.197V51.6035H224.18V59ZM222.081 49.6895C222.081 49.3932 222.179 49.1494 222.375 48.958C222.576 48.7666 222.847 48.6709 223.188 48.6709C223.526 48.6709 223.795 48.7666 223.995 48.958C224.196 49.1494 224.296 49.3932 224.296 49.6895C224.296 49.9902 224.193 50.2363 223.988 50.4277C223.788 50.6191 223.521 50.7148 223.188 50.7148C222.856 50.7148 222.587 50.6191 222.382 50.4277C222.181 50.2363 222.081 49.9902 222.081 49.6895ZM227.666 51.6035L227.728 52.4307C228.252 51.7881 228.96 51.4668 229.854 51.4668C230.806 51.4668 231.46 51.8428 231.815 52.5947C232.335 51.8428 233.076 51.4668 234.037 51.4668C234.839 51.4668 235.436 51.7015 235.828 52.1709C236.22 52.6357 236.416 53.3376 236.416 54.2764V59H234.434V54.2832C234.434 53.8639 234.352 53.5586 234.188 53.3672C234.023 53.1712 233.734 53.0732 233.319 53.0732C232.727 53.0732 232.317 53.3558 232.089 53.9209L232.096 59H230.12V54.29C230.12 53.8617 230.036 53.5518 229.867 53.3604C229.699 53.1689 229.411 53.0732 229.006 53.0732C228.445 53.0732 228.04 53.3057 227.789 53.7705V59H225.813V51.6035H227.666ZM240.025 59H238.043V51.6035H240.025V59ZM237.927 49.6895C237.927 49.3932 238.025 49.1494 238.221 48.958C238.421 48.7666 238.692 48.6709 239.034 48.6709C239.371 48.6709 239.64 48.7666 239.841 48.958C240.041 49.1494 240.142 49.3932 240.142 49.6895C240.142 49.9902 240.039 50.2363 239.834 50.4277C239.633 50.6191 239.367 50.7148 239.034 50.7148C238.701 50.7148 238.433 50.6191 238.228 50.4277C238.027 50.2363 237.927 49.9902 237.927 49.6895ZM245.275 59V51.6035H248.365C249.372 51.6035 250.145 51.7812 250.683 52.1367C251.22 52.4922 251.489 53.0026 251.489 53.668C251.489 54.0098 251.375 54.3174 251.147 54.5908C250.924 54.8597 250.596 55.0671 250.163 55.2129C250.692 55.3132 251.106 55.5114 251.407 55.8076C251.713 56.0993 251.865 56.4593 251.865 56.8877C251.865 57.5758 251.605 58.0999 251.086 58.46C250.571 58.82 249.821 59 248.837 59H245.275ZM247.251 55.9307V57.4209H248.844C249.541 57.4209 249.89 57.1771 249.89 56.6895C249.89 56.1927 249.557 55.9398 248.892 55.9307H247.251ZM247.251 54.6045H248.475C249.167 54.5954 249.514 54.3721 249.514 53.9346C249.514 53.6657 249.418 53.4743 249.227 53.3604C249.04 53.2464 248.753 53.1895 248.365 53.1895H247.251V54.6045ZM259.638 57.5439C260.002 57.5439 260.299 57.4437 260.526 57.2432C260.754 57.0426 260.873 56.776 260.882 56.4434H262.734C262.73 56.9447 262.593 57.4049 262.324 57.8242C262.055 58.2389 261.686 58.5625 261.217 58.7949C260.752 59.0228 260.237 59.1367 259.672 59.1367C258.615 59.1367 257.781 58.8018 257.17 58.1318C256.559 57.4574 256.254 56.5277 256.254 55.3428V55.2129C256.254 54.0736 256.557 53.1644 257.163 52.4854C257.769 51.8063 258.601 51.4668 259.658 51.4668C260.583 51.4668 261.324 51.7311 261.88 52.2598C262.44 52.7839 262.725 53.4834 262.734 54.3584H260.882C260.873 53.9756 260.754 53.6657 260.526 53.4287C260.299 53.1872 259.998 53.0664 259.624 53.0664C259.164 53.0664 258.815 53.235 258.578 53.5723C258.346 53.9049 258.229 54.4473 258.229 55.1992V55.4043C258.229 56.1654 258.346 56.7122 258.578 57.0449C258.811 57.3776 259.164 57.5439 259.638 57.5439ZM263.992 59V51.6035H267.082C268.089 51.6035 268.862 51.7812 269.399 52.1367C269.937 52.4922 270.206 53.0026 270.206 53.668C270.206 54.0098 270.092 54.3174 269.864 54.5908C269.641 54.8597 269.313 55.0671 268.88 55.2129C269.409 55.3132 269.823 55.5114 270.124 55.8076C270.429 56.0993 270.582 56.4593 270.582 56.8877C270.582 57.5758 270.322 58.0999 269.803 58.46C269.288 58.82 268.538 59 267.554 59H263.992ZM265.968 55.9307V57.4209H267.561C268.258 57.4209 268.606 57.1771 268.606 56.6895C268.606 56.1927 268.274 55.9398 267.608 55.9307H265.968ZM265.968 54.6045H267.191C267.884 54.5954 268.23 54.3721 268.23 53.9346C268.23 53.6657 268.135 53.4743 267.943 53.3604C267.757 53.2464 267.469 53.1895 267.082 53.1895H265.968V54.6045ZM271.484 55.2334C271.484 54.4997 271.626 53.8457 271.908 53.2715C272.191 52.6973 272.596 52.2529 273.125 51.9385C273.658 51.624 274.276 51.4668 274.978 51.4668C275.976 51.4668 276.789 51.7721 277.418 52.3828C278.051 52.9935 278.405 53.8229 278.478 54.8711L278.491 55.377C278.491 56.5117 278.174 57.4232 277.541 58.1113C276.908 58.7949 276.058 59.1367 274.991 59.1367C273.925 59.1367 273.073 58.7949 272.435 58.1113C271.801 57.4277 271.484 56.498 271.484 55.3223V55.2334ZM273.46 55.377C273.46 56.0788 273.592 56.6165 273.856 56.9902C274.121 57.3594 274.499 57.5439 274.991 57.5439C275.47 57.5439 275.843 57.3617 276.112 56.9971C276.381 56.6279 276.516 56.04 276.516 55.2334C276.516 54.5452 276.381 54.012 276.112 53.6338C275.843 53.2555 275.465 53.0664 274.978 53.0664C274.494 53.0664 274.121 53.2555 273.856 53.6338C273.592 54.0075 273.46 54.5885 273.46 55.377ZM283.112 59.1367C282.028 59.1367 281.144 58.804 280.46 58.1387C279.781 57.4733 279.441 56.5869 279.441 55.4795V55.2881C279.441 54.5452 279.585 53.8822 279.872 53.2988C280.159 52.7109 280.565 52.2598 281.089 51.9453C281.618 51.6263 282.219 51.4668 282.894 51.4668C283.905 51.4668 284.701 51.7858 285.279 52.4238C285.863 53.0618 286.154 53.9665 286.154 55.1377V55.9443H281.444C281.508 56.4274 281.7 56.8148 282.019 57.1064C282.342 57.3981 282.75 57.5439 283.242 57.5439C284.003 57.5439 284.598 57.2682 285.026 56.7168L285.997 57.8037C285.701 58.223 285.3 58.5511 284.794 58.7881C284.288 59.0205 283.728 59.1367 283.112 59.1367ZM282.887 53.0664C282.495 53.0664 282.176 53.1986 281.93 53.4629C281.688 53.7272 281.533 54.1055 281.465 54.5977H284.213V54.4404C284.204 54.0029 284.085 53.6657 283.857 53.4287C283.63 53.1872 283.306 53.0664 282.887 53.0664ZM291.787 56.6689L293.722 51.6035H296.196V59H294.221V54.4609L292.45 59H291.124L289.388 54.5361V59H287.412V51.6035H289.866L291.787 56.6689ZM309.93 54.9463H308.747V59H306.696V54.9463H305.486L303.319 59H300.763L303.866 53.6611L300.913 49.0469H303.463L305.678 53.0596H306.696V49.0469H308.747V53.0596H309.745L311.905 49.0469H314.448L311.55 53.6543L314.605 59H312.042L309.93 54.9463ZM318.755 54.9326H317.572V59H315.521V49.0469H317.572V53.0322H318.509L320.942 49.0469H323.444L320.375 53.7568L323.766 59H321.318L318.755 54.9326Z" fill="white"/>
<path d="M134.506 85H133.375V77.3945H129.168V85H128.043V76.4688H134.506V85ZM136.1 81.7715C136.1 81.1504 136.221 80.5918 136.463 80.0957C136.709 79.5996 137.049 79.2168 137.482 78.9473C137.92 78.6777 138.418 78.543 138.977 78.543C139.84 78.543 140.537 78.8418 141.068 79.4395C141.604 80.0371 141.871 80.832 141.871 81.8242V81.9004C141.871 82.5176 141.752 83.0723 141.514 83.5645C141.279 84.0527 140.941 84.4336 140.5 84.707C140.062 84.9805 139.559 85.1172 138.988 85.1172C138.129 85.1172 137.432 84.8184 136.896 84.2207C136.365 83.623 136.1 82.832 136.1 81.8477V81.7715ZM137.189 81.9004C137.189 82.6035 137.352 83.168 137.676 83.5938C138.004 84.0195 138.441 84.2324 138.988 84.2324C139.539 84.2324 139.977 84.0176 140.301 83.5879C140.625 83.1543 140.787 82.5488 140.787 81.7715C140.787 81.0762 140.621 80.5137 140.289 80.084C139.961 79.6504 139.523 79.4336 138.977 79.4336C138.441 79.4336 138.01 79.6465 137.682 80.0723C137.354 80.498 137.189 81.1074 137.189 81.9004ZM148.334 78.6602V85H147.244V79.5566H145.088L144.959 81.9297C144.889 83.0195 144.705 83.7988 144.408 84.2676C144.115 84.7363 143.648 84.9805 143.008 85H142.574V84.0449L142.885 84.0215C143.236 83.9824 143.488 83.7793 143.641 83.4121C143.793 83.0449 143.891 82.3652 143.934 81.373L144.051 78.6602H148.334ZM152.148 83.4121L153.625 78.6602H154.785L152.236 85.9785C151.842 87.0332 151.215 87.5605 150.355 87.5605L150.15 87.543L149.746 87.4668V86.5879L150.039 86.6113C150.406 86.6113 150.691 86.5371 150.895 86.3887C151.102 86.2402 151.271 85.9688 151.404 85.5742L151.645 84.9297L149.383 78.6602H150.566L152.148 83.4121ZM160.545 85H159.455V82.7031C158.979 82.8281 158.49 82.8906 157.99 82.8906C157.197 82.8906 156.592 82.6875 156.174 82.2812C155.76 81.875 155.549 81.2969 155.541 80.5469V78.6543H156.625V80.582C156.645 81.5273 157.1 82 157.99 82C158.49 82 158.979 81.9375 159.455 81.8125V78.6602H160.545V85ZM166.199 85C166.137 84.875 166.086 84.6523 166.047 84.332C165.543 84.8555 164.941 85.1172 164.242 85.1172C163.617 85.1172 163.104 84.9414 162.701 84.5898C162.303 84.2344 162.104 83.7852 162.104 83.2422C162.104 82.582 162.354 82.0703 162.854 81.707C163.357 81.3398 164.064 81.1562 164.975 81.1562H166.029V80.6582C166.029 80.2793 165.916 79.9785 165.689 79.7559C165.463 79.5293 165.129 79.416 164.688 79.416C164.301 79.416 163.977 79.5137 163.715 79.709C163.453 79.9043 163.322 80.1406 163.322 80.418H162.232C162.232 80.1016 162.344 79.7969 162.566 79.5039C162.793 79.207 163.098 78.9727 163.48 78.8008C163.867 78.6289 164.291 78.543 164.752 78.543C165.482 78.543 166.055 78.7266 166.469 79.0938C166.883 79.457 167.098 79.959 167.113 80.5996V83.5176C167.113 84.0996 167.188 84.5625 167.336 84.9062V85H166.199ZM164.4 84.1738C164.74 84.1738 165.062 84.0859 165.367 83.9102C165.672 83.7344 165.893 83.5059 166.029 83.2246V81.9238H165.18C163.852 81.9238 163.188 82.3125 163.188 83.0898C163.188 83.4297 163.301 83.6953 163.527 83.8867C163.754 84.0781 164.045 84.1738 164.4 84.1738ZM172.914 78.6602H173.998V85H172.914V80.377L169.99 85H168.906V78.6602H169.99V83.2891L172.914 78.6602ZM173.207 76.3516C173.207 76.8242 173.045 77.2051 172.721 77.4941C172.4 77.7793 171.979 77.9219 171.455 77.9219C170.932 77.9219 170.508 77.7773 170.184 77.4883C169.859 77.1992 169.697 76.8203 169.697 76.3516H170.582C170.582 76.625 170.656 76.8398 170.805 76.9961C170.953 77.1484 171.17 77.2246 171.455 77.2246C171.729 77.2246 171.941 77.1484 172.094 76.9961C172.25 76.8438 172.328 76.6289 172.328 76.3516H173.207ZM179.143 78.707L179.881 72.2031H187.053V74.3213H181.964L181.647 77.0723C182.251 76.75 182.893 76.5889 183.572 76.5889C184.791 76.5889 185.746 76.9668 186.438 77.7227C187.129 78.4785 187.475 79.5361 187.475 80.8955C187.475 81.7217 187.299 82.4629 186.947 83.1191C186.602 83.7695 186.104 84.2764 185.453 84.6396C184.803 84.9971 184.035 85.1758 183.15 85.1758C182.377 85.1758 181.659 85.0205 180.997 84.71C180.335 84.3936 179.811 83.9512 179.424 83.3828C179.043 82.8145 178.841 82.167 178.817 81.4404H181.331C181.384 81.9736 181.568 82.3896 181.885 82.6885C182.207 82.9814 182.626 83.1279 183.142 83.1279C183.716 83.1279 184.158 82.9229 184.469 82.5127C184.779 82.0967 184.935 81.5107 184.935 80.7549C184.935 80.0283 184.756 79.4717 184.398 79.085C184.041 78.6982 183.534 78.5049 182.878 78.5049C182.274 78.5049 181.785 78.6631 181.41 78.9795L181.164 79.208L179.143 78.707ZM197.714 79.709C197.714 81.4785 197.348 82.832 196.615 83.7695C195.883 84.707 194.811 85.1758 193.398 85.1758C192.004 85.1758 190.938 84.7158 190.199 83.7959C189.461 82.876 189.083 81.5576 189.065 79.8408V77.4854C189.065 75.6982 189.435 74.3418 190.173 73.416C190.917 72.4902 191.986 72.0273 193.381 72.0273C194.775 72.0273 195.842 72.4873 196.58 73.4072C197.318 74.3213 197.696 75.6367 197.714 77.3535V79.709ZM195.174 77.125C195.174 76.0645 195.027 75.2939 194.734 74.8135C194.447 74.3271 193.996 74.084 193.381 74.084C192.783 74.084 192.341 74.3154 192.054 74.7783C191.772 75.2354 191.623 75.9531 191.605 76.9316V80.043C191.605 81.0859 191.746 81.8623 192.027 82.3721C192.314 82.876 192.771 83.1279 193.398 83.1279C194.02 83.1279 194.468 82.8848 194.743 82.3984C195.019 81.9121 195.162 81.168 195.174 80.166V77.125ZM199.401 74.6641C199.401 73.8789 199.656 73.2432 200.166 72.7568C200.676 72.2646 201.344 72.0186 202.17 72.0186C203.008 72.0186 203.682 72.2617 204.191 72.748C204.701 73.2285 204.956 73.8818 204.956 74.708V75.3408C204.956 76.1318 204.701 76.7676 204.191 77.248C203.682 77.7285 203.014 77.9688 202.188 77.9688C201.355 77.9688 200.682 77.7285 200.166 77.248C199.656 76.7617 199.401 76.1084 199.401 75.2881V74.6641ZM201.089 75.3408C201.089 75.6924 201.188 75.9766 201.388 76.1934C201.593 76.4043 201.859 76.5098 202.188 76.5098C202.516 76.5098 202.776 76.4014 202.97 76.1846C203.163 75.9678 203.26 75.6777 203.26 75.3145V74.6641C203.26 74.3125 203.163 74.0283 202.97 73.8115C202.776 73.5947 202.51 73.4863 202.17 73.4863C201.848 73.4863 201.587 73.5947 201.388 73.8115C201.188 74.0225 201.089 74.3184 201.089 74.6992V75.3408ZM205.519 81.8623C205.519 81.0713 205.776 80.4355 206.292 79.9551C206.808 79.4688 207.476 79.2256 208.296 79.2256C209.128 79.2256 209.799 79.4658 210.309 79.9463C210.824 80.4209 211.082 81.0771 211.082 81.915V82.5479C211.082 83.333 210.83 83.9688 210.326 84.4551C209.822 84.9355 209.151 85.1758 208.313 85.1758C207.47 85.1758 206.793 84.9326 206.283 84.4463C205.773 83.96 205.519 83.3154 205.519 82.5127V81.8623ZM207.206 82.5479C207.206 82.8701 207.312 83.1455 207.522 83.374C207.733 83.6025 207.997 83.7168 208.313 83.7168C209.028 83.7168 209.386 83.3213 209.386 82.5303V81.8623C209.386 81.5107 209.286 81.2295 209.087 81.0186C208.888 80.8018 208.624 80.6934 208.296 80.6934C207.968 80.6934 207.704 80.8018 207.505 81.0186C207.306 81.2295 207.206 81.5195 207.206 81.8887V82.5479ZM202.688 84.042L201.449 83.374L207.698 73.3721L208.938 74.04L202.688 84.042ZM215.6 84.1152L215.975 83.6523C216.396 83.1055 216.637 82.2852 216.695 81.1914L216.795 78.6602H220.879V84.1152H221.693V86.8633H220.609V85H216.186V86.8633H215.102L215.107 84.1152H215.6ZM216.883 84.1152H219.795V79.6621H217.844L217.779 81.1738C217.713 82.4355 217.414 83.416 216.883 84.1152ZM222.607 81.7715C222.607 81.1504 222.729 80.5918 222.971 80.0957C223.217 79.5996 223.557 79.2168 223.99 78.9473C224.428 78.6777 224.926 78.543 225.484 78.543C226.348 78.543 227.045 78.8418 227.576 79.4395C228.111 80.0371 228.379 80.832 228.379 81.8242V81.9004C228.379 82.5176 228.26 83.0723 228.021 83.5645C227.787 84.0527 227.449 84.4336 227.008 84.707C226.57 84.9805 226.066 85.1172 225.496 85.1172C224.637 85.1172 223.939 84.8184 223.404 84.2207C222.873 83.623 222.607 82.832 222.607 81.8477V81.7715ZM223.697 81.9004C223.697 82.6035 223.859 83.168 224.184 83.5938C224.512 84.0195 224.949 84.2324 225.496 84.2324C226.047 84.2324 226.484 84.0176 226.809 83.5879C227.133 83.1543 227.295 82.5488 227.295 81.7715C227.295 81.0762 227.129 80.5137 226.797 80.084C226.469 79.6504 226.031 79.4336 225.484 79.4336C224.949 79.4336 224.518 79.6465 224.189 80.0723C223.861 80.498 223.697 81.1074 223.697 81.9004ZM231.736 80.9746L233.143 78.6602H234.408L232.334 81.7949L234.473 85H233.219L231.754 82.627L230.289 85H229.029L231.168 81.7949L229.094 78.6602H230.348L231.736 80.9746ZM235.158 81.7715C235.158 81.1504 235.279 80.5918 235.521 80.0957C235.768 79.5996 236.107 79.2168 236.541 78.9473C236.979 78.6777 237.477 78.543 238.035 78.543C238.898 78.543 239.596 78.8418 240.127 79.4395C240.662 80.0371 240.93 80.832 240.93 81.8242V81.9004C240.93 82.5176 240.811 83.0723 240.572 83.5645C240.338 84.0527 240 84.4336 239.559 84.707C239.121 84.9805 238.617 85.1172 238.047 85.1172C237.188 85.1172 236.49 84.8184 235.955 84.2207C235.424 83.623 235.158 82.832 235.158 81.8477V81.7715ZM236.248 81.9004C236.248 82.6035 236.41 83.168 236.734 83.5938C237.062 84.0195 237.5 84.2324 238.047 84.2324C238.598 84.2324 239.035 84.0176 239.359 83.5879C239.684 83.1543 239.846 82.5488 239.846 81.7715C239.846 81.0762 239.68 80.5137 239.348 80.084C239.02 79.6504 238.582 79.4336 238.035 79.4336C237.5 79.4336 237.068 79.6465 236.74 80.0723C236.412 80.498 236.248 81.1074 236.248 81.9004ZM241.814 84.1152L242.189 83.6523C242.611 83.1055 242.852 82.2852 242.91 81.1914L243.01 78.6602H247.094V84.1152H247.908V86.8633H246.824V85H242.4V86.8633H241.316L241.322 84.1152H241.814ZM243.098 84.1152H246.01V79.6621H244.059L243.994 81.1738C243.928 82.4355 243.629 83.416 243.098 84.1152ZM253.023 85C252.961 84.875 252.91 84.6523 252.871 84.332C252.367 84.8555 251.766 85.1172 251.066 85.1172C250.441 85.1172 249.928 84.9414 249.525 84.5898C249.127 84.2344 248.928 83.7852 248.928 83.2422C248.928 82.582 249.178 82.0703 249.678 81.707C250.182 81.3398 250.889 81.1562 251.799 81.1562H252.854V80.6582C252.854 80.2793 252.74 79.9785 252.514 79.7559C252.287 79.5293 251.953 79.416 251.512 79.416C251.125 79.416 250.801 79.5137 250.539 79.709C250.277 79.9043 250.146 80.1406 250.146 80.418H249.057C249.057 80.1016 249.168 79.7969 249.391 79.5039C249.617 79.207 249.922 78.9727 250.305 78.8008C250.691 78.6289 251.115 78.543 251.576 78.543C252.307 78.543 252.879 78.7266 253.293 79.0938C253.707 79.457 253.922 79.959 253.938 80.5996V83.5176C253.938 84.0996 254.012 84.5625 254.16 84.9062V85H253.023ZM251.225 84.1738C251.564 84.1738 251.887 84.0859 252.191 83.9102C252.496 83.7344 252.717 83.5059 252.854 83.2246V81.9238H252.004C250.676 81.9238 250.012 82.3125 250.012 83.0898C250.012 83.4297 250.125 83.6953 250.352 83.8867C250.578 84.0781 250.869 84.1738 251.225 84.1738ZM263.799 85H262.715V79.5566H259.797V85H258.707V78.6602H263.799V85ZM265.252 81.7715C265.252 81.1504 265.373 80.5918 265.615 80.0957C265.861 79.5996 266.201 79.2168 266.635 78.9473C267.072 78.6777 267.57 78.543 268.129 78.543C268.992 78.543 269.689 78.8418 270.221 79.4395C270.756 80.0371 271.023 80.832 271.023 81.8242V81.9004C271.023 82.5176 270.904 83.0723 270.666 83.5645C270.432 84.0527 270.094 84.4336 269.652 84.707C269.215 84.9805 268.711 85.1172 268.141 85.1172C267.281 85.1172 266.584 84.8184 266.049 84.2207C265.518 83.623 265.252 82.832 265.252 81.8477V81.7715ZM266.342 81.9004C266.342 82.6035 266.504 83.168 266.828 83.5938C267.156 84.0195 267.594 84.2324 268.141 84.2324C268.691 84.2324 269.129 84.0176 269.453 83.5879C269.777 83.1543 269.939 82.5488 269.939 81.7715C269.939 81.0762 269.773 80.5137 269.441 80.084C269.113 79.6504 268.676 79.4336 268.129 79.4336C267.594 79.4336 267.162 79.6465 266.834 80.0723C266.506 80.498 266.342 81.1074 266.342 81.9004ZM277.311 82.2461H276.549V85H275.465V82.2461H274.703L272.928 85H271.557L273.824 81.7188L271.773 78.6602H273.086L274.721 81.2852H275.465V78.6602H276.549V81.2852H277.287L278.934 78.6602H280.246L278.189 81.7246L280.457 85H279.086L277.311 82.2461ZM285.543 78.6602H286.627V85H285.543V80.377L282.619 85H281.535V78.6602H282.619V83.2891L285.543 78.6602ZM291.854 80.3945C291.854 80.0977 291.74 79.8633 291.514 79.6914C291.287 79.5156 290.977 79.4277 290.582 79.4277C290.199 79.4277 289.879 79.5273 289.621 79.7266C289.367 79.9258 289.24 80.1602 289.24 80.4297H288.162C288.162 79.8789 288.393 79.4277 288.854 79.0762C289.314 78.7246 289.891 78.5488 290.582 78.5488C291.324 78.5488 291.902 78.709 292.316 79.0293C292.73 79.3457 292.938 79.7988 292.938 80.3887C292.938 80.6738 292.852 80.9355 292.68 81.1738C292.508 81.4121 292.264 81.6016 291.947 81.7422C292.686 81.9922 293.055 82.4844 293.055 83.2188C293.055 83.8008 292.83 84.2617 292.381 84.6016C291.932 84.9414 291.332 85.1113 290.582 85.1113C289.852 85.1113 289.248 84.9336 288.771 84.5781C288.299 84.2188 288.062 83.7344 288.062 83.125H289.141C289.141 83.4336 289.277 83.6992 289.551 83.9219C289.828 84.1406 290.172 84.25 290.582 84.25C290.996 84.25 291.33 84.1543 291.584 83.9629C291.838 83.7715 291.965 83.5234 291.965 83.2188C291.965 82.8633 291.857 82.6094 291.643 82.457C291.432 82.3008 291.102 82.2227 290.652 82.2227H289.568V81.3086H290.746C291.484 81.2891 291.854 80.9844 291.854 80.3945ZM299.641 85H298.557V82.293H295.645V85H294.555V78.6602H295.645V81.4082H298.557V78.6602H299.641V85ZM304.018 85.1172C303.158 85.1172 302.459 84.8359 301.92 84.2734C301.381 83.707 301.111 82.9512 301.111 82.0059V81.8066C301.111 81.1777 301.23 80.6172 301.469 80.125C301.711 79.6289 302.047 79.2422 302.477 78.9648C302.91 78.6836 303.379 78.543 303.883 78.543C304.707 78.543 305.348 78.8145 305.805 79.3574C306.262 79.9004 306.49 80.6777 306.49 81.6895V82.1406H302.195C302.211 82.7656 302.393 83.2715 302.74 83.6582C303.092 84.041 303.537 84.2324 304.076 84.2324C304.459 84.2324 304.783 84.1543 305.049 83.998C305.314 83.8418 305.547 83.6348 305.746 83.377L306.408 83.8926C305.877 84.709 305.08 85.1172 304.018 85.1172ZM303.883 79.4336C303.445 79.4336 303.078 79.5938 302.781 79.9141C302.484 80.2305 302.301 80.6758 302.23 81.25H305.406V81.168C305.375 80.6172 305.227 80.1914 304.961 79.8906C304.695 79.5859 304.336 79.4336 303.883 79.4336ZM312.93 85H311.846V82.293H308.934V85H307.844V78.6602H308.934V81.4082H311.846V78.6602H312.93V85ZM319.855 85H318.771V82.293H315.859V85H314.77V78.6602H315.859V81.4082H318.771V78.6602H319.855V85ZM321.314 81.7715C321.314 81.1504 321.436 80.5918 321.678 80.0957C321.924 79.5996 322.264 79.2168 322.697 78.9473C323.135 78.6777 323.633 78.543 324.191 78.543C325.055 78.543 325.752 78.8418 326.283 79.4395C326.818 80.0371 327.086 80.832 327.086 81.8242V81.9004C327.086 82.5176 326.967 83.0723 326.729 83.5645C326.494 84.0527 326.156 84.4336 325.715 84.707C325.277 84.9805 324.773 85.1172 324.203 85.1172C323.344 85.1172 322.646 84.8184 322.111 84.2207C321.58 83.623 321.314 82.832 321.314 81.8477V81.7715ZM322.404 81.9004C322.404 82.6035 322.566 83.168 322.891 83.5938C323.219 84.0195 323.656 84.2324 324.203 84.2324C324.754 84.2324 325.191 84.0176 325.516 83.5879C325.84 83.1543 326.002 82.5488 326.002 81.7715C326.002 81.0762 325.836 80.5137 325.504 80.084C325.176 79.6504 324.738 79.4336 324.191 79.4336C323.656 79.4336 323.225 79.6465 322.896 80.0723C322.568 80.498 322.404 81.1074 322.404 81.9004ZM329.658 82.5918H328.68L328.604 76.4688H329.74L329.658 82.5918ZM328.562 84.4551C328.562 84.2793 328.615 84.1328 328.721 84.0156C328.83 83.8945 328.99 83.834 329.201 83.834C329.412 83.834 329.572 83.8945 329.682 84.0156C329.791 84.1328 329.846 84.2793 329.846 84.4551C329.846 84.6309 329.791 84.7773 329.682 84.8945C329.572 85.0078 329.412 85.0645 329.201 85.0645C328.99 85.0645 328.83 85.0078 328.721 84.8945C328.615 84.7773 328.562 84.6309 328.562 84.4551Z" fill="white"/>
<g opacity="0.15">
<path d="M117.298 69.2766L122.515 23.3046H173.196V38.2766H137.235L134.999 57.7214C139.264 55.4436 143.798 54.3046 148.601 54.3046C157.213 54.3046 163.962 56.976 168.848 62.3186C173.734 67.6613 176.177 75.1369 176.177 84.7455C176.177 90.5852 174.935 95.8243 172.45 100.463C170.007 105.06 166.488 108.643 161.892 111.21C157.296 113.737 151.872 115 145.619 115C140.154 115 135.082 113.902 130.403 111.707C125.724 109.471 122.018 106.344 119.285 102.327C116.594 98.3093 115.166 93.7328 115 88.5972H132.763C133.136 92.3661 134.44 95.3066 136.676 97.4188C138.953 99.4896 141.914 100.525 145.557 100.525C149.615 100.525 152.741 99.0755 154.936 96.1764C157.13 93.2358 158.227 89.0942 158.227 83.7515C158.227 78.6159 156.965 74.6814 154.439 71.9479C151.913 69.2144 148.332 67.8477 143.694 67.8477C139.429 67.8477 135.972 68.9659 133.322 71.2024L131.583 72.8176L117.298 69.2766Z" fill="white"/>
<path d="M248.533 76.3587C248.533 88.8664 245.945 98.4335 240.77 105.06C235.594 111.687 228.017 115 218.038 115C208.183 115 200.648 111.749 195.43 105.246C190.213 98.7442 187.543 89.4255 187.418 77.2906V60.6413C187.418 48.0094 190.027 38.4215 195.244 31.8778C200.503 25.334 208.059 22.0621 217.914 22.0621C227.768 22.0621 235.304 25.3133 240.521 31.8156C245.738 38.2766 248.409 47.5745 248.533 59.7094V76.3587ZM230.584 58.0942C230.584 50.5979 229.549 45.1516 227.478 41.7555C225.449 38.318 222.261 36.5992 217.914 36.5992C213.69 36.5992 210.564 38.2351 208.535 41.507C206.548 44.7375 205.492 49.811 205.368 56.7275V78.7194C205.368 86.0915 206.361 91.5792 208.349 95.1824C210.378 98.7442 213.607 100.525 218.038 100.525C222.427 100.525 225.594 98.8063 227.54 95.3687C229.487 91.9312 230.501 86.6713 230.584 79.5892V58.0942Z" fill="white"/>
<path d="M260.458 40.6994C260.458 35.1496 262.259 30.656 265.861 27.2184C269.464 23.7395 274.184 22 280.022 22C285.943 22 290.705 23.7188 294.307 27.1563C297.909 30.5524 299.71 35.1703 299.71 41.01V45.483C299.71 51.0741 297.909 55.5678 294.307 58.9639C290.705 62.3601 285.984 64.0581 280.146 64.0581C274.267 64.0581 269.505 62.3601 265.861 58.9639C262.259 55.5264 260.458 50.9085 260.458 45.1102V40.6994ZM272.383 45.483C272.383 47.9679 273.087 49.9766 274.494 51.509C275.944 53 277.828 53.7455 280.146 53.7455C282.465 53.7455 284.308 52.9793 285.674 51.4469C287.04 49.9145 287.724 47.8644 287.724 45.2966V40.6994C287.724 38.2144 287.04 36.2057 285.674 34.6733C284.308 33.1409 282.424 32.3747 280.022 32.3747C277.745 32.3747 275.902 33.1409 274.494 34.6733C273.087 36.1643 272.383 38.2558 272.383 40.9479V45.483ZM303.685 91.5792C303.685 85.988 305.507 81.4943 309.151 78.0982C312.795 74.6607 317.515 72.9419 323.312 72.9419C329.191 72.9419 333.932 74.6399 337.534 78.0361C341.178 81.3908 343 86.0294 343 91.9519V96.4249C343 101.975 341.22 106.468 337.659 109.906C334.098 113.302 329.357 115 323.436 115C317.473 115 312.691 113.281 309.089 109.844C305.487 106.406 303.685 101.85 303.685 96.1764V91.5792ZM315.61 96.4249C315.61 98.7027 316.355 100.649 317.846 102.265C319.337 103.88 321.2 104.687 323.436 104.687C328.487 104.687 331.013 101.892 331.013 96.3006V91.5792C331.013 89.0942 330.309 87.1062 328.901 85.6152C327.494 84.0828 325.63 83.3166 323.312 83.3166C320.993 83.3166 319.13 84.0828 317.722 85.6152C316.314 87.1062 315.61 89.1563 315.61 91.7655V96.4249ZM283.686 106.986L274.929 102.265L319.088 31.5671L327.846 36.2886L283.686 106.986Z" fill="white"/>
</g>
<path d="M66.0776 90.6663C66.0776 88.2259 65.4753 86.3107 64.2705 84.9206C63.0658 83.5305 60.9497 82.2177 57.9224 80.9821C54.8951 79.7464 52.0995 78.4953 49.5356 77.2288C46.9717 75.9623 44.763 74.495 42.9095 72.8269C41.0561 71.1588 39.6351 69.2281 38.6466 67.0349C37.6581 64.8416 37.1638 62.185 37.1638 59.065C37.1638 53.8445 38.9246 49.5507 42.4462 46.1836C45.9677 42.7856 50.6631 40.8086 56.5324 40.2525V30.4756H63.8998V40.4379C69.5528 41.2719 73.9857 43.6042 77.1983 47.4346C80.4418 51.2342 82.0636 56.0686 82.0636 61.9379H66.402C66.402 58.7252 65.7842 56.254 64.5485 54.5241C63.3129 52.7942 61.5521 51.9293 59.2662 51.9293C57.2274 51.9293 55.6365 52.578 54.4936 53.8754C53.3815 55.1419 52.8255 56.9027 52.8255 59.1577C52.8255 61.4436 53.4742 63.2662 54.7716 64.6254C56.069 65.9537 58.1541 67.2356 61.027 68.4713C63.8998 69.676 66.6028 70.9425 69.1358 72.2708C71.6997 73.5683 73.9084 75.051 75.7619 76.7191C77.6153 78.3872 79.0672 80.3333 80.1175 82.5575C81.1678 84.7816 81.6929 87.4537 81.6929 90.5736C81.6929 95.856 80.0094 100.165 76.6423 103.501C73.3061 106.838 68.7497 108.784 62.9731 109.34V118.653H55.6056V109.293C48.8714 108.583 43.6972 106.282 40.083 102.389C36.4997 98.4662 34.708 93.3075 34.708 86.9131H50.3233C50.3233 90.4346 51.0956 93.1221 52.6401 94.9756C54.2156 96.7981 56.4397 97.7094 59.3125 97.7094C61.4131 97.7094 63.0658 97.0916 64.2705 95.856C65.4753 94.5895 66.0776 92.8596 66.0776 90.6663Z" fill="white"/>
<path opacity="0.7" d="M27.8965 32.9316L26.198 40.1297L19 41.8282L26.198 43.5267L27.8965 50.7247L29.5951 43.5267L36.7931 41.8282L29.5951 40.1297L27.8965 32.9316Z" fill="white"/>
<path opacity="0.7" d="M91.6552 85L90.2397 90.9984L84.2414 92.4138L90.2397 93.8292L91.6552 99.8276L93.0706 93.8292L99.069 92.4138L93.0706 90.9984L91.6552 85Z" fill="white"/>
<path opacity="0.7" d="M30.8621 70L29.7297 74.7987L24.931 75.931L29.7297 77.0634L30.8621 81.8621L31.9944 77.0634L36.7931 75.931L31.9944 74.7987L30.8621 70Z" fill="white"/>
<path opacity="0.7" d="M42.7241 115.966L41.5918 120.765L36.7931 121.897L41.5918 123.029L42.7241 127.828L43.8565 123.029L48.6552 121.897L43.8565 120.765L42.7241 115.966Z" fill="white"/>
<path opacity="0.7" d="M88.6897 24.0352L87.5573 28.8338L82.7587 29.9662L87.5573 31.0985L88.6897 35.8972L89.822 31.0985L94.6207 29.9662L89.822 28.8338L88.6897 24.0352Z" fill="white"/>
<path opacity="0.4" d="M30.862 102.621L30.0128 106.22L26.4138 107.069L30.0128 107.919L30.862 111.518L31.7113 107.919L35.3103 107.069L31.7113 106.22L30.862 102.621Z" fill="white"/>
<path opacity="0.4" d="M99.069 70L97.9366 74.7987L93.1379 75.931L97.9366 77.0634L99.069 81.8621L100.201 77.0634L105 75.931L100.201 74.7987L99.069 70Z" fill="white"/>
<path opacity="0.4" d="M53.1034 12.1729L51.971 16.9715L47.1724 18.1039L51.971 19.2362L53.1034 24.0349L54.2357 19.2362L59.0344 18.1039L54.2357 16.9715L53.1034 12.1729Z" fill="white"/>
<path opacity="0.4" d="M84.931 110L83.7987 114.799L79 115.931L83.7987 117.063L84.931 121.862L86.0634 117.063L90.8621 115.931L86.0634 114.799L84.931 110Z" fill="white"/>
</svg>
