<svg width="12" height="14" viewBox="0 0 12 14" fill="none" xmlns="http://www.w3.org/2000/svg">
<path d="M5.77555 7.65275C3.76565 7.65264 3.0425 5.64021 2.85314 3.98713C2.61993 1.95065 3.58288 0.417969 5.77555 0.417969C7.96786 0.417969 8.93134 1.95053 8.69795 3.98711C8.50842 5.64017 7.78549 7.65291 5.77555 7.65275Z" fill="#828282"/>
<path d="M0.338576 12.4444C0.360548 11.8029 0.435718 11.1586 0.547661 10.5271C0.683285 9.76208 0.855906 8.64058 1.52379 8.14205C1.91005 7.8538 2.41022 7.75923 2.8524 7.58541C3.06761 7.50086 3.26041 7.41688 3.44135 7.32129C4.05207 7.991 4.84841 8.34134 5.77578 8.34139C6.70289 8.34139 7.49915 7.99104 8.1098 7.32129C8.29074 7.4169 8.48354 7.5009 8.69875 7.58541C9.14093 7.75923 9.6411 7.85378 10.0273 8.14205C10.6952 8.64058 10.8678 9.76208 11.0034 10.5271C11.1154 11.1586 11.1906 11.8029 11.2125 12.4444C11.2295 12.9413 10.9842 13.0109 10.5686 13.1609C10.0481 13.3486 9.51069 13.488 8.96973 13.6022C7.92493 13.8228 6.84797 13.9924 5.77563 14C4.70329 13.9924 3.62633 13.8228 2.58153 13.6022C2.04057 13.488 1.50315 13.3487 0.982696 13.1609C0.56688 13.0109 0.321576 12.9413 0.338576 12.4444Z" fill="#828282"/>
</svg>
