<?xml version="1.0" encoding="iso-8859-1"?>
<!-- Generator: Adobe Illustrator 19.0.0, SVG Export Plug-In . SVG Version: 6.00 Build 0)  -->
<svg version="1.1" id="Layer_1" xmlns="http://www.w3.org/2000/svg" xmlns:xlink="http://www.w3.org/1999/xlink" x="0px" y="0px"
	 viewBox="0 0 512 512" style="enable-background:new 0 0 512 512;" xml:space="preserve">
<path style="fill:#FDC00F;" d="M264.87,176.516c42.422,0,79.254,34.39,79.254,76.813s-36.832,76.812-79.254,76.812v157.239h44.914
	v-52.87c0-29.021,35.089-43.556,55.61-23.035l37.385,37.385l60.065-60.065l-37.385-37.385c-20.521-20.521-5.988-55.61,23.035-55.61
	h52.87v-84.945h-52.87c-29.021,0-43.556-35.089-23.035-55.61l37.385-37.385l-60.065-60.065l-37.385,37.385
	c-20.521,20.521-55.61,5.988-55.61-23.035V19.278H264.87V176.516z"/>
<g style="opacity:0.1;">
	<path d="M309.236,72.147V19.278h-44.914v157.239c16.448,0,32.043,5.187,44.988,13.99V74.121
		C309.274,73.468,309.236,72.816,309.236,72.147z"/>
	<path d="M264.322,330.141v157.24h44.914v-52.87c0-0.668,0.038-1.321,0.074-1.974V316.152
		C296.365,324.955,280.77,330.141,264.322,330.141z"/>
</g>
<path style="fill:#52D6C6;" d="M111.596,52.271C154.626,19.475,208.357,0,266.636,0v512C125.252,512,10.637,397.385,10.637,256
	c0-69.418,27.63-132.383,72.493-178.498L111.596,52.271z"/>
<g>
	<path style="fill:#99F08A;" d="M139.189,284.267l7.412-91.422l59.528-12.355l26.953-84.01L206.127,7.215
		c-34.824,8.445-66.869,23.998-94.497,45.056L83.164,77.503c-42.92,44.117-70.049,103.661-72.32,169.519l99.93-25.762
		L139.189,284.267z"/>
	<path style="fill:#99F08A;" d="M200.961,389.279l-69.185-69.185l-48.182,64.243l-14.057,34.987
		c39.132,47.18,94.872,80.086,158.26,89.742l20.11-40.719L200.961,389.279z"/>
	<polygon style="fill:#99F08A;" points="209.609,307.74 225.67,350.981 257.79,339.862 257.79,300.327 233.082,275.619 	"/>
</g>
<path style="opacity:0.1;enable-background:new    ;" d="M50.211,216.427c0-59.818,20.53-114.834,54.91-158.416L83.13,77.503
	c-44.863,46.114-72.493,109.08-72.493,178.498C10.637,397.385,125.252,512,266.636,512v-42.62
	C144.044,450.355,50.211,344.352,50.211,216.427z"/>
<g>
</g>
<g>
</g>
<g>
</g>
<g>
</g>
<g>
</g>
<g>
</g>
<g>
</g>
<g>
</g>
<g>
</g>
<g>
</g>
<g>
</g>
<g>
</g>
<g>
</g>
<g>
</g>
<g>
</g>
</svg>
