<svg width="20" height="20" viewBox="0 0 20 20" fill="none" xmlns="http://www.w3.org/2000/svg">
<path fill-rule="evenodd" clip-rule="evenodd" d="M11.6253 8.17647C10.6814 7.35294 9.32445 7.52941 8.49849 8.35294C7.55454 9.05882 7.25955 10.4118 7.96752 11.4118C8.79347 12.5882 10.5044 12.5294 11.5073 11.7059C12.6283 10.7647 12.6873 9.11765 11.6253 8.17647ZM19.9439 11.5882C20.0029 11.7647 19.8849 12 19.7079 12.0588L18.351 12.4118C17.82 12.5294 17.643 12.6471 17.525 13.1765C17.348 14.0588 17.938 14.4118 18.233 15.1765C18.469 15.8235 18.115 16.0588 17.643 16.5294C17.0531 17.0588 16.5811 17.6471 16.1091 18.2941C15.9911 18.4706 15.6961 18.4118 15.5781 18.2941C14.7522 17.5882 13.6902 17.3529 12.6873 17.5882C12.5693 18.0588 12.4513 18.5294 12.3333 19C12.2743 19.2353 12.2153 19.5882 12.0383 19.7647C11.8023 20 11.3893 19.9412 11.0944 19.9412C10.6224 19.9412 10.0914 19.8824 9.61943 19.8824C8.97046 19.8824 8.2625 19.8824 7.90852 19.2353C7.73153 18.8824 7.61353 18.4118 7.43654 18C7.31855 17.7059 7.31855 17.4706 7.02356 17.3529C6.84657 17.2353 6.49259 17.2941 6.3156 17.3529C5.54864 17.5294 5.13566 18.3529 4.3097 18.1765C3.54274 18 3.01176 17.2353 2.48079 16.7059C2.00881 16.2353 1.65483 15.9412 1.94982 15.2353C2.1858 14.6471 2.53979 14.2353 3.07076 13.8824C2.83477 13.3529 2.59878 12.8824 2.3628 12.3529C1.71383 12.1765 0.828872 12.2941 0.356896 11.7647C-0.0560836 11.3529 0.00291343 10.8824 0.00291343 10.4118C0.00291343 9.76471 0.00291343 9.11765 0.00291343 8.47059C0.00291343 8.29412 0.120908 8.17647 0.297899 8.11765C1.00586 7.94118 1.71383 7.70588 2.42179 7.52941C2.48079 7.41177 2.48079 7.29412 2.53979 7.23529C2.59878 7.05882 2.71678 6.82353 2.77577 6.64706C2.48079 6.11765 2.12681 5.58824 1.89082 5.05882C1.77283 4.76471 1.71383 4.52941 1.83182 4.29412C2.00881 3.88235 2.48079 3.58824 2.77577 3.29412C3.18875 2.88235 3.66073 2.41176 4.07371 2C4.1917 1.88235 4.3687 1.82353 4.48669 1.94118C5.01766 2.23529 5.72563 2.82353 6.3156 2.82353C6.72858 2.82353 7.02356 2.58824 7.37754 2.47059C7.49554 1.76471 7.67253 1.05882 7.79052 0.352941C7.84952 0.117647 8.02651 0 8.14451 0L10.1504 0.0588235C10.5634 0.0588235 11.0354 0 11.3893 0.176471C11.9793 0.470588 12.0973 1.64706 12.2153 2.35294C12.6873 2.41176 13.1003 2.58824 13.5132 2.82353C14.1032 2.35294 14.6932 2.05882 15.4011 1.82353C15.5191 1.76471 15.6961 1.82353 15.7551 1.94118C16.6991 2.64706 17.466 3.35294 18.292 4.11765C18.41 4.23529 18.469 4.52941 18.292 4.64706C17.525 5.35294 17.2301 6.41177 17.584 7.41177C18.41 7.47059 19.177 7.82353 19.8259 8.35294C19.9439 8.41177 19.9439 8.58824 19.9439 8.70588C19.7079 9.70588 19.7079 10.6471 19.9439 11.5882ZM18.115 11.7059C17.82 11.7647 17.348 11.7647 17.1121 12C16.6991 12.4118 16.5811 13.4706 16.6991 14C16.8171 14.5294 17.584 15.2353 17.348 15.7059C17.1121 16.0588 16.6991 16.3529 16.4041 16.6471C16.1681 16.9412 15.9321 17.1765 15.6961 17.4706C14.6342 16.7647 13.3952 16.5294 12.1563 16.9412C12.0383 17 11.9203 17.0588 11.9203 17.2353C11.8023 17.7059 11.7433 19.0588 11.3303 19.2353C11.2124 19.2941 10.6224 19.1765 10.4454 19.1765C10.0914 19.1765 9.61943 19.1765 9.26545 19.1176C8.67548 19 8.55749 18.8824 8.3805 18.2941C8.2625 18.0588 8.2035 17.7647 8.08551 17.5294C7.90852 17 7.84952 16.8235 7.31855 16.6471C6.84657 16.5294 6.3746 16.5294 5.96162 16.6471C5.48964 16.8235 4.78167 17.5294 4.3097 17.3529C3.77872 17.1765 3.18875 16.3529 2.83477 16C2.3628 15.6471 2.59878 15.2941 2.89377 14.9412C3.12976 14.7059 3.36575 14.5294 3.66073 14.3529C3.77872 14.2941 3.89672 14.0588 3.83772 13.9412C3.54274 13.3529 3.36575 12.4706 2.95277 11.9412C2.71678 11.6471 2.48079 11.5882 2.12681 11.5294C1.41884 11.4118 0.946866 11.5882 0.769875 10.6471C0.651881 10.0588 0.769875 9.35294 0.769875 8.70588C1.47784 8.52941 2.12681 8.29412 2.83477 8.11765C3.01176 8.05882 3.07076 7.94118 3.12976 7.76471C3.18875 7.64706 3.24775 7.52941 3.36575 7.41177C3.54274 7.29412 3.48374 7.11765 3.42474 6.94118C3.48374 6.88235 3.48374 6.82353 3.54274 6.76471C3.60173 6.64706 3.60173 6.52941 3.54274 6.41176C3.24775 6 3.07076 5.64706 2.83477 5.29412C2.59878 4.82353 2.3628 4.64706 2.77577 4.23529C3.30675 3.70588 3.83772 3.17647 4.3687 2.64706C4.89967 3.05882 5.48964 3.52941 6.07961 3.64706C6.72858 3.76471 7.14156 3.17647 7.73153 3.17647C7.90852 3.17647 8.08551 3.05882 8.08551 2.88235C8.2035 2.17647 8.3215 1.47059 8.49849 0.823529C9.26545 0.823529 10.0324 0.823529 10.7994 0.941177C11.2124 1 11.2124 1.17647 11.3303 1.58824C11.4483 2 11.5663 2.41176 11.6253 2.88235C11.6843 3.05882 11.8613 3.11765 11.9793 3.17647C12.5103 3.23529 12.9823 3.41176 13.3952 3.70588C13.5722 3.70588 13.7492 3.64706 13.8672 3.52941C14.3392 3.11765 14.8702 2.82353 15.4601 2.58824C16.1091 3.17647 16.7581 3.76471 17.407 4.35294C16.5811 5.35294 16.4041 6.70588 16.9351 7.94118C16.9941 8.05882 17.1711 8.11765 17.289 8.11765C17.938 8.11765 18.528 8.35294 19.059 8.76471C18.882 9.64706 18.882 10.5294 19.059 11.4118C18.764 11.5294 18.469 11.5882 18.115 11.7059ZM13.4542 5.35294C15.4601 6.82353 16.2861 9.47059 15.5191 11.8235C14.6932 14.2353 12.3923 15.8235 9.85542 15.7647C7.49554 15.7647 5.31265 14.1176 4.54569 11.8824C3.83772 9.76471 4.54569 7.41177 6.07961 5.88235L6.13861 5.82353C7.96751 3.88235 11.3303 3.76471 13.4542 5.35294ZM14.9882 10.4118C14.8112 12.6471 13.1593 14.4706 10.9764 14.8824C8.85247 15.2941 6.78757 14.3529 5.66663 12.5294C4.48669 10.5882 4.84067 8.05882 6.43359 6.47059C6.49259 6.47059 6.49259 6.47059 6.55159 6.41176C8.14451 5.17647 10.0914 4.64706 11.9793 5.47059C13.9262 6.23529 15.1652 8.29412 14.9882 10.4118ZM11.2124 11.1176C10.5044 11.7647 9.32445 11.8824 8.61648 11.1765C8.08551 10.5882 8.08551 9.88235 8.43949 9.29412C8.43949 9.29412 8.49849 9.29412 8.49849 9.23529C9.26545 8.64706 10.0324 7.94118 10.9764 8.58824C11.9203 9.11765 11.9203 10.4118 11.2124 11.1176Z" fill="white"/>
</svg>
