<svg width="16" height="15" viewBox="0 0 16 15" fill="none" xmlns="http://www.w3.org/2000/svg">
<path d="M8.6715 10.996C8.476 11.1915 8.476 11.508 8.6715 11.703C8.86703 11.8985 9.1835 11.8985 9.37851 11.703L12.828 8.25301C12.932 8.14899 12.9765 8.0105 12.9695 7.87448C12.9765 7.73798 12.932 7.59999 12.828 7.49599L9.37851 4.0465C9.1835 3.851 8.86651 3.851 8.6715 4.0465C8.476 4.24201 8.476 4.5585 8.6715 4.75348L11.293 7.37497H0.5C0.224 7.375 0 7.599 0 7.875C0 8.151 0.224 8.375 0.5 8.375H11.293L8.6715 10.996ZM14 0.875H4C2.8955 0.875 2 1.7705 2 2.875V4.875H3V2.875C3 2.323 3.4475 1.875 4 1.875H14C14.5525 1.875 15 2.323 15 2.875V12.875C15 13.427 14.5525 13.875 14 13.875H4C3.4475 13.875 3 13.4275 3 12.875V10.875H2V12.875C2 13.9795 2.8955 14.875 4 14.875H14C15.1045 14.875 16 13.9795 16 12.875V2.875C16 1.7705 15.1045 0.875 14 0.875Z" fill="#828282"/>
</svg>
