<svg width="15" height="15" viewBox="0 0 15 15" fill="none" xmlns="http://www.w3.org/2000/svg">
<path d="M7.21468 0.878115C7.30449 0.601722 7.69551 0.601722 7.78532 0.878115L9.34101 5.66606C9.38118 5.78967 9.49636 5.87336 9.62633 5.87336L14.6607 5.87336C14.9513 5.87336 15.0721 6.24524 14.837 6.41606L10.7641 9.37517C10.659 9.45157 10.615 9.58698 10.6552 9.71058L12.2109 14.4985C12.3007 14.7749 11.9843 15.0048 11.7492 14.8339L7.67634 11.8748C7.57119 11.7984 7.42881 11.7984 7.32366 11.8748L3.25079 14.8339C3.01568 15.0048 2.69934 14.7749 2.78914 14.4985L4.34484 9.71058C4.385 9.58698 4.341 9.45157 4.23586 9.37517L0.162989 6.41606C-0.0721254 6.24524 0.0487074 5.87336 0.339324 5.87336L5.37367 5.87336C5.50364 5.87336 5.61882 5.78967 5.65899 5.66606L7.21468 0.878115Z" fill="#FFD600"/>
</svg>
