<?xml version="1.0" encoding="iso-8859-1"?>
<!-- Generator: Adobe Illustrator 21.0.0, SVG Export Plug-In . SVG Version: 6.00 Build 0)  -->
<svg xmlns="http://www.w3.org/2000/svg" xmlns:xlink="http://www.w3.org/1999/xlink" version="1.1" id="Capa_1" x="0px" y="0px" viewBox="0 0 511.373 511.373" style="enable-background:new 0 0 511.373 511.373;" xml:space="preserve" width="512" height="512">
<g>
	<path style="fill:#78777E;" d="M427.611,467.461H83.762c-4.142,0-7.5,3.357-7.5,7.5v28.912c0,4.143,3.358,7.5,7.5,7.5h343.85   c4.142,0,7.5-3.357,7.5-7.5v-28.912C435.111,470.818,431.753,467.461,427.611,467.461z"/>
	<path style="fill:#67676B;" d="M427.611,467.461h-27v43.912h27c4.142,0,7.5-3.357,7.5-7.5v-28.912   C435.111,470.818,431.753,467.461,427.611,467.461z"/>
	<path style="fill:#E0E0E0;" d="M431.286,0H80.087C64.481,0,51.785,12.696,51.785,28.302v425.857   c0,15.606,12.696,28.303,28.302,28.303h351.199c15.606,0,28.302-12.696,28.302-28.303V28.302C459.588,12.696,446.892,0,431.286,0z"/>
	<path style="fill:#C4C4C4;" d="M431.286,0h-36.817c15.606,0,28.302,12.696,28.302,28.302v425.857   c0,15.606-12.696,28.303-28.302,28.303h36.817c15.606,0,28.302-12.696,28.302-28.303V28.302C459.588,12.696,446.892,0,431.286,0z"/>
	<path style="fill:#AAAAAA;" d="M255.687,143.593c-76.467,0-138.677,62.21-138.677,138.677s62.21,138.677,138.677,138.677   s138.677-62.21,138.677-138.677S332.153,143.593,255.687,143.593z"/>
	<path style="fill:#66BAEA;" d="M255.687,176.44c-58.355,0-105.829,47.475-105.829,105.829s47.475,105.829,105.829,105.829   s105.829-47.475,105.829-105.829S314.041,176.44,255.687,176.44z"/>
	<path style="fill:#999999;" d="M255.687,143.593c-5.953,0-11.82,0.378-17.578,1.109c68.199,8.664,121.099,67.054,121.099,137.567   s-52.901,128.903-121.099,137.567c5.758,0.732,11.624,1.109,17.578,1.109c76.467,0,138.677-62.21,138.677-138.677   S332.153,143.593,255.687,143.593z"/>
	<path style="fill:#3AAAE4;" d="M255.687,176.44c-5.988,0-11.858,0.508-17.578,1.468c50.017,8.397,88.252,51.995,88.252,104.361   s-38.234,95.964-88.252,104.361c5.719,0.96,11.59,1.468,17.578,1.468c58.354,0,105.829-47.475,105.829-105.829   S314.041,176.44,255.687,176.44z"/>
	<path style="fill:#AAAAAA;" d="M431.287,0h-351.2C64.456,0,51.785,12.671,51.785,28.302v68.776h407.804V28.302   C459.588,12.671,446.917,0,431.287,0z"/>
	<path style="fill:#E0E0E0;" d="M348.276,230.992c-1.004-1.809-2.71-3.123-4.714-3.631c-2.004-0.507-4.131-0.166-5.875,0.945   c-18.558,11.827-29.637,32-29.637,53.963c0,21.962,11.079,42.135,29.637,53.962c1.215,0.775,2.615,1.176,4.031,1.176   c0.616,0,1.235-0.076,1.843-0.23c2.005-0.508,3.71-1.822,4.714-3.63c8.662-15.608,13.24-33.34,13.24-51.277   C361.516,264.333,356.938,246.601,348.276,230.992z"/>
	<path style="fill:#FFDB56;" d="M110.898,27.188c-11.773,0-21.351,9.578-21.351,21.351c0,11.772,9.578,21.35,21.351,21.35   c11.772,0,21.35-9.577,21.35-21.35C132.248,36.767,122.67,27.188,110.898,27.188z"/>
	<path style="fill:#FFDB56;" d="M166.708,27.188c-11.773,0-21.351,9.578-21.351,21.351c0,11.772,9.578,21.35,21.351,21.35   c11.772,0,21.35-9.577,21.35-21.35C188.058,36.767,178.48,27.188,166.708,27.188z"/>
	<path style="fill:#FFC41F;" d="M110.898,27.188c-3.983,0-7.702,1.116-10.896,3.023c6.247,3.729,10.454,10.538,10.454,18.327   s-4.206,14.598-10.454,18.326c3.195,1.907,6.913,3.023,10.896,3.023c11.772,0,21.35-9.577,21.35-21.35   C132.248,36.767,122.67,27.188,110.898,27.188z"/>
	<path style="fill:#FFC41F;" d="M166.708,27.188c-3.983,0-7.702,1.116-10.896,3.023c6.247,3.729,10.454,10.538,10.454,18.327   s-4.207,14.598-10.454,18.326c3.195,1.907,6.913,3.023,10.896,3.023c11.772,0,21.35-9.577,21.35-21.35   C188.058,36.767,178.48,27.188,166.708,27.188z"/>
	<path style="fill:#67676B;" d="M266.094,56.039h-22.181c-4.142,0-7.5-3.357-7.5-7.5c0-4.143,3.358-7.5,7.5-7.5h22.181   c4.142,0,7.5,3.357,7.5,7.5C273.594,52.682,270.236,56.039,266.094,56.039z"/>
	<path style="fill:#67676B;" d="M415.271,56.039H300.315c-4.142,0-7.5-3.357-7.5-7.5c0-4.143,3.358-7.5,7.5-7.5h114.956   c4.142,0,7.5,3.357,7.5,7.5C422.771,52.682,419.413,56.039,415.271,56.039z"/>
	<path style="fill:#999999;" d="M431.287,0h-36.818c15.606,0,28.302,12.696,28.302,28.302v68.776h36.817V28.302   C459.588,12.671,446.917,0,431.287,0z"/>
</g>















</svg>
