<svg width="278" height="375" viewBox="0 0 278 375" fill="none" xmlns="http://www.w3.org/2000/svg">
<ellipse cx="84.3114" cy="368.656" rx="52.4098" ry="6.26639" fill="#EBEBEB"/>
<ellipse cx="225.59" cy="364.098" rx="52.4098" ry="6.26639" fill="#EBEBEB"/>
<path d="M143.025 61.7576C143.025 61.7576 138.15 56.8819 137.418 56.1505C133.518 51.7624 137.418 54.2002 139.125 54.6878C140.587 55.1754 136.199 44.4488 137.662 44.9363C139.125 45.4239 140.587 50.5434 140.587 50.5434C140.587 50.5434 138.637 43.2298 140.344 44.6926C141.806 46.1553 143.269 50.2997 143.269 50.2997C143.269 50.2997 141.563 42.7423 143.025 44.4488C144.244 45.9115 145.219 48.8369 145.219 48.8369C145.219 48.8369 144.488 42.2547 145.463 44.205C146.682 45.9115 154.483 60.7825 154.483 60.7825L143.025 61.7576Z" fill="#E5B1B1"/>
<path d="M135.468 65.1678C135.468 65.1678 140.344 60.292 141.075 59.5607C144.976 55.1725 141.075 57.6104 139.369 58.098C137.906 58.5855 142.294 47.8589 140.831 48.3465C139.369 48.8341 137.906 53.9536 137.906 53.9536C137.906 53.9536 139.856 46.64 138.15 48.1027C136.687 49.5654 135.224 53.7098 135.224 53.7098C135.224 53.7098 136.931 46.1524 135.468 47.8589C134.249 49.3217 133.274 52.2471 133.274 52.2471C133.274 52.2471 134.005 45.6649 133.03 47.6151C131.811 49.3217 124.01 64.1926 124.01 64.1926L135.468 65.1678Z" fill="#F9C8C7"/>
<path d="M231.764 88.8168C233.714 88.0855 235.908 88.3293 237.614 89.3044C239.321 90.2796 240.54 92.2299 240.784 94.1801C241.027 95.6429 240.54 97.1056 240.296 98.5683C240.052 100.031 239.809 101.738 240.296 102.956C240.784 104.419 242.246 105.394 243.953 105.151C244.44 104.907 245.172 104.663 245.659 104.663C246.391 104.663 247.122 105.638 246.878 106.613C246.878 107.345 246.147 108.076 245.416 108.564C244.684 109.051 243.953 109.051 242.978 109.295C243.953 110.27 244.684 111.245 245.172 112.464C245.416 112.952 245.659 113.439 245.416 113.927C245.172 114.414 244.44 114.902 243.709 114.658C242.978 114.658 242.49 114.171 242.003 113.683C242.978 114.171 242.734 115.633 241.759 116.365C241.027 116.852 239.809 116.852 238.833 116.852C236.639 116.852 234.201 116.608 232.495 115.39C230.788 114.171 229.813 112.22 229.326 110.026C228.107 105.882 227.375 101.25 227.619 96.8618" fill="#251A51"/>
<path d="M203.728 190.233C203.728 190.233 206.41 153.665 205.191 150.739C203.972 148.058 198.609 129.774 198.609 129.774L210.067 111.49L224.938 109.052L235.908 118.559C242.003 123.923 245.659 131.724 245.903 139.769L247.366 188.526L203.728 190.233Z" fill="url(#paint0_linear)"/>
<path d="M156.921 12.0237L159.115 51.2733H181.544L184.957 64.6815L188.857 51.2733C188.857 51.2733 219.818 51.2733 221.525 51.2733C223.231 51.2733 221.525 0.078125 221.525 0.078125L156.921 12.0237Z" fill="#E4E4E4"/>
<path d="M76.2283 131.722C75.9845 130.991 77.4472 114.414 58.6757 114.901C40.8792 115.389 29.1775 120.752 21.6201 129.041L27.9586 154.638L30.1526 197.789L80.6164 193.4L76.2283 131.722Z" fill="url(#paint1_linear)"/>
<path d="M22.8388 127.335C22.8388 127.335 -2.27118 164.391 0.166684 193.401C2.60455 222.655 37.2222 194.864 41.1228 191.695C45.0234 188.525 48.6802 182.918 48.6802 182.918L46.4861 169.266L22.8388 180.237L31.3713 163.172L22.8388 127.335Z" fill="url(#paint2_linear)"/>
<path d="M62.5764 114.903C62.5764 114.903 85.0048 103.445 95.9752 92.9624C107.189 82.4796 127.18 58.3447 127.18 58.3447L136.444 65.9021C136.444 65.9021 116.209 99.3008 103.533 112.953C95.4876 121.973 75.0095 141.476 75.0095 141.476L62.5764 114.903Z" fill="url(#paint3_linear)"/>
<path d="M213.479 110.269C213.479 110.269 192.026 99.2986 181.3 89.0595C170.573 78.8205 149.607 52.7354 149.607 52.7354L142.538 62.9744C142.538 62.9744 162.041 95.1542 174.23 108.319C182.031 117.095 201.778 135.623 201.778 135.623L213.479 110.269Z" fill="url(#paint4_linear)"/>
<path d="M38.6843 107.345C33.5648 109.296 35.2713 103.201 35.0275 100.763C34.7837 98.3254 35.0275 95.6437 34.0524 93.4497C33.321 91.7432 31.6145 90.0367 31.6145 88.0864C31.6145 86.6236 32.5896 85.1609 32.8334 83.6982C33.321 81.7479 32.8334 79.5538 33.321 77.3598C34.0524 73.4592 38.1967 70.29 42.0973 70.7775C44.0476 71.0213 45.9979 71.9965 47.9482 71.7527C50.1423 71.5089 51.8488 69.5586 53.7991 68.5835C56.4807 67.1207 59.8937 66.877 62.5754 68.0959C65.257 69.5586 67.2073 72.7278 66.9635 75.6533C66.7197 78.8225 64.0381 81.5041 60.8689 81.7479C59.1624 81.7479 57.2121 81.2603 55.5056 80.7728C53.7991 80.2852 51.8488 80.0414 50.3861 81.2604C48.4358 82.4793 47.7044 85.4047 45.5103 85.6485C44.2914 85.6485 43.3163 84.9171 42.0973 84.4296C40.8784 83.942 39.4157 83.942 38.9281 84.9171C38.4405 85.6485 38.9281 86.8674 38.9281 87.8426C39.1719 89.5491 38.6843 91.4994 36.9778 92.2307C36.2464 97.1065 37.7092 101.982 39.4157 106.858" fill="#552E3B"/>
<path d="M36.9778 78.0893L36.2464 92.9603C36.2464 92.9603 31.6145 92.9603 31.6145 97.1047C31.6145 102.224 36.4902 101.493 36.4902 101.493C36.4902 101.493 35.5151 111.488 49.1671 112.219C65.257 113.195 61.844 88.0846 61.1127 76.3828L36.9778 78.0893Z" fill="#F9C8C7"/>
<path d="M230.545 78.819L231.033 89.7894C231.033 89.7894 235.421 89.7894 235.421 93.9338C235.421 99.0533 230.545 98.322 230.545 98.322C230.545 98.322 231.52 108.073 218.112 109.049C204.46 109.78 205.191 91.2521 205.923 78.819C206.166 75.8936 208.604 73.6995 211.53 73.9433L226.888 75.1622C228.839 75.1622 230.545 76.8687 230.545 78.819Z" fill="#F9C8C7"/>
<path d="M55.0182 100.519L54.2868 118.559C54.043 123.678 48.6797 126.847 44.2916 124.41C44.2916 124.41 44.2916 124.41 44.0478 124.41C41.6099 123.191 40.1472 120.753 40.1472 118.071C40.391 111.733 40.391 100.762 40.391 100.762L55.0182 100.519Z" fill="#F9C8C7"/>
<path d="M51.606 98.8098C51.606 98.8098 51.606 99.0536 52.0935 99.0536C52.3373 99.2974 53.0687 99.2974 53.3125 98.8098C53.5562 98.566 53.8 98.3222 53.8 97.8346C53.8 97.5909 53.8 97.1033 53.8 96.6157C53.8 95.6406 53.8 94.9092 53.5562 93.9341C53.3125 91.9838 53.3125 90.2773 53.3125 88.8146C53.3125 88.0832 53.3125 87.5956 53.3125 87.3518C53.3125 87.108 53.3125 86.8643 53.3125 86.8643C53.3125 86.8643 53.3125 87.108 53.3125 87.3518C53.3125 87.5956 53.3125 88.327 53.5562 88.8146C53.5562 90.0335 53.8 91.9838 53.8 93.9341C53.8 94.9092 53.8 95.8844 54.0438 96.6157C54.0438 97.1033 54.0438 97.5909 54.0438 97.8346C54.0438 98.3222 53.8 98.566 53.5562 98.8098C53.3125 99.0536 53.0687 99.0536 52.8249 99.0536C52.5811 99.0536 52.3373 99.0536 52.0935 98.8098C51.606 99.0536 51.606 98.8098 51.606 98.8098Z" fill="#E08F8D"/>
<path d="M53.0687 102.467C53.0687 102.467 52.8249 102.711 52.0936 102.955C51.3622 102.955 50.6309 102.955 49.6557 102.467C48.6806 101.98 48.193 101.249 48.193 100.517C47.9492 100.03 47.9492 99.542 47.9492 99.542C47.9492 99.542 47.9492 100.03 48.193 100.517C48.4368 101.005 48.9244 101.736 49.6557 102.224C50.3871 102.711 51.3622 102.711 51.8498 102.711C52.5812 102.467 53.0687 102.224 53.0687 102.467Z" fill="#E08F8D"/>
<path d="M48.6799 99.0547C48.6799 99.0547 48.1923 99.0547 47.7047 99.2985C47.2172 99.5423 47.2172 100.03 46.9734 100.03V99.7861C46.9734 99.5423 47.2172 99.2985 47.461 99.2985C47.7047 99.0547 47.9485 99.0547 48.1923 99.0547C48.4361 99.0547 48.6799 99.0547 48.6799 99.0547Z" fill="#E08F8D"/>
<path d="M55.262 111C55.262 111 55.0182 111.244 54.7744 111.244C54.5306 111.487 53.7993 111.731 53.0679 111.975C51.6052 112.462 49.6549 112.706 47.4608 112.462C45.2667 112.219 43.3164 111.244 42.0975 110.268C41.6099 109.781 41.1224 109.537 40.6348 109.293C40.391 109.049 40.1472 108.806 40.1472 108.806C40.1472 108.806 40.8786 109.537 42.0975 110.268C43.3164 111 45.2667 111.975 47.217 112.219C49.4111 112.462 51.3614 112.219 52.8241 111.731C54.2868 111.487 55.262 111 55.262 111Z" fill="#E08F8D"/>
<path d="M34.7847 99.0552C34.7847 99.0552 35.2723 98.8114 35.2723 98.3239C35.2723 98.0801 35.2723 97.5925 35.2723 97.3487C35.0285 97.105 34.7847 96.6174 34.2972 96.8612C33.8096 96.8612 33.8096 97.3487 33.8096 97.5925H33.5658C33.322 96.3736 33.322 95.3984 33.322 95.3984C33.322 95.3984 33.5658 96.3736 33.8096 97.5925L34.0534 98.3239L33.8096 97.5925C33.5658 97.1049 33.8096 96.6174 34.2972 96.3736C34.541 96.3736 34.7847 96.3736 35.0285 96.6174C35.2723 96.8612 35.2723 96.8612 35.5161 97.1049C35.7599 97.5925 35.5161 97.8363 35.5161 98.3239C35.2723 98.5677 35.2723 98.8115 35.0285 98.8115C34.7847 99.0552 34.7847 99.0552 34.7847 99.0552Z" fill="#E08F8D"/>
<path d="M47.2172 91.4984C46.9734 91.4984 46.9734 91.0108 46.9734 90.2795C46.9734 89.5481 46.9734 89.0605 47.2172 89.0605C47.461 89.0605 47.461 89.5481 47.461 90.2795C47.461 90.7671 47.2172 91.4984 47.2172 91.4984Z" fill="#452775"/>
<path d="M58.4318 91.0101C58.188 91.0101 58.188 90.5226 58.188 89.7912C58.188 89.0598 58.188 88.5723 58.4318 88.5723C58.6756 88.5723 58.6756 89.0598 58.6756 89.7912C58.6756 90.5226 58.6756 91.0101 58.4318 91.0101Z" fill="#452775"/>
<path d="M36.7345 92.9608C36.4907 93.936 36.2469 94.9111 36.4907 95.6425C36.9783 96.6176 38.1972 96.8614 38.6848 96.1301C38.9285 95.8863 38.9285 95.3987 38.9285 95.1549C38.9285 92.7171 38.9285 90.0354 38.9285 87.5975C42.5853 86.8662 45.7546 83.9407 46.7297 80.2839C48.68 81.5029 51.3617 81.5029 53.3119 80.5277C54.0433 80.0402 55.0185 79.5526 55.9936 79.5526C57.2125 79.7964 57.7001 80.7715 58.6752 81.5029C60.3818 82.7218 62.8196 81.9904 63.551 80.0402C64.2823 78.0899 63.3072 75.8958 61.6007 74.9206C59.4066 73.7017 56.725 73.9455 54.0433 74.1893C49.4114 74.6769 44.7794 75.4082 39.9037 75.8958C38.9285 75.8958 37.9534 76.1396 37.4658 76.6271C36.7345 77.1147 36.4907 78.0899 36.2469 79.065C35.2718 82.478 34.7842 86.3786 34.7842 90.0354C34.7842 91.2543 35.028 92.4733 36.0031 92.9608" fill="#552E3B"/>
<path d="M48.6797 86.1338C48.6797 86.6214 47.9484 86.8652 46.9732 87.109C45.9981 87.3528 45.0229 87.109 45.0229 86.8652C45.0229 86.3776 45.7543 86.1338 46.7295 85.89C47.7046 85.6463 48.6797 85.89 48.6797 86.1338Z" fill="#552E3B"/>
<path d="M59.8944 85.8925C59.8944 86.3801 59.1631 86.6239 58.4317 86.3801C57.7004 86.3801 56.969 85.8925 56.969 85.6487C56.969 85.4049 57.7004 84.9174 58.4317 85.1612C59.1631 85.1612 59.8944 85.6487 59.8944 85.8925Z" fill="#552E3B"/>
<path d="M25.0323 11.0477L21.863 50.5411L77.9339 50.7849V62.4866L86.2227 50.5411L106.457 50.2973L109.626 6.90332L25.0323 11.0477Z" fill="#EDC483"/>
<path d="M43.073 143.424C43.073 143.424 48.4363 161.708 48.9239 162.439C49.4114 163.17 55.0185 163.902 55.0185 163.902L55.5061 165.608L54.2872 165.852C53.7996 166.096 53.312 166.583 53.312 167.071C53.312 167.559 53.7996 168.046 54.531 168.046H55.9937L57.944 177.31L51.1179 179.748L51.3617 181.698L71.8398 179.26L71.1084 177.066L63.5511 176.335L62.0883 166.827L63.0635 166.583C63.7948 166.34 64.2824 165.608 64.0386 164.877C63.7948 164.146 63.0635 163.658 62.3321 163.902L61.6008 164.146L61.357 162.195L66.2327 158.051L63.0635 139.523L54.2872 137.329L49.6552 138.304L43.073 143.424Z" fill="#FAC28C"/>
<path d="M49.8992 126.847C49.8992 126.847 53.556 129.041 53.7998 129.772C53.7998 130.747 52.8247 131.966 52.8247 131.966L53.0685 133.429L56.7253 133.673L57.2128 135.623L54.2874 136.354L54.5312 138.792L49.8992 139.767L49.4117 137.817H46.4862L46.2424 136.354L49.4117 134.648L49.1679 133.429C49.1679 133.429 47.2176 131.479 47.2176 130.991C46.9738 130.503 47.2176 128.066 49.8992 126.847Z" fill="#FAC28C"/>
<path d="M45.7549 146.592C45.7549 146.592 42.0981 142.691 37.9537 144.885C33.8093 147.079 35.0282 153.418 38.4413 156.1C41.6105 158.781 49.1679 162.194 49.1679 162.194L48.4365 158.781C48.4365 158.781 40.6353 156.1 38.685 151.711C37.9537 150.249 37.7099 146.104 41.8543 146.836C45.9986 147.567 46.2424 150.98 46.2424 150.98L45.7549 146.592Z" fill="#FAC28C"/>
<path d="M61.6008 142.448C61.6008 142.448 62.8198 137.329 67.4517 137.085C72.0836 136.841 74.0339 143.18 72.5712 147.08C71.1085 150.981 66.2328 157.563 66.2328 157.563L65.2576 154.394C65.2576 154.394 70.6209 148.299 70.3771 143.423C70.3771 141.717 68.4268 138.06 65.2576 140.742C62.0884 143.423 63.3073 146.593 63.3073 146.593L61.6008 142.448Z" fill="#FAC28C"/>
<path d="M53.5561 145.375L51.8496 146.838L51.3621 145.863L53.5561 143.913L54.7751 143.669L57.7005 154.883L56.2378 155.127L53.5561 145.375Z" fill="#D4A627"/>
<path d="M45.7546 169.266C45.7546 169.266 51.3617 163.172 52.3369 163.415C53.5558 163.659 53.312 163.172 53.7996 165.366C54.2872 167.072 65.2576 162.928 64.77 164.39C64.2824 165.853 58.4315 167.316 58.4315 167.316C58.4315 167.316 66.4765 165.609 64.77 167.316C63.0635 169.022 58.4315 170.241 58.4315 170.241C58.4315 170.241 66.9641 168.779 65.0138 170.241C63.3073 171.704 60.138 172.435 60.138 172.435C60.138 172.435 67.4516 171.948 65.2576 173.167C63.3073 174.386 46.486 182.187 46.486 182.187L45.7546 169.266Z" fill="#F9C8C7"/>
<path d="M212.748 98.3232L213.48 116.363C213.723 121.483 219.087 124.652 223.475 122.214C223.475 122.214 223.475 122.214 223.719 122.214C226.157 120.995 227.619 118.558 227.619 115.876C227.375 109.537 227.375 98.567 227.375 98.567L212.748 98.3232Z" fill="#F9C8C7"/>
<path d="M216.405 97.3486C216.405 97.3486 216.405 97.5924 215.918 97.5924C215.674 97.8362 215.186 97.8362 214.699 97.3486C214.455 97.1048 214.211 96.861 214.211 96.6172C214.211 96.3734 214.211 95.8859 214.211 95.3983C214.211 94.6669 214.211 93.6918 214.455 92.7166C214.455 90.7664 214.699 89.0598 214.699 87.8409C214.699 87.1096 214.699 86.622 214.699 86.3782C214.699 86.1344 214.699 85.8906 214.699 85.8906C214.699 85.8906 214.699 86.1344 214.699 86.3782C214.699 86.622 214.699 87.1096 214.455 87.8409C214.455 89.0598 214.211 90.7664 214.211 92.7166C214.211 93.6918 214.211 94.6669 213.967 95.3983C213.967 95.8859 213.967 96.1296 213.967 96.6172C213.967 97.1048 214.211 97.3486 214.455 97.5924C214.699 97.8362 214.942 97.8362 215.186 97.8362C215.43 97.8362 215.674 97.8362 215.918 97.5924C216.405 97.5924 216.405 97.3486 216.405 97.3486Z" fill="#E08F8D"/>
<path d="M214.942 100.52C214.942 100.52 215.186 100.764 215.918 100.764C216.405 100.764 217.38 100.764 218.355 100.276C219.087 99.7884 219.574 99.0571 219.818 98.3257C220.062 97.8382 220.062 97.3506 220.062 97.3506C220.062 97.3506 220.062 97.8382 219.818 98.3257C219.574 98.8133 219.087 99.5447 218.355 100.032C217.624 100.52 216.649 100.52 216.161 100.52C215.43 100.764 214.942 100.52 214.942 100.52Z" fill="#E08F8D"/>
<path d="M219.331 97.5917C219.331 97.5917 219.818 97.5917 220.306 97.8355C220.793 98.0793 220.793 98.5669 221.037 98.5669V98.3231C221.037 98.0793 220.793 97.8355 220.549 97.8355C220.306 97.5917 220.062 97.5917 219.818 97.5917C219.331 97.348 219.331 97.5917 219.331 97.5917Z" fill="#E08F8D"/>
<path d="M212.992 108.564C212.992 108.564 213.236 108.807 213.48 108.807C213.724 109.051 214.455 109.295 214.942 109.539C216.161 110.026 218.112 110.27 220.306 110.026C222.5 109.782 224.206 108.807 225.425 108.076C225.913 107.588 226.4 107.345 226.644 107.101C226.888 106.857 227.132 106.613 227.132 106.613C227.132 106.613 226.4 107.101 225.425 107.832C224.206 108.564 222.5 109.295 220.55 109.783C218.355 110.026 216.649 109.783 215.186 109.295C213.724 109.051 212.992 108.564 212.992 108.564Z" fill="#E08F8D"/>
<path d="M232.739 97.3495C232.739 97.3495 232.495 97.1057 232.251 96.6182C232.251 96.3744 232.251 95.8868 232.251 95.643C232.251 95.3992 232.739 94.9117 232.983 95.1555C233.227 95.1555 233.47 95.643 233.47 95.8868H233.714C233.958 94.6679 233.958 93.9365 233.958 93.9365C233.958 93.9365 233.714 94.6679 233.47 95.8868L233.227 96.6182L233.47 96.1306C233.714 95.643 233.47 95.1555 232.983 95.1555C232.739 95.1555 232.495 95.1555 232.251 95.3992C232.008 95.643 232.008 95.643 231.764 95.8868C231.52 96.3744 231.764 96.6182 231.764 96.862C232.008 97.1057 232.008 97.3495 232.251 97.3495C232.495 97.3495 232.495 97.3495 232.739 97.3495Z" fill="#E08F8D"/>
<path d="M220.55 90.0365C220.793 90.0365 220.793 89.5489 220.793 88.8176C220.793 88.0862 220.793 87.5986 220.55 87.5986C220.306 87.5986 220.306 88.0862 220.306 88.8176C220.306 89.5489 220.55 90.0365 220.55 90.0365Z" fill="#452775"/>
<path d="M209.823 89.5489C210.067 89.5489 210.067 89.0613 210.067 88.5738C210.067 88.0862 210.067 87.5986 209.823 87.5986C209.579 87.5986 209.579 88.0862 209.579 88.5738C209.579 89.0613 209.579 89.5489 209.823 89.5489Z" fill="#452775"/>
<path d="M230.789 91.498C231.033 92.4732 231.276 93.4483 231.033 94.1797C230.789 94.911 229.326 95.3986 228.839 94.6673C228.595 94.4235 228.595 93.9359 228.595 93.6921C228.595 91.2543 228.595 88.8164 228.595 86.3785C224.938 85.6472 222.013 82.9655 221.037 79.5525C219.087 80.5276 216.649 80.5276 214.699 79.5525C213.968 79.0649 212.992 78.5774 212.261 78.5774C211.286 78.8211 210.555 79.7963 209.579 80.5276C208.117 81.5028 205.679 81.0152 204.704 79.3087C203.972 77.6022 204.947 75.4081 206.654 74.1892C208.848 72.9703 211.53 73.2141 213.968 73.4578C218.6 73.9454 222.988 74.433 227.62 75.1643C228.595 75.1643 229.326 75.4081 230.057 75.8957C230.789 76.3833 231.033 77.3584 231.276 78.0898C232.252 81.5028 232.739 84.9158 232.739 88.5726C232.739 89.5477 232.495 91.0105 231.52 91.498" fill="#251A51"/>
<path d="M222.256 84.1839C222.256 84.4277 222.012 84.1839 221.525 84.1839C221.281 84.1839 220.793 84.1839 220.793 84.1839C220.793 84.1839 221.037 83.6963 221.525 83.6963C222.012 83.6963 222.256 84.1839 222.256 84.1839Z" fill="#251A51"/>
<path d="M209.823 83.9401C209.823 84.1839 209.579 84.1839 209.335 84.1839C209.091 84.1839 209.091 84.1839 208.848 84.1839C208.848 84.1839 208.848 83.6963 209.091 83.6963C209.579 83.6963 209.823 83.9401 209.823 83.9401Z" fill="#251A51"/>
<g opacity="0.23">
<g opacity="0.23">
<g opacity="0.23">
<path opacity="0.23" d="M219.818 99.2991C220.55 99.5429 220.306 100.762 219.331 101.493C218.112 102.225 217.137 101.493 217.137 101.006C217.137 100.274 217.624 99.7867 218.112 99.2991C218.599 99.0553 219.331 98.8115 219.818 99.2991Z" fill="#D1658F"/>
</g>
</g>
</g>
<path d="M205.922 154.64C205.678 154.64 203.972 148.302 202.022 140.501C200.071 132.699 198.609 126.361 198.609 126.117C198.852 126.117 200.559 132.456 202.509 140.257C204.46 148.302 205.922 154.64 205.922 154.64Z" fill="#473A60"/>
<path d="M228.107 111.731C228.107 111.731 228.351 111.975 228.595 112.707C228.838 113.438 229.082 114.413 229.082 115.632C229.082 116.851 228.595 118.314 227.619 119.776C226.644 121.239 225.182 122.214 223.231 122.946C221.281 123.433 219.331 123.433 217.868 122.702C216.405 121.97 215.186 120.995 214.455 120.02C213.724 119.045 213.236 118.07 213.236 117.339C212.992 116.607 212.992 116.363 212.992 116.363C212.992 116.363 213.236 117.826 214.699 119.776C215.43 120.752 216.649 121.727 218.112 122.214C219.574 122.702 221.281 122.946 223.231 122.458C224.938 121.97 226.4 120.995 227.376 119.533C228.351 118.314 228.595 116.851 228.838 115.632C228.595 113.194 227.863 111.731 228.107 111.731Z" fill="#473A60"/>
<path d="M32.1025 25.6764C54.5308 26.4077 76.9592 25.9202 99.3875 25.9202C100.363 25.9202 100.363 24.4574 99.3875 24.4574C76.9592 24.4574 54.5308 24.2136 32.1025 24.7012C31.3711 24.7012 31.3711 25.6764 32.1025 25.6764Z" fill="#F2F2F2"/>
<path d="M31.8583 31.5289C54.2867 32.2603 76.715 31.7727 99.1434 31.7727C100.119 31.7727 100.119 30.31 99.1434 30.31C76.715 30.31 54.2867 30.0662 31.8583 30.5538C31.127 30.7975 31.127 31.5289 31.8583 31.5289Z" fill="#F2F2F2"/>
<path d="M30.396 36.8893C43.5604 37.3768 56.9687 37.133 70.1331 37.133C71.1083 37.133 71.1083 35.4265 70.1331 35.6703C56.9687 35.6703 43.5604 35.4265 30.396 35.9141C29.9084 35.9141 29.9084 36.8893 30.396 36.8893Z" fill="#F2F2F2"/>
<path d="M187.639 13.7295L192.027 22.5058L201.047 20.5555L193.733 28.1129L197.146 36.6454L189.101 31.2821L183.25 35.9141L184.469 28.1129L178.375 23.7247L186.42 22.5058L187.639 13.7295Z" fill="#EDC483"/>
<path d="M249.072 360.636L271.013 359.174L232.251 222.653L221.28 265.804L247.609 360.636" fill="#6D1B48"/>
<path d="M243.709 186.087C226.4 250.447 202.021 362.588 202.021 362.588L178.13 360.882C185.932 329.433 205.191 204.615 207.629 188.037L243.709 186.087Z" fill="#871F54"/>
<path d="M201.046 357.469C201.046 357.713 196.414 357.469 190.563 356.738C184.956 356.007 180.324 355.275 180.324 354.788C180.324 354.544 184.956 354.788 190.807 355.519C196.658 356.494 201.046 357.226 201.046 357.469Z" fill="#4A4182"/>
<g opacity="0.42">
<g opacity="0.42">
<g opacity="0.42">
<path opacity="0.42" d="M188.613 354.058C188.857 354.058 189.101 354.789 189.101 355.277C188.857 356.008 188.613 356.496 188.37 356.252C188.126 356.008 187.882 355.52 187.882 355.033C187.882 354.545 188.37 354.058 188.613 354.058Z" fill="#4A4182"/>
</g>
<g opacity="0.42">
<path opacity="0.42" d="M190.564 344.549C190.807 344.549 191.051 345.768 190.807 346.987C190.564 348.206 190.076 349.425 189.832 349.181C189.589 349.181 189.345 347.962 189.589 346.743C189.589 345.524 190.076 344.549 190.564 344.549Z" fill="#4A4182"/>
</g>
<g opacity="0.42">
<path opacity="0.42" d="M192.27 335.041C192.514 335.041 192.758 336.26 192.514 337.479C192.27 338.698 191.782 339.917 191.539 339.673C191.295 339.673 191.051 338.454 191.295 337.235C191.539 336.016 192.026 335.041 192.27 335.041Z" fill="#4A4182"/>
</g>
<g opacity="0.42">
<path opacity="0.42" d="M194.221 325.534C194.465 325.534 194.708 326.753 194.465 327.972C194.221 329.191 193.733 330.41 193.49 330.166C193.246 330.166 193.002 328.947 193.246 327.728C193.246 326.509 193.733 325.534 194.221 325.534Z" fill="#4A4182"/>
</g>
<g opacity="0.42">
<path opacity="0.42" d="M195.926 316.026C196.17 316.026 196.414 317.245 196.17 318.464C195.926 319.683 195.439 320.902 195.195 320.658C194.951 320.658 194.708 319.439 194.951 318.22C195.195 317.001 195.683 316.026 195.926 316.026Z" fill="#4A4182"/>
</g>
<g opacity="0.42">
<path opacity="0.42" d="M197.877 306.518C198.121 306.518 198.365 307.737 198.121 308.955C197.877 310.174 197.39 311.393 196.902 311.15C196.414 310.906 196.414 309.931 196.658 308.712C197.146 307.493 197.633 306.518 197.877 306.518Z" fill="#4A4182"/>
</g>
<g opacity="0.42">
<path opacity="0.42" d="M199.827 297.009C200.071 297.009 200.315 298.228 200.071 299.447C199.827 300.666 199.34 301.885 198.852 301.641C198.608 301.641 198.365 300.422 198.608 299.203C199.096 297.984 199.583 297.009 199.827 297.009Z" fill="#4A4182"/>
</g>
<g opacity="0.42">
<path opacity="0.42" d="M201.778 287.504C202.022 287.504 202.266 288.723 202.022 289.942C201.778 291.161 201.29 292.136 200.803 292.136C200.559 292.136 200.315 290.917 200.559 289.698C201.047 288.479 201.534 287.504 201.778 287.504Z" fill="#4A4182"/>
</g>
<g opacity="0.42">
<path opacity="0.42" d="M203.727 277.995C203.971 277.995 204.215 279.214 203.971 280.433C203.727 281.652 203.24 282.627 202.752 282.627C202.508 282.627 202.265 281.408 202.508 280.189C202.996 278.97 203.484 277.995 203.727 277.995Z" fill="#4A4182"/>
</g>
<g opacity="0.42">
<path opacity="0.42" d="M205.678 268.488C205.922 268.488 206.165 269.707 205.678 270.926C205.434 272.145 204.947 273.12 204.459 273.12C203.971 273.12 203.971 271.901 204.459 270.682C204.947 269.463 205.434 268.488 205.678 268.488Z" fill="#4A4182"/>
</g>
<g opacity="0.42">
<path opacity="0.42" d="M207.873 258.98C208.116 258.98 208.36 260.199 207.873 261.418C207.629 262.637 207.141 263.612 206.654 263.612C206.41 263.612 206.166 262.393 206.654 261.175C206.897 259.956 207.385 258.98 207.873 258.98Z" fill="#4A4182"/>
</g>
<g opacity="0.42">
<path opacity="0.42" d="M209.822 249.472C210.066 249.472 210.31 250.691 209.822 251.91C209.579 253.128 209.091 254.104 208.604 254.104C208.36 254.104 208.116 252.885 208.604 251.666C209.091 250.447 209.579 249.472 209.822 249.472Z" fill="#4A4182"/>
</g>
<g opacity="0.42">
<path opacity="0.42" d="M212.017 240.21C212.261 240.21 212.504 241.429 212.017 242.648C211.773 243.867 211.285 244.842 210.798 244.842C210.31 244.842 210.31 243.623 210.798 242.404C211.042 240.942 211.529 239.966 212.017 240.21Z" fill="#4A4182"/>
</g>
<g opacity="0.42">
<path opacity="0.42" d="M214.21 230.699C214.454 230.699 214.698 231.918 214.21 233.137C213.967 234.356 213.479 235.331 212.991 235.331C212.504 235.331 212.504 234.112 212.991 232.893C213.235 231.674 213.723 230.456 214.21 230.699Z" fill="#4A4182"/>
</g>
<g opacity="0.42">
<path opacity="0.42" d="M216.161 221.193C216.405 221.193 216.648 222.412 216.161 223.631C215.917 224.85 215.429 225.825 214.942 225.825C214.698 225.825 214.454 224.606 214.942 223.387C215.429 222.169 215.917 221.193 216.161 221.193Z" fill="#4A4182"/>
</g>
<g opacity="0.42">
<path opacity="0.42" d="M218.355 211.684C218.599 211.684 218.842 212.903 218.355 214.121C218.111 215.34 217.624 216.316 217.136 216.316C216.892 216.316 216.648 215.097 217.136 213.878C217.624 212.659 218.111 211.684 218.355 211.684Z" fill="#4A4182"/>
</g>
<g opacity="0.42">
<path opacity="0.42" d="M220.549 202.423C220.793 202.423 221.036 203.642 220.549 204.861C220.305 206.08 219.817 207.055 219.33 207.055C219.086 207.055 218.842 205.836 219.33 204.617C219.817 203.154 220.305 202.179 220.549 202.423Z" fill="#4A4182"/>
</g>
<g opacity="0.42">
<path opacity="0.42" d="M222.743 192.915C222.987 192.915 223.231 194.134 222.743 195.353C222.5 196.572 222.012 197.547 221.524 197.547C221.037 197.547 221.037 196.328 221.524 195.109C222.012 193.89 222.5 192.915 222.743 192.915Z" fill="#4A4182"/>
</g>
<g opacity="0.42">
<path opacity="0.42" d="M224.45 185.844C224.693 185.844 224.937 186.575 224.693 187.063C224.45 187.794 224.206 188.282 223.718 188.038C223.475 188.038 223.231 187.306 223.475 186.819C223.718 186.088 224.206 185.844 224.45 185.844Z" fill="#4A4182"/>
</g>
</g>
</g>
<path d="M235.42 227.531C235.664 227.531 234.933 230.213 233.958 234.357C232.739 238.745 231.276 244.352 229.813 250.447C228.107 256.785 226.644 262.392 225.669 266.537C224.45 270.681 223.719 273.119 223.475 273.119C223.231 273.119 223.719 270.437 224.694 266.293C225.669 262.149 226.888 256.542 228.594 250.203C230.301 243.865 231.763 238.258 233.226 234.357C234.201 229.969 235.176 227.287 235.42 227.531Z" fill="#4A4182"/>
<g opacity="0.42">
<g opacity="0.42">
<g opacity="0.42">
<path opacity="0.42" d="M231.519 254.837C231.276 254.837 230.544 254.106 230.057 252.643C229.569 251.424 229.569 250.205 229.813 250.205C230.057 250.205 230.788 250.936 231.276 252.399C231.763 253.618 231.763 254.837 231.519 254.837Z" fill="#4A4182"/>
</g>
<g opacity="0.42">
<path opacity="0.42" d="M234.689 264.1C234.445 264.1 233.714 263.368 233.226 261.906C232.739 260.687 232.739 259.468 232.983 259.468C233.226 259.468 233.958 260.199 234.445 261.662C234.933 262.881 234.933 264.1 234.689 264.1Z" fill="#4A4182"/>
</g>
<g opacity="0.42">
<path opacity="0.42" d="M237.859 273.363C237.615 273.363 236.883 272.632 236.396 271.169C235.908 269.95 235.908 268.731 236.152 268.731C236.396 268.731 237.127 269.463 237.615 270.926C238.102 272.144 238.102 273.363 237.859 273.363Z" fill="#4A4182"/>
</g>
<g opacity="0.42">
<path opacity="0.42" d="M240.784 282.63C240.54 282.63 239.809 281.899 239.321 280.436C238.834 279.217 238.834 277.998 239.077 277.998C239.321 277.998 240.053 278.729 240.54 280.192C241.028 281.411 241.271 282.386 240.784 282.63Z" fill="#4A4182"/>
</g>
<g opacity="0.42">
<path opacity="0.42" d="M243.953 291.893C243.709 291.893 242.978 291.161 242.49 289.699C242.003 288.48 242.003 287.261 242.247 287.261C242.49 287.261 243.222 287.992 243.709 289.455C244.197 290.674 244.441 291.649 243.953 291.893Z" fill="#4A4182"/>
</g>
<g opacity="0.42">
<path opacity="0.42" d="M247.122 301.156C246.878 301.156 246.147 300.425 245.659 298.962C245.171 297.743 245.171 296.524 245.415 296.524C245.659 296.524 246.39 297.256 246.878 298.718C247.366 299.937 247.366 300.913 247.122 301.156Z" fill="#4A4182"/>
</g>
<g opacity="0.42">
<path opacity="0.42" d="M250.291 310.42C250.047 310.42 249.316 309.689 248.828 308.226C248.341 307.007 248.341 305.788 248.584 305.788C248.828 305.788 249.56 306.519 250.047 307.982C250.535 309.201 250.535 310.176 250.291 310.42Z" fill="#4A4182"/>
</g>
<g opacity="0.42">
<path opacity="0.42" d="M253.46 319.684C253.216 319.684 252.485 318.952 251.997 317.49C251.51 316.271 251.51 315.052 251.754 315.052C251.997 315.052 252.729 315.783 253.216 317.246C253.704 318.221 253.704 319.44 253.46 319.684Z" fill="#4A4182"/>
</g>
<g opacity="0.42">
<path opacity="0.42" d="M256.386 328.705C256.142 328.705 255.411 327.974 254.923 326.511C254.436 325.292 254.436 324.073 254.679 324.073C254.923 324.073 255.655 324.805 256.142 326.267C256.63 327.486 256.873 328.705 256.386 328.705Z" fill="#4A4182"/>
</g>
<g opacity="0.42">
<path opacity="0.42" d="M259.555 337.968C259.311 337.968 258.58 337.237 258.092 335.774C257.605 334.555 257.605 333.336 257.848 333.336C258.092 333.336 258.824 334.067 259.311 335.53C259.799 336.749 259.799 337.968 259.555 337.968Z" fill="#4A4182"/>
</g>
<g opacity="0.42">
<path opacity="0.42" d="M262.725 347.233C262.481 347.233 261.75 346.501 261.262 345.038C260.774 343.82 260.775 342.601 261.018 342.601C261.262 342.601 261.993 343.332 262.481 344.795C262.969 346.014 262.969 347.233 262.725 347.233Z" fill="#4A4182"/>
</g>
<g opacity="0.42">
<path opacity="0.42" d="M265.162 354.792C264.918 354.792 264.431 354.304 264.187 353.573C263.943 352.841 263.943 352.11 264.187 351.866C264.431 351.866 264.918 352.354 265.162 353.085C265.65 354.06 265.65 354.792 265.162 354.792Z" fill="#4A4182"/>
</g>
</g>
</g>
<path d="M269.306 351.863C269.306 352.106 263.943 353.082 257.604 354.544C251.022 355.763 245.903 357.226 245.659 356.738C245.659 356.495 250.778 354.544 257.361 353.325C263.699 351.863 269.306 351.619 269.306 351.863Z" fill="#4A4182"/>
<path d="M201.517 362.474C201.517 362.474 177.833 363.89 178.931 362.78C180.272 361.696 183.092 360.524 183.092 360.524L201.517 362.474Z" fill="#171330"/>
<path d="M270.811 358.972C270.811 358.972 247.614 363.958 248.532 362.695C249.692 361.421 252.303 359.835 252.303 359.835L270.811 358.972Z" fill="#171330"/>
<path d="M33.8091 196.085C34.2967 199.011 39.66 299.207 45.7546 364.298H70.6208C70.6208 364.298 58.4315 214.126 61.3569 213.882C64.77 213.638 92.8054 364.298 92.8054 364.298H116.453L80.3723 191.697L33.8091 196.085Z" fill="#251A51"/>
<path d="M57.2124 357.959C57.2124 357.959 56.9687 357.471 56.9687 356.252C56.7249 355.033 56.7249 353.57 56.4811 351.62C55.9935 347.476 55.2622 341.625 54.5308 334.555C53.0681 319.928 51.3616 299.937 49.8988 277.753C48.4361 255.568 47.461 235.334 46.9734 220.707C46.7296 213.393 46.4858 207.542 46.4858 203.398C46.4858 201.448 46.4858 199.985 46.4858 198.766C46.4858 197.791 46.4858 197.06 46.4858 197.06C46.4858 197.06 46.4858 197.547 46.7296 198.766C46.7296 199.985 46.9734 201.448 46.9734 203.398C47.2172 207.542 47.461 213.393 47.7048 220.707C48.4361 235.334 49.4113 255.325 50.874 277.509C52.3367 299.694 54.0432 319.684 55.2622 334.311C55.9935 341.381 56.4811 347.232 56.7249 351.62C56.9687 353.57 56.9687 355.033 56.9687 356.252C57.4562 357.471 57.4562 357.959 57.2124 357.959Z" fill="#4A4182"/>
<path d="M69.6457 357.228C69.6457 357.471 64.2824 358.203 57.4564 358.69C50.6304 359.178 45.2671 359.422 45.2671 358.934C45.2671 358.69 50.6304 357.959 57.4564 357.471C64.2824 356.984 69.6457 356.74 69.6457 357.228Z" fill="#4A4182"/>
<path d="M102.069 358.931C102.069 358.931 101.825 358.444 101.582 357.225C101.338 356.006 101.094 354.543 100.606 352.593C99.6313 348.449 98.6562 342.598 97.1934 335.284C94.268 320.657 90.855 300.179 86.7106 277.751C82.5663 255.322 78.6657 235.088 75.7402 220.461C74.2775 213.147 73.0586 207.296 72.0834 203.152C71.5959 201.202 71.3521 199.739 71.1083 198.52C70.8645 197.545 70.8645 196.813 70.8645 196.813C70.8645 196.813 71.1083 197.301 71.3521 198.52C71.5959 199.739 72.0834 201.202 72.571 203.152C73.5462 207.296 75.0089 213.147 76.7154 220.461C80.1284 235.088 84.029 255.322 88.1733 277.751C92.0739 300.179 95.7307 320.413 98.4124 335.284C99.6313 342.598 100.606 348.449 101.582 352.593C101.825 354.543 102.069 356.006 102.313 357.225C102.069 358.444 102.069 358.931 102.069 358.931Z" fill="#4A4182"/>
<path d="M115.965 359.179C115.965 359.422 110.601 359.91 104.019 359.91C97.437 359.91 92.0737 359.666 92.0737 359.179C92.0737 358.935 97.437 358.447 104.019 358.447C110.601 358.447 115.965 358.935 115.965 359.179Z" fill="#4A4182"/>
<path d="M41.6101 197.791C41.8539 197.791 42.3414 198.522 42.3414 199.985C42.5852 201.448 42.3414 203.398 41.1225 205.348C39.9036 207.299 38.1971 208.518 36.9781 209.005C35.7592 209.493 34.7841 209.493 34.7841 209.493C34.5403 209.249 38.1971 208.274 40.1474 204.861C42.0977 201.204 41.1225 197.791 41.6101 197.791Z" fill="#4A4182"/>
<path d="M64.0384 211.687C64.0384 211.687 64.0384 211.931 63.7946 212.418C63.307 212.906 62.5756 213.393 61.6005 213.149C61.1129 213.149 60.3816 212.662 60.1378 212.174C59.894 211.687 59.6502 210.955 59.6502 210.468C59.4064 209.249 59.1626 208.03 58.9188 206.811C58.1875 201.448 57.6999 197.303 58.1875 197.06C58.4313 197.06 59.4064 201.204 60.3816 206.567C60.6253 207.786 60.6253 209.005 60.8691 210.224C60.8691 211.443 61.3567 212.174 61.8443 212.418C62.5756 212.662 63.0632 212.418 63.5508 212.174C63.7946 211.931 64.0384 211.687 64.0384 211.687Z" fill="#4A4182"/>
<path d="M83.7851 207.053C83.7851 207.297 83.0537 207.297 81.591 207.053C80.3721 206.81 78.4218 206.078 76.9591 204.615C75.4963 203.153 74.765 201.446 74.5212 200.227C74.2774 199.008 74.5212 198.033 74.5212 198.033C74.765 198.033 75.2525 201.202 77.9342 203.884C80.6159 206.322 83.7851 206.566 83.7851 207.053Z" fill="#4A4182"/>
<path d="M50.1426 364.295C50.1426 364.295 73.5461 368.196 72.5709 366.977C71.352 365.758 68.6703 364.295 68.6703 364.295H50.1426Z" fill="#171330"/>
<path d="M96.2188 364.295C96.2188 364.295 119.622 368.196 118.647 366.977C117.428 365.758 114.747 364.295 114.747 364.295H96.2188Z" fill="#171330"/>
<path d="M233.227 221.435C233.227 221.435 229.082 226.067 228.351 226.554C224.938 230.455 228.351 228.261 229.814 227.773C231.276 227.285 227.62 237.037 228.839 236.549C230.058 236.062 231.276 231.43 231.276 231.43C231.276 231.43 229.814 238.012 231.033 236.549C232.495 235.087 233.471 231.43 233.471 231.43C233.471 231.43 232.252 238.256 233.227 236.793C234.446 235.33 235.177 232.893 235.177 232.893C235.177 232.893 234.689 238.743 235.665 237.037C236.64 235.33 243.222 222.166 243.222 222.166L233.227 221.435Z" fill="#F9C8C7"/>
<path d="M226.4 132.698C226.4 132.698 242.978 160.002 241.028 175.848C239.321 188.038 230.545 221.924 230.545 221.924L244.197 226.8C244.197 226.8 255.655 190.963 256.386 170.485C257.117 150.007 239.321 121.24 239.321 121.24L226.4 132.698Z" fill="url(#paint5_linear)"/>
<path d="M240.296 122.948C240.296 122.948 239.321 122.461 237.371 122.948C235.421 123.192 232.739 124.655 231.032 127.58C229.326 130.506 229.082 134.894 230.057 139.282C231.276 143.67 233.227 148.302 235.421 153.178C237.615 158.053 239.321 162.685 240.053 167.317C240.784 171.949 240.54 176.094 240.053 179.507C239.077 186.333 237.859 190.477 237.859 190.477C237.859 190.477 237.859 190.233 238.102 189.746C238.346 189.014 238.346 188.283 238.59 187.552C239.077 185.601 239.565 182.92 239.809 179.507C240.296 176.094 240.296 171.949 239.565 167.561C238.834 163.173 237.127 158.297 234.933 153.421C232.983 148.546 230.789 143.914 229.57 139.526C228.351 135.137 228.595 130.506 230.545 127.58C232.495 124.655 235.177 123.192 237.127 122.948C238.102 122.704 238.834 122.948 239.321 122.948C240.053 122.948 240.296 122.948 240.296 122.948Z" fill="#473A60"/>
<path d="M193.976 112.706C193.733 112.706 193.976 111.731 194.22 110.756C194.464 109.781 194.708 108.806 194.952 108.806C195.195 108.806 194.952 109.781 194.708 110.756C194.464 111.975 194.22 112.706 193.976 112.706Z" fill="#473A60"/>
<path d="M202.022 114.414C201.778 114.414 201.778 113.927 201.778 113.195C201.778 112.464 201.778 111.977 202.022 111.977C202.266 111.977 202.266 112.464 202.266 113.195C202.266 113.927 202.266 114.414 202.022 114.414Z" fill="#473A60"/>
<path d="M204.947 124.653C204.947 124.653 204.216 124.166 203.728 123.434C202.997 122.703 202.509 121.972 202.509 121.972C202.509 121.972 203.241 122.459 203.728 123.191C204.46 123.922 204.947 124.41 204.947 124.653Z" fill="#473A60"/>
<path d="M209.335 122.703C209.092 122.703 209.335 121.971 209.335 121.24C209.579 120.509 209.823 119.777 209.823 119.777C210.067 119.777 209.823 120.509 209.823 121.24C209.579 122.215 209.335 122.703 209.335 122.703Z" fill="#473A60"/>
<path d="M210.554 136.355C210.311 136.355 209.823 135.624 209.092 134.405C208.36 133.186 208.116 132.211 208.116 132.211C208.36 132.211 208.848 132.942 209.579 134.161C210.311 135.38 210.798 136.355 210.554 136.355Z" fill="#473A60"/>
<path d="M218.599 134.891C218.355 134.891 218.599 134.16 218.843 133.429C219.087 132.697 219.331 131.966 219.574 131.966C219.818 131.966 219.574 132.697 219.331 133.429C219.087 134.16 218.843 134.891 218.599 134.891Z" fill="#473A60"/>
<path d="M210.067 149.032C210.067 149.032 209.336 148.544 208.604 147.813C207.873 147.082 207.385 146.35 207.385 146.106C207.385 146.106 208.117 146.594 208.848 147.325C209.579 148.057 210.067 148.788 210.067 149.032Z" fill="#473A60"/>
<path d="M214.455 129.041C214.211 129.041 214.455 128.31 214.699 127.578C214.943 126.847 215.187 126.116 215.43 126.359C215.674 126.359 215.43 127.091 215.187 127.822C214.943 128.553 214.699 129.041 214.455 129.041Z" fill="#473A60"/>
<path d="M215.673 145.131C215.673 145.131 214.942 144.644 214.211 143.668C213.479 142.693 213.236 141.962 213.236 141.962C213.236 141.962 213.967 142.449 214.698 143.425C215.43 144.4 215.917 145.131 215.673 145.131Z" fill="#473A60"/>
<path d="M226.156 140.012C226.156 140.012 225.913 140.743 225.425 141.718C224.938 142.45 224.45 143.181 224.45 142.937C224.45 142.937 224.694 142.206 225.181 141.231C225.425 140.499 225.913 140.012 226.156 140.012Z" fill="#473A60"/>
<path d="M227.376 125.871C227.376 125.871 227.132 126.359 226.401 127.09C225.913 127.578 225.182 127.822 225.182 127.822C225.182 127.822 225.425 127.334 226.157 126.603C226.644 126.115 227.132 125.628 227.376 125.871Z" fill="#473A60"/>
<path d="M234.445 120.02C234.445 120.02 233.714 119.777 232.983 119.533C232.251 119.045 231.764 118.558 232.008 118.558C232.008 118.558 232.739 118.801 233.47 119.045C233.958 119.533 234.445 120.02 234.445 120.02Z" fill="#473A60"/>
<path d="M229.814 154.151C229.57 154.151 229.814 153.664 230.058 152.932C230.302 152.445 230.545 151.957 230.789 151.957C231.033 151.957 230.789 152.445 230.545 153.176C230.302 153.907 229.814 154.151 229.814 154.151Z" fill="#473A60"/>
<path d="M223.719 155.859C223.719 155.859 222.988 155.128 222.5 154.152C222.013 153.177 221.525 152.446 221.769 152.202C221.769 152.202 222.5 152.934 222.988 153.909C223.475 154.884 223.963 155.859 223.719 155.859Z" fill="#473A60"/>
<path d="M212.261 162.196C212.017 162.196 211.773 161.708 211.286 160.733C210.798 159.758 210.554 159.026 210.798 159.026C211.042 159.026 211.286 159.514 211.773 160.489C212.017 161.22 212.505 161.952 212.261 162.196Z" fill="#473A60"/>
<path d="M216.161 153.664C216.405 153.664 216.161 154.395 215.674 155.371C215.186 156.102 214.942 156.833 214.699 156.833C214.455 156.833 214.699 156.102 215.186 155.127C215.674 154.395 216.161 153.664 216.161 153.664Z" fill="#473A60"/>
<path d="M210.067 173.166C210.067 173.166 209.336 172.922 208.848 172.191C208.36 171.703 207.873 170.972 208.117 170.972C208.117 170.972 208.848 171.215 209.336 171.947C209.823 172.434 210.067 172.922 210.067 173.166Z" fill="#473A60"/>
<path d="M219.087 168.533C219.087 168.533 218.843 169.265 218.112 169.996C217.38 170.727 216.893 171.215 216.649 171.215C216.649 171.215 216.893 170.483 217.624 169.752C218.355 169.021 218.843 168.289 219.087 168.533Z" fill="#473A60"/>
<path d="M212.992 168.047C212.992 168.047 212.261 167.559 211.773 167.072C211.285 166.34 210.798 165.853 211.042 165.609C211.285 165.365 211.773 166.097 212.261 166.584C212.748 167.315 213.236 167.803 212.992 168.047Z" fill="#473A60"/>
<path d="M215.186 179.992C214.942 179.992 214.699 179.748 214.455 179.017C214.211 178.529 213.967 178.042 214.211 177.798C214.455 177.554 214.699 178.042 214.942 178.773C215.186 179.504 215.43 179.992 215.186 179.992Z" fill="#473A60"/>
<path d="M210.066 183.407C210.066 183.651 209.335 183.651 208.604 184.139C207.872 184.626 207.141 184.87 207.141 184.87C207.141 184.87 207.628 184.139 208.36 183.651C209.335 183.163 210.066 183.163 210.066 183.407Z" fill="#473A60"/>
<path d="M231.033 175.604C231.033 175.604 229.814 175.116 228.838 173.653C227.863 172.434 227.62 171.215 227.863 170.972C228.107 170.972 228.351 171.947 229.326 173.166C230.057 174.872 231.033 175.604 231.033 175.604Z" fill="#473A60"/>
<path d="M236.64 179.504C236.64 179.504 237.127 178.529 237.859 177.554C238.59 176.579 239.321 175.848 239.565 175.848C239.565 175.848 239.078 176.823 238.346 177.798C237.615 179.017 236.883 179.748 236.64 179.504Z" fill="#473A60"/>
<path d="M225.425 179.505C225.425 179.505 224.694 179.017 223.719 178.286C222.744 177.555 222.012 177.067 222.012 176.823C222.012 176.823 222.987 177.067 223.963 177.798C224.938 178.53 225.425 179.261 225.425 179.505Z" fill="#473A60"/>
<path d="M226.645 183.405C226.645 183.648 225.182 183.648 223.232 183.892C221.281 183.892 219.818 183.892 219.575 183.892C219.575 183.648 221.037 183.648 222.988 183.405C225.182 183.161 226.645 183.161 226.645 183.405Z" fill="#473A60"/>
<path d="M234.689 169.021C234.445 169.021 234.933 168.046 235.42 166.827C235.908 165.608 236.639 164.877 236.639 164.877C236.883 164.877 236.396 165.852 235.908 167.071C235.42 168.29 234.933 169.021 234.689 169.021Z" fill="#473A60"/>
<path d="M227.375 162.197C227.375 162.441 225.913 161.953 224.45 161.465C222.987 160.978 221.524 160.49 221.768 160.246C222.012 160.003 223.231 160.49 224.694 160.978C226.156 161.465 227.375 162.197 227.375 162.197Z" fill="#473A60"/>
<path d="M233.958 138.306C233.714 138.306 233.958 137.331 234.446 136.112C234.933 134.893 235.421 133.918 235.421 133.918C235.665 133.918 235.421 134.893 234.933 136.112C234.69 137.331 234.202 138.306 233.958 138.306Z" fill="#473A60"/>
<path d="M243.222 135.38C243.222 135.38 242.491 134.892 242.003 134.161C241.272 133.43 241.028 132.698 241.028 132.698C241.028 132.698 241.759 133.186 242.247 133.917C242.978 134.649 243.222 135.38 243.222 135.38Z" fill="#473A60"/>
<path d="M241.028 142.449C241.028 142.449 240.296 141.961 239.321 140.986C238.59 140.254 238.102 139.279 238.102 139.279C238.102 139.279 238.834 139.767 239.809 140.742C240.54 141.717 241.028 142.449 241.028 142.449Z" fill="#473A60"/>
<path d="M246.391 147.568C246.147 147.568 246.391 146.837 246.635 145.862C246.878 144.887 247.122 144.155 247.366 144.155C247.61 144.155 247.366 144.887 247.122 145.862C246.878 146.837 246.391 147.812 246.391 147.568Z" fill="#473A60"/>
<path d="M240.052 152.931C240.052 152.931 239.321 152.688 238.59 151.956C237.858 151.469 237.371 150.737 237.371 150.737C237.371 150.737 238.102 150.981 238.834 151.712C239.809 152.2 240.296 152.688 240.052 152.931Z" fill="#473A60"/>
<path d="M249.561 159.27C249.317 159.27 249.073 158.539 248.585 157.564C248.098 156.588 247.854 155.613 248.098 155.613C248.342 155.613 248.585 156.345 249.073 157.32C249.317 158.295 249.561 159.27 249.561 159.27Z" fill="#473A60"/>
<path d="M246.391 163.901C246.391 163.901 245.66 163.414 244.928 162.682C244.197 161.951 243.709 161.22 243.709 161.22C243.709 161.22 244.441 161.707 245.172 162.439C245.903 163.17 246.391 163.901 246.391 163.901Z" fill="#473A60"/>
<path d="M252.486 168.779C252.486 168.779 251.998 169.267 251.51 169.754C250.779 170.242 250.292 170.486 250.292 170.486C250.292 170.486 250.779 169.998 251.267 169.511C251.754 169.023 252.242 168.779 252.486 168.779Z" fill="#473A60"/>
<path d="M245.172 175.606C244.928 175.606 244.441 174.875 243.953 173.9C243.465 172.924 242.978 171.949 243.222 171.949C243.465 171.949 243.953 172.681 244.441 173.656C244.928 174.631 245.172 175.362 245.172 175.606Z" fill="#473A60"/>
<path d="M252.486 181.454C252.486 181.454 251.754 180.479 251.267 179.017C250.779 177.554 251.023 176.335 251.023 176.335C251.267 176.335 251.267 177.554 251.754 179.017C252.242 180.479 252.486 181.454 252.486 181.454Z" fill="#473A60"/>
<path d="M248.585 185.112C248.585 185.112 248.098 185.844 247.122 186.575C246.147 187.063 245.172 187.306 245.172 187.063C245.172 186.819 245.903 186.575 246.879 186.087C247.61 185.6 248.341 185.112 248.585 185.112Z" fill="#473A60"/>
<path d="M242.734 183.893C242.491 183.893 242.491 183.406 242.247 182.918C242.003 182.187 242.003 181.699 242.247 181.699C242.491 181.699 242.491 182.187 242.734 182.674C242.978 183.406 242.978 183.893 242.734 183.893Z" fill="#473A60"/>
<path d="M242.246 198.764C242.003 198.764 241.759 198.277 241.759 197.302C241.515 196.57 241.515 195.839 241.759 195.839C242.003 195.839 242.246 196.326 242.246 197.302C242.246 198.033 242.49 198.764 242.246 198.764Z" fill="#473A60"/>
<path d="M248.585 197.788C248.341 197.788 248.097 197.057 247.61 195.838C247.366 194.863 247.122 193.888 247.122 193.888C247.366 193.888 247.61 194.619 248.097 195.838C248.585 196.813 248.829 197.788 248.585 197.788Z" fill="#473A60"/>
<path d="M242.978 206.566C242.978 206.81 241.759 206.566 240.54 206.566C239.321 206.566 238.102 206.566 238.102 206.322C238.102 206.079 239.077 205.835 240.54 206.079C241.759 206.079 242.978 206.566 242.978 206.566Z" fill="#473A60"/>
<path d="M246.391 207.784C246.147 207.784 246.147 207.052 246.147 206.321C246.147 205.346 246.391 204.858 246.391 204.858C246.635 204.858 246.635 205.59 246.635 206.321C246.635 207.052 246.391 207.784 246.391 207.784Z" fill="#473A60"/>
<path d="M239.565 213.635C239.565 213.879 238.833 213.635 237.614 213.635C236.639 213.391 235.908 213.147 235.908 213.147C235.908 212.904 236.639 213.147 237.858 213.147C238.59 213.391 239.565 213.635 239.565 213.635Z" fill="#473A60"/>
<path d="M244.684 216.806C244.684 216.806 244.197 217.781 243.222 218.756C242.247 219.731 241.515 220.462 241.271 220.462C241.028 220.462 241.759 219.487 242.734 218.512C243.709 217.293 244.684 216.806 244.684 216.806Z" fill="#473A60"/>
<path d="M236.396 218.267C236.396 218.51 235.42 218.754 234.445 218.998C233.47 219.242 232.495 219.242 232.251 219.242C232.251 218.998 233.226 218.754 234.202 218.51C235.42 218.267 236.396 218.267 236.396 218.267Z" fill="#473A60"/>
<path d="M194.464 122.216C194.221 122.216 194.221 121.241 194.464 120.266C194.708 119.291 194.708 118.315 194.952 118.315C195.196 118.315 195.196 119.291 194.952 120.266C194.952 121.485 194.708 122.216 194.464 122.216Z" fill="#473A60"/>
<path d="M190.32 117.095C190.32 117.095 189.345 116.852 188.37 115.876C187.395 115.145 186.907 114.17 186.907 114.17C186.907 114.17 187.639 114.658 188.614 115.633C189.589 116.364 190.32 116.852 190.32 117.095Z" fill="#473A60"/>
<path d="M189.101 107.589C188.858 107.589 188.858 106.614 189.101 105.395C189.345 104.176 189.345 103.444 189.589 103.444C189.833 103.444 189.833 104.419 189.589 105.638C189.589 106.614 189.345 107.589 189.101 107.589Z" fill="#473A60"/>
<path d="M182.763 106.856C182.763 106.856 182.031 106.612 181.056 106.124C180.081 105.637 179.35 105.393 179.35 105.393C179.35 105.149 180.325 105.393 181.056 105.637C182.275 106.124 182.763 106.856 182.763 106.856Z" fill="#473A60"/>
<path d="M197.878 104.418C197.634 104.418 197.634 103.931 197.634 103.199C197.634 102.468 197.634 101.98 197.878 101.98C198.121 101.98 198.121 102.468 198.121 103.199C198.121 103.687 197.878 104.418 197.878 104.418Z" fill="#473A60"/>
<path d="M203.972 107.344C203.972 107.344 203.24 107.1 202.509 106.613C201.778 106.125 201.046 105.881 201.046 105.638C201.046 105.394 201.778 105.638 202.753 106.125C203.484 106.613 203.972 107.344 203.972 107.344Z" fill="#473A60"/>
<path d="M183.982 98.3243C183.738 98.3243 183.738 97.3492 183.982 95.8865C184.225 94.6675 184.713 93.6924 184.957 93.6924C185.201 93.6924 184.713 94.6675 184.469 95.8865C184.225 97.3492 184.225 98.3243 183.982 98.3243Z" fill="#473A60"/>
<path d="M180.812 99.5428C180.812 99.7866 179.837 99.2991 178.862 98.8115C177.887 98.3239 176.912 97.8363 176.912 97.8363C176.912 97.5925 177.887 98.0801 178.862 98.5677C180.081 99.0553 180.812 99.5428 180.812 99.5428Z" fill="#473A60"/>
<path d="M169.842 95.6425C169.598 95.6425 169.842 94.9111 169.842 93.936C170.086 92.9609 170.33 92.2295 170.33 92.2295C170.573 92.2295 170.33 92.9609 170.33 93.936C170.33 94.9111 170.086 95.6425 169.842 95.6425Z" fill="#473A60"/>
<path d="M174.961 87.3525C174.961 87.5963 174.23 87.3525 173.498 87.1087C172.767 86.8649 172.036 86.6211 172.28 86.3773C172.28 86.1336 173.011 86.3773 173.742 86.6211C174.474 86.8649 175.205 87.1087 174.961 87.3525Z" fill="#473A60"/>
<path d="M164.479 86.8649C164.235 86.8649 164.479 85.646 164.967 83.9395C165.454 82.4768 165.942 81.2578 165.942 81.2578C166.185 81.2578 165.698 82.4767 165.454 84.1833C165.21 85.646 164.723 86.8649 164.479 86.8649Z" fill="#473A60"/>
<path d="M163.26 82.2354C163.26 82.2354 162.528 81.9917 161.553 81.5041C160.822 81.0165 160.09 80.5289 160.334 80.2852C160.334 80.2852 161.066 80.5289 162.041 81.0165C162.772 81.5041 163.26 81.9917 163.26 82.2354Z" fill="#473A60"/>
<path d="M164.966 74.6754C164.966 74.6754 164.235 73.944 163.504 72.9688C162.772 71.9937 162.529 71.0186 162.529 71.0186C162.529 71.0186 163.26 71.7499 163.991 72.7251C164.723 73.7002 164.966 74.4316 164.966 74.6754Z" fill="#473A60"/>
<path d="M156.921 75.6526C156.921 75.8964 155.703 75.4088 154.727 74.4337C153.752 73.4585 153.265 72.4834 153.265 72.4834C153.508 72.4834 153.996 73.2148 154.971 74.1899C156.19 74.9213 157.165 75.4088 156.921 75.6526Z" fill="#473A60"/>
<path d="M161.066 74.1902C161.066 74.1902 160.335 73.9464 159.603 73.215C158.872 72.4837 158.384 71.9961 158.628 71.9961C158.628 71.9961 159.359 72.2399 160.091 72.9712C160.578 73.4588 161.066 74.1902 161.066 74.1902Z" fill="#473A60"/>
<path d="M155.946 67.6064C155.702 67.6064 155.702 66.6312 156.19 65.6561C156.677 64.6809 157.408 64.1934 157.408 64.1934C157.408 64.1934 156.921 64.9247 156.677 65.8999C156.19 66.875 155.946 67.6064 155.946 67.6064Z" fill="#473A60"/>
<path d="M149.364 66.389C149.364 66.389 149.608 65.4138 150.339 64.6824C150.826 63.7073 151.558 63.2197 151.558 63.2197C151.558 63.2197 151.314 64.1949 150.583 64.9262C150.095 65.6576 149.608 66.389 149.364 66.389Z" fill="#473A60"/>
<path d="M149.364 64.4383C149.364 64.6821 148.632 64.4383 147.657 64.1945C146.682 63.7069 146.195 63.2194 146.195 62.9756C146.195 62.9756 146.926 63.2194 147.657 63.7069C148.632 63.9507 149.364 64.1945 149.364 64.4383Z" fill="#473A60"/>
<path d="M149.608 59.5614C149.364 59.5614 149.364 58.8301 149.608 57.8549C149.608 56.8798 149.852 56.1484 150.096 56.1484C150.339 56.1484 150.339 56.8798 150.096 57.8549C150.096 58.8301 149.852 59.5614 149.608 59.5614Z" fill="#473A60"/>
<path d="M53.3125 114.658C53.3125 114.658 53.8 114.658 54.5314 115.146C55.2628 115.633 56.4817 116.608 56.9693 118.315C57.7006 120.022 57.4568 122.216 56.2379 124.166C55.019 126.116 52.3373 127.335 49.6557 126.848C48.9243 126.604 48.193 126.36 47.4616 126.116H47.7054C45.9989 128.066 43.0734 127.823 41.6107 126.848C39.9042 125.872 38.9291 123.922 38.6853 122.703C38.4415 121.24 38.4415 120.022 38.6853 119.29C38.9291 118.559 38.9291 118.071 38.9291 118.071C39.1729 118.071 38.4415 119.778 38.9291 122.703C39.1729 124.166 40.148 125.629 41.8545 126.604C43.3172 127.579 45.9989 127.579 47.4616 125.872L47.7054 125.629H47.9492C48.4367 125.872 49.1681 126.116 49.8995 126.36C52.3373 126.848 54.7752 125.872 55.9941 123.922C57.213 122.216 57.4568 120.022 56.7255 118.559C56.2379 117.096 55.2628 116.121 54.5314 115.39C53.8 114.902 53.3125 114.902 53.3125 114.658Z" fill="#473A60"/>
<path d="M133.761 70.2893C133.761 70.2893 131.323 68.5828 128.642 66.1449C125.96 63.707 124.254 61.2692 124.497 61.0254C124.497 61.0254 126.448 63.2195 129.129 65.6573C131.811 68.339 134.005 70.2893 133.761 70.2893Z" fill="#473A60"/>
<path d="M133.274 64.9252C133.274 64.9252 133.274 65.4128 133.03 65.6566C132.787 65.9003 132.543 65.9003 132.543 65.9003C132.543 65.9003 132.543 65.4128 132.787 65.169C133.03 64.9252 133.274 64.6814 133.274 64.9252Z" fill="#473A60"/>
<path d="M45.7547 169.998C45.7547 169.998 45.5109 170.242 44.7796 170.729C43.8044 171.217 42.8293 171.705 41.8541 172.192C39.4163 173.411 35.7595 175.118 31.8589 176.824C27.9583 178.531 24.3015 179.993 21.6199 180.968C20.6447 181.456 19.4258 181.7 18.4506 182.187C17.2317 182.675 16.7441 182.919 16.7441 182.675C16.7441 182.675 17.2317 182.431 17.9631 182.187C18.9382 181.7 19.9134 181.212 21.1323 180.968C24.3015 179.75 27.7145 178.287 31.3713 176.58C35.0281 174.874 38.4411 173.411 41.6104 171.948C42.5855 171.461 43.8044 170.973 44.7796 170.486C45.2672 170.242 45.5109 169.998 45.7547 169.998Z" fill="#473A60"/>
<path d="M46.9739 185.844C46.7301 185.844 46.2425 182.188 45.9987 177.312C45.5112 172.68 45.2674 168.779 45.5112 168.779C45.755 168.779 46.2425 172.436 46.4863 177.312C46.7301 182.188 46.9739 185.844 46.9739 185.844Z" fill="#473A60"/>
<path d="M46.9732 185.844C46.9732 185.844 46.7294 186.088 46.2419 186.575C45.7543 187.063 45.0229 187.794 44.0478 188.525C42.3413 190.232 39.6596 192.182 36.7342 194.376C33.8088 196.57 31.1271 198.521 28.933 199.74L26.4952 201.202C26.0076 201.446 25.52 201.69 25.52 201.69C25.52 201.69 25.7638 201.446 26.2514 200.959L28.4455 199.252C30.8833 197.545 33.3212 195.595 36.0028 193.645C38.9283 191.451 41.6099 189.501 43.5602 188.038C45.7543 186.819 46.7294 185.844 46.9732 185.844Z" fill="#473A60"/>
<path d="M28.4458 150.495C28.4458 150.495 28.4458 150.983 28.4458 151.47C28.4458 152.445 28.4458 153.421 28.4458 154.396C28.4458 156.834 28.4458 160.247 28.4458 163.903C28.4458 167.56 28.6896 170.973 28.6896 173.411C28.6896 174.386 28.6896 175.361 28.9334 176.336C28.9334 177.068 28.9334 177.312 28.9334 177.312C28.9334 177.312 28.9334 176.824 28.6896 176.336C28.6896 175.605 28.4458 174.63 28.4458 173.411C28.202 170.973 27.9583 167.56 27.9583 163.903C27.9583 160.247 27.9583 156.834 27.9583 154.396C27.9583 153.177 27.9583 152.202 28.202 151.47C28.4458 150.983 28.4458 150.495 28.4458 150.495Z" fill="#473A60"/>
<defs>
<linearGradient id="paint0_linear" x1="216.755" y1="69.857" x2="229.397" y2="216.298" gradientUnits="userSpaceOnUse">
<stop stop-color="#E58F7E"/>
<stop offset="0.1391" stop-color="#E4857E"/>
<stop offset="0.6977" stop-color="#E0637F"/>
<stop offset="1" stop-color="#DE567F"/>
</linearGradient>
<linearGradient id="paint1_linear" x1="48.6514" y1="85.8138" x2="55.1147" y2="276.481" gradientUnits="userSpaceOnUse">
<stop offset="0.0500413" stop-color="#6BC1CD"/>
<stop offset="1" stop-color="#A8EBA4"/>
</linearGradient>
<linearGradient id="paint2_linear" x1="21.1572" y1="87.7891" x2="27.3915" y2="271.697" gradientUnits="userSpaceOnUse">
<stop offset="0.0500413" stop-color="#6BC1CD"/>
<stop offset="1" stop-color="#A8EBA4"/>
</linearGradient>
<linearGradient id="paint3_linear" x1="99.3638" y1="85.1395" x2="105.598" y2="269.046" gradientUnits="userSpaceOnUse">
<stop offset="0.0500413" stop-color="#6BC1CD"/>
<stop offset="1" stop-color="#A8EBA4"/>
</linearGradient>
<linearGradient id="paint4_linear" x1="176.819" y1="73.3034" x2="189.461" y2="219.744" gradientUnits="userSpaceOnUse">
<stop stop-color="#E58F7E"/>
<stop offset="0.1391" stop-color="#E4857E"/>
<stop offset="0.6977" stop-color="#E0637F"/>
<stop offset="1" stop-color="#DE567F"/>
</linearGradient>
<linearGradient id="paint5_linear" x1="232.436" y1="68.5036" x2="245.078" y2="214.941" gradientUnits="userSpaceOnUse">
<stop stop-color="#E58F7E"/>
<stop offset="0.1391" stop-color="#E4857E"/>
<stop offset="0.6977" stop-color="#E0637F"/>
<stop offset="1" stop-color="#DE567F"/>
</linearGradient>
</defs>
</svg>
