<svg width="326" height="271" viewBox="0 0 326 271" fill="none" xmlns="http://www.w3.org/2000/svg">
<path d="M139.376 61.0522C138.834 54.0098 138.292 46.9674 137.751 39.925C132.333 38.2998 129.354 31.2574 131.521 25.8402C133.688 20.423 139.918 17.4435 145.606 18.2561C142.085 15.8183 142.355 9.85934 145.335 6.87985C148.314 3.62951 152.919 2.54606 157.253 2.54606C161.587 2.2752 165.92 2.81692 170.254 2.00434C174.046 1.19175 177.838 -0.433419 181.63 0.108305C185.422 0.650029 189.214 4.98382 187.048 8.23416C192.465 7.42158 198.424 6.60899 203.57 9.31761C208.446 12.0262 210.883 19.6104 206.821 23.1316C209.529 24.4859 210.342 28.5488 208.717 31.2574C207.091 33.966 203.841 35.3204 200.862 35.5912C197.611 35.8621 194.632 35.0495 191.652 34.2369" fill="#251A51"/>
<path d="M321.396 221.403C321.396 221.403 2.59098 228.717 0.694946 229.8C0.694946 229.8 27.2394 272.596 108.227 270.429C189.215 267.992 324.917 264.2 321.396 221.403Z" fill="#EDE6F5"/>
<path d="M149.669 77.3036C140.73 80.5539 143.71 70.2612 143.439 65.9274C143.168 61.5936 143.439 56.989 141.543 52.926C140.189 49.6757 137.48 46.9671 137.48 43.4459C137.48 40.7372 139.105 38.5703 139.647 35.8617C140.46 32.3405 139.647 28.5485 140.189 25.0272C141.272 18.2557 148.585 12.8385 155.357 13.651C158.878 14.1928 162.129 15.8179 165.65 15.2762C169.442 14.7345 172.421 11.755 175.672 9.58812C180.276 6.8795 186.235 6.33778 191.111 8.77553C195.986 11.2133 199.237 16.6305 198.424 22.0478C197.882 27.465 193.278 32.0697 187.86 32.3405C184.61 32.6114 181.631 31.2571 178.651 30.4445C175.672 29.6319 172.15 29.361 169.442 31.2571C166.191 33.424 164.837 38.5703 160.774 39.1121C158.607 39.3829 156.711 38.0286 154.815 37.216C152.919 36.4034 150.211 36.1326 149.127 38.0286C148.315 39.3829 148.856 41.279 149.127 43.175C149.398 46.4253 148.856 49.4048 145.877 50.7591C144.793 59.4267 147.231 67.8234 149.94 75.9493" fill="#251A51"/>
<path d="M75.4529 227.903L51.3462 92.2012H129.354L158.337 225.465L75.4529 227.903Z" fill="#B8ABD6"/>
<path d="M81.6822 227.903L55.9503 92.2012H133.959L162.941 225.465L81.6822 227.903Z" fill="#DDD2F3"/>
<path opacity="0.44" d="M134.771 92.2012C134.771 92.2012 107.685 104.119 100.372 116.85C93.8712 127.955 62.722 192.691 74.0982 201.9C85.7453 211.11 162.67 208.13 162.67 208.13L167.546 187.545L107.143 177.252L144.251 144.748L134.771 92.2012Z" fill="#B8ABD6"/>
<path d="M202.487 125.247C201.945 123.892 198.966 95.1809 168.9 95.9935C140.46 96.5352 124.75 98.4312 114.728 120.371L125.292 162.084L127.458 226.549L209.259 223.84L202.487 125.247Z" fill="#6338A1"/>
<path d="M126.917 104.39C126.917 104.39 115.27 110.619 107.686 123.35C101.185 134.455 70.036 199.191 81.4122 208.401C93.0593 217.61 169.984 214.63 169.984 214.63L174.86 194.045L114.457 183.752L125.021 162.354L126.917 104.39Z" fill="#6338A1"/>
<path d="M187.59 100.598C187.59 100.598 216.572 120.1 246.638 170.48L234.449 200.275L202.487 159.916L187.59 100.598Z" fill="#6338A1"/>
<path d="M156.712 230.07H222.802L226.052 224.382L156.712 226.549V230.07Z" fill="#B8ABD6"/>
<path d="M173.776 201.09H200.862C200.862 201.09 217.385 215.987 214.676 216.529C211.697 217.342 201.675 207.32 201.675 207.32L209.53 224.384C209.53 224.384 197.612 222.759 193.82 219.508C190.028 216.258 186.236 213.82 186.236 213.82L170.796 215.175L173.776 201.09Z" fill="#F9C8C7"/>
<path d="M126.375 104.931C126.375 104.931 126.645 104.931 127.187 104.931C127.458 104.931 127.729 104.931 128 104.931C128.271 104.931 128.812 104.931 129.083 104.931C130.979 105.202 133.417 106.014 135.855 108.181C136.938 109.265 138.292 110.619 139.105 112.515C139.918 114.14 140.459 116.307 140.73 118.474C141.272 122.808 140.459 127.413 139.105 132.288C136.396 141.768 132.604 149.894 129.354 155.582C127.729 158.291 126.375 160.729 125.291 162.083C124.749 162.895 124.478 163.437 124.208 163.708C123.937 163.979 123.666 164.25 123.666 164.25C123.666 164.25 123.666 163.979 123.937 163.708C124.208 163.166 124.478 162.625 125.02 162.083C126.104 160.458 127.187 158.291 128.812 155.582C131.792 149.894 135.584 141.768 138.292 132.288C139.647 127.683 140.459 122.808 139.918 118.745C139.376 114.411 137.48 111.161 135.042 108.994C132.604 106.827 130.167 105.744 128.541 105.473C127.458 104.66 126.375 104.931 126.375 104.931Z" fill="#452775"/>
<path d="M198.424 121.724C198.424 121.724 198.424 121.994 198.424 122.265C198.424 122.807 198.695 123.349 198.695 123.891C198.966 125.516 199.237 127.412 199.778 129.849C200.591 134.996 201.674 142.038 203.029 149.893C204.112 157.748 205.195 164.791 205.737 169.937C206.008 172.646 206.279 174.542 206.279 176.167C206.279 176.979 206.279 177.521 206.279 177.792C206.279 178.063 206.279 178.334 206.279 178.334C206.279 178.334 206.279 178.063 206.279 177.792C206.279 177.25 206.279 176.709 206.008 176.167C205.737 174.813 205.737 172.646 205.195 169.937C204.654 164.791 203.57 157.748 202.216 149.893C201.133 142.038 199.778 134.996 199.237 129.849C198.966 127.141 198.695 125.245 198.424 123.62C198.424 122.807 198.424 122.265 198.153 121.994C198.424 121.994 198.424 121.724 198.424 121.724Z" fill="#452775"/>
<path opacity="0.14" d="M120.145 243.341C120.145 244.696 113.373 246.05 104.976 246.05C96.5798 246.05 89.8082 244.967 89.8082 243.341C89.8082 241.987 96.5798 240.633 104.976 240.633C113.373 240.633 120.145 241.987 120.145 243.341Z" fill="#B8ABD6"/>
<path d="M110.665 215.714C110.665 215.714 97.6633 210.838 85.4745 215.714V218.422C85.4745 218.422 81.1407 218.152 81.1407 222.214C81.1407 226.548 82.4951 231.965 88.1832 234.403L90.6209 242.258C90.6209 242.258 101.185 244.967 106.602 242.258C106.602 242.258 107.956 238.195 108.769 233.862C109.581 230.882 110.665 215.714 110.665 215.714ZM83.0368 223.84C82.7659 220.318 85.7454 221.402 85.7454 221.402L87.3706 231.424C87.3706 231.695 83.5785 230.611 83.0368 223.84Z" fill="#FAC28C"/>
<path d="M108.769 215.983C108.769 215.983 97.3924 213.275 87.0996 215.983C87.3705 215.983 97.6632 224.651 108.769 215.983Z" fill="#DB9D6A"/>
<path d="M109.852 227.63C109.852 227.63 109.581 227.901 109.04 228.172C108.498 228.442 107.685 228.713 106.602 228.984C104.435 229.526 101.726 230.339 98.2052 230.339C94.9548 230.339 91.9753 230.068 89.8085 229.526C88.725 229.255 87.9124 228.984 87.3707 228.713C86.829 228.442 86.5581 228.442 86.5581 228.442C86.5581 228.442 87.9124 228.713 90.0793 229.255C92.2462 229.797 95.2257 230.068 98.476 229.797C101.726 229.797 104.706 229.255 106.602 228.713C108.769 228.172 109.852 227.63 109.852 227.63Z" fill="#B28560"/>
<path d="M109.31 225.193C109.31 225.193 109.039 225.464 108.498 225.735C107.956 226.006 107.143 226.277 106.06 226.819C104.164 227.631 101.184 228.173 97.9341 228.444C94.6837 228.444 91.7042 228.173 89.5373 227.631C88.4539 227.36 87.6413 227.089 87.0996 226.819C86.5578 226.548 86.287 226.548 86.287 226.548C86.287 226.548 87.6413 226.819 89.5373 227.36C91.7042 227.902 94.4128 228.173 97.6632 228.173C100.914 228.173 103.622 227.36 105.789 226.819C108.227 225.735 109.31 225.193 109.31 225.193Z" fill="#B28560"/>
<g opacity="0.07">
<path opacity="0.07" d="M87.6412 215.984C86.5578 214.9 87.0995 213.004 88.183 211.921C89.2664 210.837 90.8916 210.566 92.2459 209.754C93.6002 209.212 94.9545 208.129 95.2254 206.503C95.7671 203.795 91.975 201.086 93.0585 198.377C93.8711 195.94 97.934 195.94 99.5592 193.773C101.184 191.335 99.0174 187.814 100.101 185.105C100.913 183.209 103.08 182.126 104.976 182.397C106.872 182.668 108.768 184.022 109.852 185.647C110.935 187.272 111.748 189.168 112.29 191.335C113.102 193.773 113.644 196.752 112.561 198.919C112.019 200.003 110.664 201.357 111.206 202.44C111.477 203.253 112.29 203.524 112.831 204.066C114.186 205.42 114.186 207.858 113.373 209.754C111.477 215.713 106.331 219.505 100.913 220.046C95.4962 220.588 89.8081 217.88 87.0995 213.275" fill="#F9FAFD"/>
</g>
<path d="M192.465 126.602C192.465 126.602 191.653 127.956 190.569 129.581C189.486 131.206 188.402 132.29 188.402 132.29C188.402 132.29 189.215 130.935 190.298 129.31C191.382 127.685 192.194 126.602 192.465 126.602Z" fill="#A869C5"/>
<path d="M149.669 96.8064C149.669 96.8064 166.463 140.144 178.11 154.771C178.11 154.771 182.985 112.245 178.11 96.8064C178.11 96.5355 155.628 94.0977 149.669 96.8064Z" fill="#F9FAFD"/>
<path d="M146.96 26.6527L145.877 52.3846C145.877 52.3846 138.022 52.3846 138.022 59.427C138.022 68.6363 146.689 67.0111 146.689 67.0111C146.689 67.0111 144.793 84.3463 168.629 85.7006C196.528 87.3258 190.569 43.9879 189.485 23.4023L146.96 26.6527Z" fill="#F9C8C7"/>
<path d="M178.109 65.6582L176.755 96.8073C176.484 105.475 167.004 111.163 159.149 107.1C159.149 107.1 158.878 107.1 158.878 106.829C154.544 104.662 152.106 100.329 152.106 95.7239C152.377 84.6185 152.648 65.6582 152.648 65.6582H178.109Z" fill="#F9C8C7"/>
<path d="M178.109 154.77C178.109 154.77 177.839 154.499 177.568 154.228C177.297 153.957 176.755 153.416 175.943 152.874C174.588 151.52 172.692 149.624 170.525 147.457C168.358 145.019 165.65 142.31 162.399 139.331C160.774 137.977 159.149 136.351 157.524 134.455C155.899 132.559 154.815 130.392 154.274 127.955C154.003 126.059 154.274 123.892 155.086 122.267L155.357 122.537C154.544 123.35 153.19 123.35 152.107 123.079C151.023 122.808 150.211 121.996 149.669 121.183C148.586 119.287 148.315 117.391 148.315 115.495C148.044 111.974 148.044 108.724 147.773 106.015C147.773 103.306 147.502 101.139 147.502 99.7851C147.502 98.9725 147.502 98.4308 147.502 98.1599C147.502 97.889 147.502 97.6182 147.502 97.6182C147.502 97.6182 147.502 97.889 147.502 98.1599C147.502 98.7016 147.502 99.2433 147.773 99.7851C147.773 101.41 148.044 103.577 148.315 106.015C148.586 108.724 148.586 111.974 148.856 115.495C148.856 117.391 149.127 119.287 150.211 120.912C150.752 121.725 151.565 122.267 152.378 122.537C153.19 122.808 154.274 122.808 155.086 121.996L156.17 121.183L155.628 122.267C154.815 123.892 154.544 125.788 154.815 127.684C155.357 130.122 156.441 132.288 158.066 133.914C159.42 135.81 161.316 137.164 162.67 138.789C165.65 141.769 168.358 144.748 170.796 146.915C172.963 149.353 174.859 151.249 176.213 152.603C176.755 153.145 177.297 153.687 177.568 154.228C177.839 154.499 178.109 154.77 178.109 154.77Z" fill="#452775"/>
<path d="M178.109 96.5339C178.109 96.5339 178.109 96.5339 178.38 96.8048C178.651 97.0756 178.922 97.3465 179.463 97.6174C180.276 98.4299 181.36 99.7843 182.714 101.409C183.256 102.222 183.797 103.305 184.339 104.389C184.881 105.472 185.422 106.827 185.693 108.181C185.964 109.535 186.235 111.16 185.964 112.786C185.693 114.411 184.881 116.036 183.797 117.119V116.849C184.61 117.661 185.152 119.015 185.422 120.099C185.693 121.453 185.693 122.808 185.693 123.891C185.422 126.058 185.152 128.225 184.61 130.121C184.339 132.017 183.797 133.913 183.526 135.809C182.714 139.33 181.901 142.58 181.36 145.56C180.547 148.269 180.005 150.435 179.734 152.061C179.463 152.873 179.463 153.415 179.193 153.686C179.193 153.957 178.922 154.228 178.922 154.228C178.922 154.228 178.922 153.957 178.922 153.686C178.922 153.144 179.193 152.602 179.463 152.061C179.734 150.435 180.276 148.269 181.089 145.56C181.63 142.851 182.443 139.601 183.256 135.809C183.526 133.913 184.068 132.017 184.339 130.121C184.61 128.225 185.152 126.058 185.422 123.891C185.422 122.537 185.422 121.453 185.422 120.099C185.152 119.015 184.61 117.932 183.797 116.849L183.526 116.578L183.797 116.307C184.881 115.223 185.693 113.598 185.964 111.973C186.235 110.348 186.235 108.994 185.964 107.639C185.693 106.285 185.152 104.931 184.61 103.847C184.068 102.764 183.526 101.68 182.985 100.868C181.901 99.2425 180.818 97.8882 180.005 97.0756C179.734 96.8048 179.463 96.263 179.193 95.9922C178.109 96.8048 177.838 96.5339 178.109 96.5339Z" fill="#452775"/>
<path d="M180.818 201.088C180.818 201.088 180.006 190.795 178.922 178.065C178.109 165.334 177.568 154.771 177.568 154.771C177.568 154.771 178.38 165.063 179.464 177.794C180.276 190.795 180.818 201.088 180.818 201.088Z" fill="#452775"/>
<path d="M184.881 167.229C184.881 167.229 185.152 167.229 185.423 167.229C185.694 167.229 186.506 167.5 187.048 168.041C187.59 168.583 187.861 169.667 187.59 170.479C187.319 171.563 186.236 172.375 184.881 172.104C183.527 172.104 182.714 171.021 182.443 170.208C182.173 169.125 182.443 168.312 182.714 167.771C183.256 167.229 183.798 166.958 184.34 166.958C184.881 166.958 184.881 166.958 184.881 166.958C184.881 166.958 184.61 166.958 184.34 166.958C184.069 166.958 183.527 167.229 182.985 167.771C182.714 168.312 182.443 169.125 182.714 169.937C182.985 170.75 183.798 171.563 184.61 171.563C185.694 171.563 186.506 171.021 186.777 170.208C187.048 169.396 186.777 168.583 186.506 168.041C185.965 167.5 185.423 167.229 185.152 167.229H184.881Z" fill="#452775"/>
<path d="M186.506 185.648C186.506 185.648 186.777 185.648 187.048 185.648C187.319 185.648 188.132 185.919 188.673 186.46C189.215 187.002 189.486 188.086 189.215 188.898C188.944 189.982 187.861 190.794 186.506 190.523C185.152 190.523 184.339 189.44 184.069 188.627C183.798 187.544 184.069 186.731 184.339 186.19C184.881 185.648 185.423 185.377 185.965 185.377C186.506 185.377 186.506 185.377 186.506 185.377C186.506 185.377 186.236 185.377 185.965 185.377C185.694 185.377 185.152 185.648 184.61 186.19C184.339 186.731 184.069 187.544 184.339 188.356C184.61 189.169 185.423 189.982 186.236 189.982C187.319 189.982 188.132 189.44 188.402 188.627C188.673 187.815 188.402 187.002 188.132 186.46C187.59 185.919 187.048 185.648 186.777 185.648C186.506 185.648 186.506 185.648 186.506 185.648Z" fill="#452775"/>
<path d="M184.61 168.855V169.125C184.61 169.125 184.34 169.396 184.34 169.125C184.34 169.125 184.069 168.855 184.34 168.855C184.34 168.584 184.34 168.584 184.61 168.855Z" fill="#452775"/>
<path d="M185.964 169.667C185.964 169.667 186.235 169.938 185.964 169.938C185.964 169.938 185.694 170.209 185.694 169.938C185.694 169.938 185.423 169.667 185.694 169.667C185.964 169.667 185.694 169.667 185.964 169.667Z" fill="#452775"/>
<path d="M185.964 187.003V187.274C185.964 187.545 185.694 187.545 185.694 187.274V187.003C185.694 187.003 185.694 187.003 185.964 187.003Z" fill="#452775"/>
<path d="M187.319 188.357C187.319 188.357 187.319 188.628 187.319 188.899C187.048 189.17 187.048 189.17 186.777 188.899C186.777 188.899 186.777 188.628 186.777 188.357C187.048 188.357 187.319 188.357 187.319 188.357Z" fill="#452775"/>
<path d="M174.588 194.857C174.588 194.857 173.776 200.275 172.422 206.775C171.067 213.276 169.984 218.693 169.984 218.693C169.984 218.693 170.796 213.276 172.151 206.775C173.234 200.004 174.318 194.857 174.588 194.857Z" fill="#452775"/>
<path d="M164.566 193.232C164.566 193.232 163.754 198.379 162.399 204.879C161.045 211.38 159.691 216.527 159.691 216.527C159.691 216.527 160.503 211.38 161.858 204.879C163.212 198.65 164.295 193.232 164.566 193.232Z" fill="#452775"/>
<path d="M175.401 194.859C175.401 194.859 164.566 192.963 151.023 190.525C137.48 187.816 126.646 185.649 126.646 185.649C126.646 185.649 137.48 187.545 151.023 189.983C164.566 192.692 175.401 194.859 175.401 194.859Z" fill="#452775"/>
<path d="M169.983 218.152C169.983 218.152 160.503 217.61 148.856 216.797C137.209 215.985 127.729 214.901 127.729 214.901C127.729 214.901 137.209 215.443 148.856 216.256C160.503 217.339 169.983 218.152 169.983 218.152Z" fill="#452775"/>
<path d="M182.173 224.651C182.173 224.651 181.36 222.484 181.36 219.505C181.089 216.525 181.36 214.358 181.631 214.358C181.902 214.358 181.631 216.796 181.902 219.505C181.902 222.484 182.443 224.651 182.173 224.651Z" fill="#452775"/>
<path d="M198.965 141.499C198.965 141.499 195.986 142.041 192.465 142.312C188.944 142.582 185.964 142.582 185.964 142.582C185.964 142.582 188.944 142.041 192.465 141.77C195.986 141.499 198.965 141.499 198.965 141.499Z" fill="#452775"/>
<path d="M239.324 189.439C239.324 189.439 230.928 179.688 220.906 167.229C210.884 154.769 202.758 144.747 202.758 144.747C202.758 144.747 211.155 154.498 221.177 166.958C231.198 179.417 239.324 189.439 239.324 189.439Z" fill="#452775"/>
<path d="M133.418 186.732C133.418 186.732 132.605 179.148 132.063 169.668C131.251 160.188 130.98 152.604 130.98 152.604C130.98 152.604 131.792 160.188 132.334 169.668C133.147 179.148 133.418 186.732 133.418 186.732Z" fill="#452775"/>
<path d="M137.21 226.277C137.21 226.277 136.126 224.111 135.584 221.131C135.043 218.152 135.584 215.714 135.584 215.714C135.855 215.714 135.584 218.152 135.855 221.131C136.668 223.84 137.48 226.277 137.21 226.277Z" fill="#452775"/>
<path d="M194.903 138.249C194.903 138.249 194.091 137.707 193.278 136.624C192.465 135.811 191.924 134.998 192.195 134.728C192.195 134.728 193.007 135.269 193.82 136.353C194.362 137.165 194.903 137.978 194.903 138.249Z" fill="#A869C5"/>
<path d="M151.294 153.958C151.294 153.958 150.752 155.041 149.94 156.396C149.127 157.479 148.315 158.563 148.315 158.563C148.315 158.563 148.856 157.479 149.669 156.125C150.482 154.771 151.294 153.958 151.294 153.958Z" fill="#A869C5"/>
<path d="M139.918 163.167C139.918 163.167 138.834 162.354 137.48 161.271C136.126 160.187 135.313 159.104 135.313 158.833C135.313 158.833 136.396 159.646 137.751 160.729C139.105 162.083 139.918 163.167 139.918 163.167Z" fill="#A869C5"/>
<path d="M142.085 151.248C142.085 151.248 141.272 150.435 140.731 148.81C140.189 147.185 140.46 146.102 140.46 146.102C140.731 146.102 140.731 147.456 141.272 148.81C141.543 150.164 142.356 151.248 142.085 151.248Z" fill="#A869C5"/>
<path d="M148.314 140.955C148.314 140.955 147.231 140.684 145.876 139.872C144.793 139.059 143.98 137.976 143.98 137.976C143.98 137.976 144.793 138.788 146.147 139.601C147.231 140.413 148.314 140.955 148.314 140.955Z" fill="#A869C5"/>
<path d="M165.65 151.519C165.65 151.519 165.379 152.602 164.566 153.685C164.024 154.769 163.212 155.581 163.212 155.581C163.212 155.581 163.483 154.498 164.295 153.415C164.837 152.331 165.65 151.519 165.65 151.519Z" fill="#A869C5"/>
<path d="M158.878 147.997C158.878 147.997 158.336 146.643 158.336 145.018C158.336 143.392 158.336 142.038 158.607 142.038C158.607 142.038 158.878 143.392 158.878 145.018C158.878 146.643 158.878 147.997 158.878 147.997Z" fill="#A869C5"/>
<path d="M158.878 168.582C158.878 168.582 158.066 167.228 157.795 165.603C157.524 163.707 157.795 162.353 158.066 162.353C158.336 162.353 158.066 163.707 158.336 165.603C158.607 167.228 158.878 168.582 158.878 168.582Z" fill="#A869C5"/>
<path d="M152.107 173.73C152.107 173.73 151.024 172.917 149.94 171.563C148.857 170.209 148.586 168.854 148.586 168.854C148.586 168.854 149.398 169.938 150.211 171.292C151.294 172.647 152.107 173.73 152.107 173.73Z" fill="#A869C5"/>
<path d="M142.627 176.71C142.627 176.71 141.814 177.523 141.002 178.335C139.918 179.148 139.106 179.689 139.106 179.419C139.106 179.419 139.918 178.606 140.731 177.793C141.543 177.252 142.356 176.71 142.627 176.71Z" fill="#A869C5"/>
<path d="M136.667 171.834C136.667 171.834 135.855 171.563 135.313 170.75C134.771 169.938 134.5 169.125 134.771 169.125C134.771 169.125 135.313 169.667 135.584 170.479C136.396 171.292 136.938 171.834 136.667 171.834Z" fill="#A869C5"/>
<path d="M151.565 184.295C151.565 184.295 151.565 185.378 151.023 186.733C150.752 188.087 150.211 189.17 150.211 188.9C150.211 188.9 150.211 187.816 150.752 186.462C151.023 185.378 151.565 184.295 151.565 184.295Z" fill="#A869C5"/>
<path d="M161.045 187.003C161.045 187.003 159.962 186.191 159.42 184.837C158.608 183.482 158.608 182.128 158.608 182.128C158.608 182.128 159.149 183.211 159.691 184.566C160.233 185.92 161.045 186.733 161.045 187.003Z" fill="#A869C5"/>
<path d="M172.692 187.001C172.692 187.001 171.609 186.459 170.255 185.647C168.9 184.834 168.088 184.021 168.088 184.021C168.088 184.021 169.171 184.563 170.525 185.376C171.609 186.188 172.692 187.001 172.692 187.001Z" fill="#A869C5"/>
<path d="M173.776 173.461C173.776 173.461 172.963 174.544 171.88 175.357C170.796 176.44 169.713 176.982 169.713 176.982C169.713 176.982 170.525 175.899 171.609 175.086C172.692 174.274 173.776 173.461 173.776 173.461Z" fill="#A869C5"/>
<path d="M163.754 173.461C163.754 173.461 163.754 174.003 163.212 174.544C162.941 175.086 162.399 175.357 162.399 175.357C162.399 175.357 162.399 174.815 162.941 174.274C163.483 173.732 163.754 173.461 163.754 173.461Z" fill="#A869C5"/>
<path d="M171.338 165.876C171.338 165.876 170.254 165.063 169.171 163.98C167.817 162.897 166.733 162.084 167.004 162.084C167.004 162.084 168.358 162.626 169.713 163.709C170.796 164.522 171.338 165.876 171.338 165.876Z" fill="#A869C5"/>
<path d="M148.586 133.644C148.586 133.644 149.398 132.29 150.211 130.664C151.024 129.039 151.565 127.414 151.565 127.414C151.565 127.414 151.565 129.039 150.753 130.935C149.669 132.56 148.586 133.915 148.586 133.644Z" fill="#A869C5"/>
<path d="M143.981 128.767C143.981 128.767 143.439 127.413 143.439 125.517C143.439 123.621 143.439 122.267 143.71 122.267C143.71 122.267 143.981 123.621 143.981 125.517C143.981 127.413 144.252 128.767 143.981 128.767Z" fill="#A869C5"/>
<path d="M144.252 110.077C144.252 110.077 143.168 110.077 142.085 109.264C141.001 108.452 140.46 107.639 140.731 107.368C140.731 107.368 141.543 108.181 142.356 108.722C143.439 109.535 144.252 109.806 144.252 110.077Z" fill="#A869C5"/>
<path d="M141.002 100.867C141.002 100.867 140.46 101.409 139.376 101.95C138.564 102.492 137.751 102.763 137.751 102.492C137.751 102.492 138.293 101.95 139.376 101.409C140.189 100.867 141.002 100.596 141.002 100.867Z" fill="#A869C5"/>
<path d="M152.378 114.953C152.378 114.953 152.378 113.869 152.378 112.786C152.649 111.703 152.649 110.619 152.92 110.619C152.92 110.619 152.92 111.703 152.92 112.786C152.649 114.14 152.378 115.224 152.378 114.953Z" fill="#A869C5"/>
<path d="M159.962 128.496C159.962 128.496 159.42 128.225 158.878 127.955C158.066 127.413 157.795 127.142 157.795 126.871C157.795 126.871 158.336 127.142 158.878 127.413C159.691 127.955 159.962 128.496 159.962 128.496Z" fill="#A869C5"/>
<path d="M183.256 123.621C183.256 123.621 183.256 124.705 182.985 126.059C182.714 127.413 182.443 128.497 182.172 128.497C182.172 128.497 182.172 127.413 182.443 126.059C182.714 124.705 182.985 123.621 183.256 123.621Z" fill="#A869C5"/>
<path d="M183.798 111.704C183.798 111.704 182.985 111.434 182.443 110.892C181.902 110.079 181.631 109.537 181.902 109.267C181.902 109.267 182.443 109.808 182.985 110.621C183.256 111.163 183.798 111.704 183.798 111.704Z" fill="#A869C5"/>
<path d="M190.028 114.681C190.028 114.681 189.757 115.494 189.215 116.577C188.673 117.661 187.861 118.473 187.861 118.203C187.861 118.203 188.132 117.39 188.673 116.307C189.215 115.223 190.028 114.411 190.028 114.681Z" fill="#A869C5"/>
<path d="M195.174 120.37C195.174 120.37 194.903 119.016 195.174 117.662C195.174 116.307 195.445 114.953 195.445 114.953C195.445 114.953 195.716 116.307 195.445 117.662C195.445 119.287 195.174 120.37 195.174 120.37Z" fill="#A869C5"/>
<path d="M191.382 107.368C191.382 107.368 190.298 106.556 189.215 105.201C188.132 103.847 187.319 102.764 187.59 102.764C187.59 102.764 188.673 103.576 189.757 104.931C190.569 106.285 191.382 107.368 191.382 107.368Z" fill="#A869C5"/>
<path d="M128.542 126.601C128.542 126.601 128.542 125.247 128.812 123.351C129.083 121.455 129.354 120.101 129.625 120.101C129.625 120.101 129.625 121.455 129.354 123.351C129.083 125.247 128.542 126.601 128.542 126.601Z" fill="#A869C5"/>
<path d="M123.667 115.494C123.667 115.494 122.583 115.765 121.229 116.036C119.874 116.307 118.791 116.848 118.791 116.578C118.791 116.578 119.874 115.765 121.229 115.494C122.312 115.494 123.667 115.494 123.667 115.494Z" fill="#A869C5"/>
<path d="M130.438 111.16C130.438 111.16 129.625 110.618 128.813 109.806C128 108.993 127.458 108.181 127.458 108.181C127.458 108.181 128.271 108.722 129.084 109.535C129.896 110.348 130.709 111.16 130.438 111.16Z" fill="#A869C5"/>
<path d="M136.126 124.162C136.126 124.162 135.584 123.079 135.584 121.454C135.584 119.829 135.855 118.745 136.126 118.745C136.126 118.745 136.126 120.099 136.126 121.454C136.126 122.808 136.397 124.162 136.126 124.162Z" fill="#A869C5"/>
<path d="M129.083 141.768C129.083 141.768 129.354 140.684 129.896 139.33C130.438 137.975 130.979 136.892 131.25 137.163C131.25 137.163 130.979 138.246 130.438 139.601C129.896 140.955 129.083 142.038 129.083 141.768Z" fill="#A869C5"/>
<path d="M122.583 134.185C122.583 134.185 122.583 133.101 123.395 132.018C124.208 130.934 125.02 130.393 125.02 130.393C125.02 130.393 124.479 131.205 123.666 132.289C123.124 133.372 122.854 134.185 122.583 134.185Z" fill="#A869C5"/>
<path d="M114.186 132.29C114.186 132.29 114.457 130.935 115.269 129.31C115.811 127.685 116.624 126.602 116.624 126.602C116.624 126.602 116.353 127.956 115.54 129.581C114.998 131.206 114.186 132.29 114.186 132.29Z" fill="#A869C5"/>
<path d="M108.768 130.122C108.768 130.122 108.768 128.768 108.768 127.414C109.039 125.789 109.31 124.705 109.31 124.705C109.31 124.705 109.31 126.059 109.31 127.414C109.039 129.039 108.768 130.122 108.768 130.122Z" fill="#A869C5"/>
<path d="M104.977 144.747C104.977 144.747 104.164 143.935 103.623 142.851C103.081 141.768 102.539 140.685 102.539 140.685C102.539 140.685 103.352 141.497 103.894 142.581C104.706 143.664 104.977 144.477 104.977 144.747Z" fill="#A869C5"/>
<path d="M111.477 140.143C111.477 140.143 110.935 139.06 110.664 137.705C110.394 136.351 110.123 135.268 110.123 135.268C110.123 135.268 110.664 136.351 110.935 137.705C111.477 139.06 111.748 140.143 111.477 140.143Z" fill="#A869C5"/>
<path d="M120.145 145.289C120.145 145.289 119.062 146.102 117.437 146.914C116.082 147.727 114.728 148.539 114.728 148.539C114.728 148.539 115.811 147.456 117.166 146.643C118.791 145.56 120.145 145.289 120.145 145.289Z" fill="#A869C5"/>
<path d="M122.312 158.832C122.312 158.832 122.853 157.749 123.666 156.124C124.479 154.769 125.02 153.415 125.02 153.415C125.02 153.415 124.749 154.769 123.937 156.124C123.395 157.749 122.312 158.832 122.312 158.832Z" fill="#A869C5"/>
<path d="M116.083 160.728C116.083 160.728 115.812 159.374 116.083 157.478C116.083 155.582 116.353 154.228 116.624 154.228C116.624 154.228 116.895 155.582 116.624 157.478C116.353 159.103 116.083 160.728 116.083 160.728Z" fill="#A869C5"/>
<path d="M110.123 157.209C110.123 157.209 108.498 156.667 107.144 155.312C105.79 153.958 105.248 152.333 105.248 152.333C105.248 152.333 106.06 153.687 107.415 155.042C108.769 156.396 110.123 156.938 110.123 157.209Z" fill="#A869C5"/>
<path d="M99.5597 155.855C99.5597 155.855 99.5597 154.5 99.8306 153.146C100.101 151.792 100.372 150.438 100.643 150.438C100.643 150.438 100.643 151.792 100.372 153.146C99.8306 154.771 99.5597 155.855 99.5597 155.855Z" fill="#A869C5"/>
<path d="M116.353 168.044C116.353 168.044 115.541 168.857 114.728 169.669C113.915 170.482 113.103 171.294 113.103 171.294C113.103 171.294 113.645 170.211 114.457 169.398C115.541 168.586 116.353 168.044 116.353 168.044Z" fill="#A869C5"/>
<path d="M104.165 172.375C104.165 172.375 103.894 171.021 103.894 169.395C103.894 167.77 103.894 166.416 104.165 166.416C104.165 166.416 104.436 167.77 104.436 169.395C104.436 171.021 104.165 172.375 104.165 172.375Z" fill="#A869C5"/>
<path d="M98.2052 175.899C98.2052 175.899 96.8509 175.899 95.2257 175.086C93.6005 174.544 92.5171 173.732 92.7879 173.461C92.7879 173.461 94.1423 174.003 95.4966 174.544C97.1217 175.357 98.476 175.899 98.2052 175.899Z" fill="#A869C5"/>
<path d="M94.9545 166.958C94.9545 166.958 94.6836 165.875 94.4127 164.25C94.1419 162.895 94.1419 161.541 94.4127 161.541C94.4127 161.541 94.6836 162.624 94.9545 164.25C95.2253 165.604 95.2253 166.958 94.9545 166.958Z" fill="#A869C5"/>
<path d="M105.518 181.857C105.518 181.857 104.435 182.399 103.08 182.399C101.726 182.67 100.643 182.67 100.643 182.67C100.643 182.67 101.726 182.128 103.08 182.128C104.435 181.857 105.518 181.586 105.518 181.857Z" fill="#A869C5"/>
<path d="M89.2671 185.919C89.2671 185.919 88.9962 184.836 88.7254 183.211C88.4545 181.856 88.4545 180.502 88.7254 180.502C88.7254 180.502 88.9962 181.585 89.2671 183.211C89.538 184.565 89.538 185.919 89.2671 185.919Z" fill="#A869C5"/>
<path d="M83.8493 195.129C83.8493 195.129 83.3076 194.046 83.0367 192.421C82.7659 190.795 82.495 189.712 82.7659 189.712C82.7659 189.712 83.3076 190.795 83.5785 192.421C83.8493 194.046 84.1202 195.129 83.8493 195.129Z" fill="#A869C5"/>
<path d="M88.4544 200.005C88.4544 200.005 87.6418 200.817 86.2875 201.359C85.2041 201.901 84.1206 202.442 84.1206 202.172C84.1206 202.172 84.9332 201.359 86.2875 200.817C87.371 200.276 88.4544 199.734 88.4544 200.005Z" fill="#A869C5"/>
<path d="M94.142 197.838C94.142 197.838 93.0585 197.026 92.2459 195.4C91.4333 193.775 91.1625 192.421 91.1625 192.421C91.1625 192.421 91.7042 193.775 92.5168 195.13C93.3294 196.755 94.142 197.838 94.142 197.838Z" fill="#A869C5"/>
<path d="M101.727 194.587C101.727 194.587 101.185 193.775 100.643 192.691C100.102 191.608 99.8306 190.795 100.101 190.524C100.101 190.524 100.643 191.337 101.185 192.42C101.727 193.504 101.998 194.587 101.727 194.587Z" fill="#A869C5"/>
<path d="M97.9344 202.713C97.9344 202.713 97.1218 203.796 95.7675 204.88C94.4132 205.963 93.3297 206.776 93.3297 206.776C93.3297 206.776 94.1423 205.692 95.4966 204.609C96.8509 203.525 97.9344 202.713 97.9344 202.713Z" fill="#A869C5"/>
<path d="M109.04 206.233C109.04 206.233 107.685 205.15 106.602 203.525C105.519 201.9 104.706 200.274 104.977 200.274C104.977 200.274 105.789 201.629 107.144 203.254C107.956 204.879 109.04 206.233 109.04 206.233Z" fill="#A869C5"/>
<path d="M106.06 210.568C106.06 210.568 104.977 210.839 103.623 211.11C102.268 211.11 101.185 211.11 101.185 211.11C101.185 211.11 102.268 210.839 103.623 210.568C104.977 210.298 106.06 210.298 106.06 210.568Z" fill="#A869C5"/>
<path d="M113.374 193.234C113.374 193.234 112.561 191.608 112.019 189.441C111.478 187.275 110.936 185.649 111.207 185.649C111.207 185.649 112.019 187.275 112.561 189.441C113.103 191.338 113.374 193.234 113.374 193.234Z" fill="#A869C5"/>
<path d="M124.207 189.17C124.207 189.17 122.853 189.712 121.228 189.712C119.603 189.983 118.249 189.983 118.249 189.983C118.249 189.983 119.603 189.441 121.228 189.441C122.853 188.899 124.207 188.899 124.207 189.17Z" fill="#A869C5"/>
<path d="M118.52 200.544C118.52 200.544 117.707 200.815 116.624 201.357C115.54 201.898 114.728 202.44 114.728 202.169C114.728 202.169 115.27 201.357 116.353 200.815C117.437 200.273 118.52 200.273 118.52 200.544Z" fill="#A869C5"/>
<path d="M123.125 210.569C123.125 210.569 122.041 209.756 120.687 208.402C119.332 207.047 118.52 205.964 118.52 205.964C118.52 205.964 119.603 206.776 120.958 208.131C122.312 209.214 123.395 210.569 123.125 210.569Z" fill="#A869C5"/>
<path d="M128.542 202.171C128.542 202.171 128.542 200.817 128.812 199.463C129.083 197.837 129.083 196.754 129.083 196.754C129.083 196.754 129.354 198.108 129.354 199.463C129.083 201.088 128.812 202.171 128.542 202.171Z" fill="#A869C5"/>
<path d="M135.855 208.402C135.855 208.402 134.501 209.215 132.876 210.028C131.25 210.84 129.896 211.111 129.896 211.111C129.896 211.111 131.25 210.299 132.876 209.486C134.23 208.673 135.584 208.132 135.855 208.402Z" fill="#A869C5"/>
<path d="M139.918 195.669C139.918 195.669 138.835 194.315 138.022 192.69C136.939 191.065 136.397 189.439 136.397 189.439C136.397 189.439 137.48 190.794 138.293 192.419C139.106 194.044 139.918 195.669 139.918 195.669Z" fill="#A869C5"/>
<path d="M142.897 200.817C142.897 200.817 141.543 200.817 139.918 201.088C138.293 201.358 136.938 201.629 136.938 201.358C136.938 201.358 138.022 200.817 139.918 200.546C141.543 200.546 142.897 200.817 142.897 200.817Z" fill="#A869C5"/>
<path d="M153.19 198.11C153.19 198.11 152.378 196.756 151.294 195.402C150.211 194.047 149.127 192.964 149.127 192.964C149.127 192.964 150.482 193.776 151.565 195.131C152.648 196.485 153.19 198.11 153.19 198.11Z" fill="#A869C5"/>
<path d="M150.752 206.506C150.752 206.506 149.94 207.048 148.585 207.589C147.231 208.131 146.148 208.402 146.148 208.131C146.148 208.131 146.96 207.589 148.314 207.048C149.669 206.777 150.752 206.506 150.752 206.506Z" fill="#A869C5"/>
<path d="M167.004 211.379C167.004 211.379 166.733 210.295 166.462 208.941C166.192 207.587 166.192 206.232 166.462 206.232C166.462 206.232 166.733 207.316 167.004 208.941C167.004 210.295 167.275 211.379 167.004 211.379Z" fill="#A869C5"/>
<path d="M169.171 201.088C169.171 201.088 169.171 199.734 169.442 198.108C169.713 196.483 169.983 195.129 169.983 195.129C169.983 195.129 169.983 196.483 169.713 198.108C169.713 199.734 169.442 201.088 169.171 201.088Z" fill="#A869C5"/>
<path d="M158.336 203.798C158.336 203.798 157.795 205.694 156.711 208.132C155.628 210.569 154.815 212.195 154.815 212.195C154.815 212.195 155.357 210.299 156.44 207.861C157.253 205.423 158.336 203.798 158.336 203.798Z" fill="#A869C5"/>
<path d="M129.084 172.918C129.084 172.918 128.542 171.564 128.542 169.939C128.271 168.314 128.271 166.688 128.271 166.688C128.271 166.688 128.813 168.043 128.813 169.668C129.084 171.293 129.355 172.918 129.084 172.918Z" fill="#A869C5"/>
<path d="M129.896 183.482C129.896 183.482 129.355 182.67 129.084 181.586C128.813 180.503 129.084 179.69 129.355 179.69C129.355 179.69 129.355 180.503 129.625 181.586C129.896 182.67 130.167 183.482 129.896 183.482Z" fill="#A869C5"/>
<path d="M132.063 223.841C132.063 223.841 131.521 223.028 131.25 221.674C130.979 220.59 130.709 219.507 130.979 219.507C130.979 219.507 131.521 220.319 131.792 221.674C132.063 222.757 132.334 223.841 132.063 223.841Z" fill="#A869C5"/>
<path d="M144.523 221.945C144.523 221.945 143.168 221.674 141.543 221.132C139.918 220.591 138.564 220.049 138.564 220.049C138.564 220.049 139.918 220.32 141.543 220.861C143.168 221.132 144.523 221.674 144.523 221.945Z" fill="#A869C5"/>
<path d="M155.086 219.777C155.086 219.777 154.544 220.59 153.461 221.403C152.378 222.215 151.565 222.757 151.565 222.757C151.565 222.757 152.107 221.944 153.19 221.132C154.003 220.319 154.815 219.777 155.086 219.777Z" fill="#A869C5"/>
<path d="M165.379 222.213C165.379 222.213 164.295 221.942 162.941 221.4C161.587 220.859 160.503 220.588 160.503 220.588C160.503 220.588 161.858 220.588 163.212 221.13C164.566 221.4 165.65 222.213 165.379 222.213Z" fill="#A869C5"/>
<path d="M177.568 217.88C177.568 217.88 177.026 218.692 176.485 219.505C175.943 220.318 175.401 221.13 175.401 221.13C175.401 221.13 175.401 220.318 176.214 219.234C176.755 218.422 177.568 217.88 177.568 217.88Z" fill="#A869C5"/>
<path d="M177.839 193.233C177.839 193.233 177.297 191.879 177.297 190.524C177.026 188.899 177.026 187.545 177.026 187.545C177.026 187.545 177.568 188.899 177.568 190.254C177.839 192.15 178.11 193.233 177.839 193.233Z" fill="#A869C5"/>
<path d="M188.132 198.651C188.132 198.651 187.048 198.11 185.965 197.297C184.881 196.484 184.069 195.672 184.069 195.672C184.069 195.672 185.152 196.214 186.236 197.026C187.319 197.839 188.132 198.651 188.132 198.651Z" fill="#A869C5"/>
<path d="M198.966 182.939C198.966 182.939 199.237 181.314 199.778 179.418C200.32 177.522 201.133 175.896 201.133 175.896C201.133 175.896 200.862 177.522 200.32 179.418C199.507 181.314 198.966 182.939 198.966 182.939Z" fill="#A869C5"/>
<path d="M192.465 181.855C192.465 181.855 191.382 181.313 190.298 180.501C189.215 179.688 188.402 178.875 188.402 178.604C188.402 178.604 189.486 179.146 190.569 179.959C191.924 181.042 192.736 181.855 192.465 181.855Z" fill="#A869C5"/>
<path d="M195.715 169.397C195.715 169.397 195.444 170.481 194.903 171.835C194.361 173.19 193.819 174.002 193.548 174.002C193.548 174.002 193.819 172.919 194.361 171.564C195.174 170.481 195.715 169.397 195.715 169.397Z" fill="#A869C5"/>
<path d="M183.798 180.774C183.798 180.774 182.985 179.961 182.443 178.607C181.902 177.252 181.631 176.169 181.902 176.169C181.902 176.169 182.443 177.252 182.985 178.336C183.256 179.69 183.798 180.774 183.798 180.774Z" fill="#A869C5"/>
<path d="M193.007 157.751C193.007 157.751 192.736 158.834 191.652 159.647C190.569 160.73 189.756 161.001 189.486 161.001C189.486 161.001 190.298 160.189 191.111 159.376C192.465 158.564 193.007 157.751 193.007 157.751Z" fill="#A869C5"/>
<path d="M182.985 159.374C182.985 159.374 182.172 158.562 181.36 157.478C180.547 156.395 180.276 155.582 180.276 155.312C180.276 155.312 181.089 156.124 181.902 157.208C182.714 158.291 183.256 159.104 182.985 159.374Z" fill="#A869C5"/>
<path d="M192.736 150.166C192.736 150.166 191.652 149.895 190.569 149.083C189.485 148.541 188.673 147.729 188.673 147.729C188.673 147.729 189.756 147.999 190.84 148.812C191.923 149.354 192.736 149.895 192.736 150.166Z" fill="#A869C5"/>
<path d="M199.507 158.562C199.507 158.562 199.236 156.937 199.507 154.77C199.507 152.874 199.778 151.249 200.049 151.249C200.049 151.249 200.32 152.874 200.049 155.041C199.778 156.937 199.507 158.562 199.507 158.562Z" fill="#A869C5"/>
<path d="M194.361 196.484C194.361 196.484 194.632 195.129 195.174 193.233C195.715 191.608 196.528 190.254 196.528 190.254C196.528 190.254 196.257 191.608 195.715 193.504C194.903 195.129 194.361 196.484 194.361 196.484Z" fill="#A869C5"/>
<path d="M203.57 197.567C203.57 197.567 203.57 196.213 204.112 194.588C204.383 192.963 204.925 191.608 205.196 191.608C205.196 191.608 205.196 192.963 204.654 194.588C204.112 196.213 203.57 197.567 203.57 197.567Z" fill="#A869C5"/>
<path d="M189.486 221.945C189.486 221.945 188.673 221.133 188.131 219.779C187.59 218.424 187.861 217.341 187.861 217.341C188.131 217.341 188.131 218.424 188.673 219.779C188.944 220.862 189.486 221.675 189.486 221.945Z" fill="#A869C5"/>
<path d="M217.114 148.541C217.114 148.541 216.572 147.186 216.843 145.29C216.843 143.394 217.384 142.04 217.384 142.311C217.384 142.311 217.384 143.665 217.384 145.561C217.114 147.186 217.114 148.541 217.114 148.541Z" fill="#A869C5"/>
<path d="M211.426 142.31C211.426 142.31 210.343 142.31 208.988 142.039C207.634 141.768 206.821 141.227 206.821 141.227C206.821 141.227 207.905 141.227 209.259 141.497C210.613 141.768 211.697 142.039 211.426 142.31Z" fill="#A869C5"/>
<path d="M212.509 133.915C212.509 133.915 212.238 132.56 212.238 130.664C212.238 128.768 212.509 127.414 212.509 127.414C212.509 127.414 212.78 128.768 212.78 130.664C212.78 132.29 212.78 133.915 212.509 133.915Z" fill="#A869C5"/>
<path d="M207.904 129.581C207.904 129.581 206.821 129.852 205.196 129.581C203.841 129.581 202.487 129.31 202.487 129.039C202.487 129.039 203.57 128.768 205.196 129.039C206.821 129.31 207.904 129.581 207.904 129.581Z" fill="#A869C5"/>
<path d="M204.112 120.913C204.112 120.913 203.841 119.829 203.57 118.475C203.57 117.121 203.57 116.037 203.57 116.037C203.57 116.037 203.841 117.121 204.112 118.475C204.112 119.829 204.112 120.913 204.112 120.913Z" fill="#A869C5"/>
<path d="M211.155 162.896C211.155 162.896 210.342 162.083 209.259 160.729C208.446 159.645 207.634 158.562 207.904 158.291C207.904 158.291 208.717 159.104 209.8 160.458C210.613 161.812 211.155 162.896 211.155 162.896Z" fill="#A869C5"/>
<path d="M215.217 169.398C215.217 169.398 215.217 168.043 215.217 166.689C215.217 165.064 215.488 163.98 215.759 163.98C215.759 163.98 215.759 165.335 215.759 166.689C215.759 168.043 215.488 169.398 215.217 169.398Z" fill="#A869C5"/>
<path d="M222.531 173.461C222.531 173.461 221.718 173.732 220.364 174.003C219.281 174.274 218.197 174.274 218.197 174.003C218.197 174.003 219.01 173.732 220.364 173.461C221.718 173.461 222.531 173.461 222.531 173.461Z" fill="#A869C5"/>
<path d="M226.052 178.604C226.052 178.604 226.052 179.688 225.51 180.771C225.239 181.855 224.698 182.938 224.698 182.667C224.698 182.667 224.698 181.584 225.239 180.501C225.51 179.688 226.052 178.604 226.052 178.604Z" fill="#A869C5"/>
<path d="M231.74 186.461C231.74 186.461 231.469 187.274 231.199 188.357C230.928 189.44 231.199 190.253 230.928 190.253C230.928 190.253 230.386 189.44 230.657 188.357C230.928 187.003 231.74 186.461 231.74 186.461Z" fill="#A869C5"/>
<path d="M233.907 173.729C233.907 174 232.552 173.729 230.927 174C229.302 174.27 228.218 174.541 227.948 174.27C227.948 174.27 229.031 173.729 230.656 173.458C232.552 173.187 233.907 173.458 233.907 173.729Z" fill="#A869C5"/>
<path d="M239.866 171.294C239.866 171.294 239.595 172.648 239.595 174.273C239.324 175.899 239.324 177.253 239.324 177.253C239.324 177.253 239.053 175.899 239.053 174.273C239.324 172.648 239.866 171.294 239.866 171.294Z" fill="#A869C5"/>
<path d="M225.239 161.27C225.239 161.27 225.239 159.645 225.239 157.749C225.51 155.853 225.781 154.228 225.781 154.228C225.781 154.228 225.781 155.853 225.781 157.749C225.51 159.645 225.239 161.27 225.239 161.27Z" fill="#A869C5"/>
<path d="M221.718 154.77C221.718 154.77 220.635 154.77 219.281 154.499C217.926 154.228 216.843 153.957 217.114 153.686C217.385 153.416 218.197 153.686 219.551 153.957C220.635 154.228 221.718 154.499 221.718 154.77Z" fill="#A869C5"/>
<path d="M224.698 145.019C224.698 145.019 224.156 143.664 223.885 142.039C223.885 140.414 224.156 139.06 224.156 139.06C224.427 139.06 224.156 140.414 224.156 142.039C224.698 143.664 224.969 145.019 224.698 145.019Z" fill="#A869C5"/>
<path d="M220.635 135.538C220.635 135.538 220.093 135.809 219.281 135.538C218.468 135.267 217.926 135.267 217.926 134.996C217.926 134.996 218.468 134.725 219.281 134.996C220.093 135.267 220.635 135.267 220.635 135.538Z" fill="#A869C5"/>
<path d="M233.094 152.876C233.094 152.876 232.011 152.876 230.927 152.334C229.844 151.792 229.302 150.979 229.302 150.979C229.302 150.979 230.115 151.521 231.198 152.063C232.282 152.605 233.094 152.876 233.094 152.876Z" fill="#A869C5"/>
<path d="M237.699 162.898C237.699 162.898 236.887 163.71 235.532 164.252C234.178 164.794 233.366 165.335 233.095 165.335C233.095 165.335 233.907 164.523 235.262 163.981C236.616 163.168 237.699 162.627 237.699 162.898Z" fill="#A869C5"/>
<path d="M150.752 96.5357L151.565 88.6807L166.733 100.599L170.525 106.828L177.568 90.8476L179.193 93.0145V102.765L171.879 111.704L157.795 110.62L150.752 96.5357Z" fill="#F9FAFD"/>
<path d="M166.192 101.682C166.192 101.682 166.192 101.953 166.192 102.494C166.192 103.307 166.192 104.12 165.921 105.203C165.65 107.641 165.379 110.62 165.108 114.142V114.683L164.837 114.142C163.754 112.787 162.67 111.433 161.316 110.079C158.066 106.287 155.357 102.765 153.461 100.328C152.378 99.2441 151.836 98.1607 151.023 97.3481C150.482 96.5355 150.211 96.2646 150.211 96.2646C150.211 96.2646 150.482 96.5355 151.294 97.3481C151.836 98.1607 152.648 98.9733 153.732 100.328C155.899 102.765 158.607 106.287 161.858 110.079C162.941 111.433 164.296 112.787 165.108 114.142H164.837C165.108 110.62 165.65 107.37 165.65 105.203C165.65 104.12 165.921 103.307 165.921 102.494C166.192 101.953 166.192 101.682 166.192 101.682Z" fill="#C7CDDD"/>
<path d="M178.922 102.493C178.922 102.493 178.922 103.035 178.922 104.119C178.922 105.202 178.651 106.556 178.38 107.911V108.994L178.109 107.911C177.838 107.098 177.568 106.285 177.297 105.202C176.755 103.035 176.484 100.868 176.213 99.5139C175.942 97.8888 175.942 97.0762 175.942 97.0762C175.942 97.0762 176.213 97.8888 176.484 99.5139C176.755 100.868 177.026 103.035 177.838 105.202C178.109 106.285 178.38 107.098 178.651 107.911H178.109C178.38 106.285 178.651 104.931 178.651 104.119C178.922 103.035 178.922 102.223 178.922 102.493Z" fill="#C7CDDD"/>
<path d="M178.109 154.77C178.109 154.77 178.109 154.499 178.109 154.228C178.109 153.957 177.838 153.416 177.838 152.874C177.567 151.52 177.297 149.895 177.026 147.728C176.484 143.394 175.401 137.164 174.588 130.663C173.505 124.163 172.692 117.933 172.15 113.599C171.879 111.432 171.608 109.807 171.338 108.453C171.338 107.911 171.067 107.369 171.067 107.098C171.067 106.828 171.067 106.557 171.067 106.557C171.067 106.557 171.067 106.828 171.067 107.098C171.067 107.369 171.338 107.911 171.338 108.453C171.608 109.536 171.879 111.432 172.15 113.599C172.963 117.933 173.775 123.892 174.859 130.663C175.942 137.435 176.755 143.394 177.297 147.728C177.567 149.895 177.838 151.52 177.838 152.874C177.838 153.416 177.838 153.957 178.109 154.228C178.109 154.499 178.109 154.77 178.109 154.77Z" fill="#C7CDDD"/>
<path d="M164.025 108.724C164.025 108.724 164.025 108.995 163.754 109.536C163.483 109.807 163.483 110.078 163.212 110.078C163.212 110.078 162.941 109.807 163.212 109.265C163.483 108.994 164.025 108.724 164.025 108.724Z" fill="#C7CDDD"/>
<path d="M178.109 103.849C178.109 103.849 177.838 103.578 177.838 103.036C177.838 102.494 177.838 102.224 178.109 102.224C178.109 102.224 178.38 102.494 178.38 103.036C178.38 103.307 178.109 103.849 178.109 103.849Z" fill="#C7CDDD"/>
<path d="M175.943 97.3467C175.943 97.3467 175.401 99.7844 173.776 102.222C172.151 104.66 170.525 106.556 170.525 106.556C170.525 106.556 171.88 104.66 173.234 101.951C174.859 99.5136 175.943 97.3467 175.943 97.3467Z" fill="#C7CDDD"/>
<path d="M171.067 107.099C171.067 107.099 169.712 106.286 168.358 104.661C167.004 103.306 165.92 101.952 166.191 101.952C166.191 101.952 167.275 103.036 168.629 104.39C169.983 105.744 171.067 107.099 171.067 107.099Z" fill="#C7CDDD"/>
<path d="M174.859 121.184C174.859 121.184 174.588 120.913 174.318 120.642C174.318 120.371 174.318 120.101 174.318 120.101C174.318 120.101 174.588 120.371 174.588 120.642C175.13 120.913 175.13 120.913 174.859 121.184Z" fill="#C7CDDD"/>
<path d="M176.484 130.394C176.484 130.394 176.214 130.123 176.214 129.852C176.214 129.581 176.213 129.311 176.484 129.311C176.484 129.311 176.755 129.581 176.755 129.852L176.484 130.394Z" fill="#C7CDDD"/>
<path d="M172.151 62.6773C172.151 62.6773 172.422 62.9482 172.963 63.219C173.505 63.4899 174.589 63.4899 175.13 62.9482C175.401 62.6773 175.672 62.1356 175.943 61.323C176.214 60.7813 176.214 59.9687 176.214 59.427C176.214 58.0726 175.943 56.4475 175.943 54.5514C175.672 51.0302 175.672 48.0508 175.401 45.8839C175.401 44.8004 175.401 43.9878 175.401 43.1752C175.401 42.6335 175.401 42.0918 175.401 42.0918C175.401 42.0918 175.401 42.3627 175.672 43.1752C175.672 43.717 175.943 44.8004 175.943 45.8839C176.214 48.0508 176.485 51.3011 176.485 54.5514C176.485 56.1766 176.755 57.8018 176.755 59.427C176.755 60.2395 176.755 60.7813 176.485 61.5939C176.214 62.1356 175.943 62.9482 175.401 63.219C174.859 63.4899 174.318 63.7608 174.047 63.7608C173.505 63.7608 173.234 63.4899 172.963 63.4899C172.151 62.9482 172.151 62.6773 172.151 62.6773Z" fill="#E08F8D"/>
<path d="M174.588 68.6347C174.588 68.6347 174.046 69.1764 172.963 69.1764C171.879 69.4472 170.254 69.1764 168.629 68.3638C167.004 67.5512 166.191 66.1969 165.921 65.1135C165.65 64.03 165.65 63.4883 165.65 63.4883C165.65 63.4883 165.921 64.03 166.191 65.1135C166.462 66.1969 167.546 67.2804 168.9 68.0929C170.254 68.9055 171.879 68.9055 172.692 68.9055C174.046 68.9055 174.588 68.6347 174.588 68.6347Z" fill="#E08F8D"/>
<path d="M167.004 63.2201C167.004 63.2201 166.191 63.2201 165.379 63.7618C164.566 64.3035 164.295 64.8452 164.295 64.8452C164.295 64.8452 164.295 64.5744 164.295 64.3035C164.295 64.0327 164.837 63.4909 165.108 63.2201C165.65 62.9492 166.191 62.9492 166.462 62.9492C166.733 62.9492 167.004 62.9492 167.004 63.2201Z" fill="#E08F8D"/>
<path d="M178.381 83.5323C178.381 83.5323 178.11 83.8032 177.568 84.074C177.027 84.3449 175.943 84.8866 174.86 85.1575C172.422 85.9701 168.901 86.5118 165.109 85.9701C161.317 85.4283 158.066 83.8032 155.899 82.4489C154.816 81.6363 154.003 81.0945 153.462 80.5528C152.92 80.0111 152.649 79.7402 152.649 79.7402C152.649 79.7402 153.732 80.8237 155.899 82.178C158.066 83.5323 161.317 85.1575 165.109 85.6992C168.901 86.2409 172.422 85.6992 174.86 84.8866C177.027 84.3449 178.381 83.5323 178.381 83.5323Z" fill="#E08F8D"/>
<path d="M142.897 62.9466C142.897 62.9466 143.439 62.6758 143.981 61.5923C144.251 61.0506 144.251 60.5089 143.981 59.9671C143.71 59.4254 143.168 58.8837 142.355 58.8837C141.814 58.8837 141.272 59.6963 141.543 60.238L141.272 60.5089C141.001 58.342 140.73 56.7168 140.73 56.7168C140.73 56.7168 141.272 58.342 141.543 60.238L141.814 61.3215L141.272 60.238C140.73 59.4254 141.272 58.342 142.355 58.342C142.897 58.342 143.168 58.342 143.71 58.6128C143.981 58.8837 144.251 59.1546 144.522 59.6963C144.793 60.5089 144.793 61.0506 144.522 61.5923C144.251 62.134 143.981 62.4049 143.71 62.6758C142.897 62.9466 142.897 62.9466 142.897 62.9466Z" fill="#E08F8D"/>
<path d="M164.296 49.6763C164.025 49.6763 163.754 48.5928 163.754 47.2385C163.754 45.8842 164.025 44.8008 164.296 44.8008C164.566 44.8008 164.837 45.8842 164.837 47.2385C164.837 48.5928 164.566 49.6763 164.296 49.6763Z" fill="#452775"/>
<path d="M184.068 48.8624C183.798 48.8624 183.527 48.0498 183.527 46.9663C183.527 45.8829 183.798 45.0703 184.068 45.0703C184.339 45.0703 184.61 45.8829 184.61 46.9663C184.61 47.7789 184.339 48.8624 184.068 48.8624Z" fill="#452775"/>
<path d="M167.004 40.4663C167.004 41.0081 165.65 41.8207 164.025 42.3624C162.129 42.6332 160.503 42.3624 160.503 41.8207C160.503 41.2789 161.858 40.4663 163.483 39.9246C165.379 39.6538 167.004 39.9246 167.004 40.4663Z" fill="#552E3B"/>
<path d="M186.506 40.1971C186.506 40.7388 185.152 41.2805 183.797 41.2805C182.443 41.2805 181.089 40.4679 181.36 39.9262C181.36 39.3845 182.714 38.8428 184.068 38.8428C185.422 38.8428 186.506 39.6554 186.506 40.1971Z" fill="#552E3B"/>
<path d="M177.568 47.7797C177.568 47.7797 176.755 48.0505 175.401 48.0505C174.317 48.0505 173.234 48.0505 173.234 47.7797C173.234 47.7797 174.046 47.5088 175.401 47.5088C176.484 47.5088 177.568 47.5088 177.568 47.7797Z" fill="#635252"/>
<path d="M208.176 224.653C208.176 224.653 207.363 223.841 206.28 222.487C205.196 221.132 203.842 218.965 202.217 216.798C200.592 214.361 199.508 212.194 198.695 210.839C197.883 209.214 197.341 208.131 197.341 208.131C197.341 208.131 197.883 208.943 198.966 210.569C199.779 212.194 201.133 214.361 202.758 216.528C204.384 218.965 205.738 220.861 206.55 222.487C207.634 223.841 208.176 224.653 208.176 224.653Z" fill="#E08F8D"/>
<path d="M206.55 224.652C206.55 224.652 206.279 224.652 205.738 224.652C205.196 224.652 204.654 224.381 204.112 224.11C202.758 223.298 201.133 221.943 199.508 220.047C197.883 218.151 196.528 216.526 195.716 215.172C194.632 213.817 194.091 213.276 194.361 213.005C194.361 213.005 195.174 213.547 195.987 214.901C197.07 215.984 198.424 217.61 200.049 219.506C201.675 221.402 203.029 222.756 204.383 223.569C205.738 224.381 206.55 224.381 206.55 224.652Z" fill="#E08F8D"/>
<path d="M222.802 230.068L246.637 170.479L326 171.833L303.789 228.443L222.802 230.068Z" fill="#B8ABD6"/>
<path d="M250.159 170.479L226.052 230.068L303.789 228.443L326 171.833L250.159 170.479Z" fill="#968ABC"/>
<path d="M275.62 197.023C277.787 194.856 280.766 194.586 282.662 196.211C284.287 197.836 284.017 201.086 281.85 203.253C279.683 205.42 276.703 205.691 274.807 204.066C273.182 202.17 273.724 199.19 275.62 197.023Z" fill="#D7D1E8"/>
<path opacity="0.19" d="M274.266 195.4C277.516 192.149 282.391 191.608 285.1 194.316C287.809 197.025 287.267 201.9 284.017 205.151C280.766 208.401 275.891 208.943 273.182 206.234C270.203 203.526 270.744 198.65 274.266 195.4Z" fill="#D7D1E8"/>
<path d="M146.689 51.8423C153.461 45.0708 155.628 33.9654 157.253 24.4853C163.483 29.0899 172.15 30.1734 179.464 27.4647C181.63 30.1734 184.339 32.6111 187.319 34.5071C188.131 35.0489 189.215 35.5906 190.027 35.3197C191.111 35.0489 191.652 33.6946 191.923 32.6111C192.736 28.819 192.736 24.7561 191.652 21.2349C190.298 17.7137 187.589 14.4634 184.068 13.1091C180.276 11.7547 175.942 12.2965 171.879 13.3799C166.191 14.4634 160.503 16.9011 155.086 19.8806C149.94 22.8601 144.793 26.923 142.626 32.6111C140.459 38.2992 140.459 49.4046 145.877 52.1132" fill="#251A51"/>
<path opacity="0.26" d="M165.65 38.0283C170.525 38.57 174.046 42.633 173.505 47.5085C172.963 52.384 168.9 55.9052 164.024 55.3635C159.149 54.8217 155.628 50.7588 156.169 45.8833C156.711 41.2787 160.774 37.7574 165.65 38.0283Z" fill="white"/>
<path opacity="0.26" d="M187.319 37.2158C192.194 37.7575 195.715 41.8205 195.174 46.696C194.632 51.5715 190.569 55.0927 185.693 54.551C180.818 54.0093 177.297 49.9463 177.838 45.0708C178.109 40.4662 182.443 36.9449 187.319 37.2158Z" fill="white"/>
</svg>
