<svg width="336" height="353" viewBox="0 0 336 353" fill="none" xmlns="http://www.w3.org/2000/svg">
<mask id="mask0" mask-type="alpha" maskUnits="userSpaceOnUse" x="0" y="0" width="336" height="353">
<rect width="336" height="353" fill="#C4C4C4"/>
</mask>
<g mask="url(#mask0)">
<g opacity="0.25">
<path opacity="0.25" d="M327.079 178.03H154.449C151.109 178.03 148.528 175.449 148.528 172.109V46.5463C148.528 43.2061 151.109 40.625 154.449 40.625H327.079C330.419 40.625 333 43.2061 333 46.5463V172.261C333 175.449 330.419 178.03 327.079 178.03Z" fill="#3D3D3D"/>
<path opacity="0.25" d="M218.369 142.501H200.605C199.238 142.501 198.176 141.439 198.176 140.072V77.3668C198.176 76.0003 199.238 74.9375 200.605 74.9375H218.369C219.735 74.9375 220.798 76.0003 220.798 77.3668V140.224C220.646 141.439 219.584 142.501 218.369 142.501Z" fill="#3D3D3D"/>
<path opacity="0.25" d="M189.977 142.501H172.213C170.846 142.501 169.784 141.439 169.784 140.072V77.3668C169.784 76.0003 170.846 74.9375 172.213 74.9375H189.977C191.343 74.9375 192.406 76.0003 192.406 77.3668V140.224C192.254 141.439 191.192 142.501 189.977 142.501Z" fill="#3D3D3D"/>
<path opacity="0.72" d="M189.977 142.502H172.213C170.846 142.502 169.784 141.439 169.784 140.072V104.544C169.784 103.178 170.846 102.115 172.213 102.115H189.977C191.343 102.115 192.406 103.178 192.406 104.544V140.072C192.254 141.439 191.192 142.502 189.977 142.502Z" fill="#3D3D3D"/>
<path opacity="0.72" d="M218.369 142.502H200.605C199.238 142.502 198.176 141.439 198.176 140.073V124.738C198.176 123.371 199.238 122.309 200.605 122.309H218.369C219.735 122.309 220.798 123.371 220.798 124.738V140.224C220.646 141.439 219.584 142.502 218.369 142.502Z" fill="#3D3D3D"/>
<path opacity="0.25" d="M246.761 142.501H228.997C227.631 142.501 226.568 141.439 226.568 140.072V77.3668C226.568 76.0003 227.631 74.9375 228.997 74.9375H246.761C248.128 74.9375 249.19 76.0003 249.19 77.3668V140.224C249.039 141.439 247.976 142.501 246.761 142.501Z" fill="#3D3D3D"/>
<path opacity="0.25" d="M275.001 142.501H257.237C255.871 142.501 254.808 141.439 254.808 140.072V77.3668C254.808 76.0003 255.871 74.9375 257.237 74.9375H275.001C276.368 74.9375 277.431 76.0003 277.431 77.3668V140.224C277.431 141.439 276.368 142.501 275.001 142.501Z" fill="#3D3D3D"/>
<path opacity="0.25" d="M303.393 142.501H285.629C284.263 142.501 283.2 141.439 283.2 140.072V77.3668C283.2 76.0003 284.263 74.9375 285.629 74.9375H303.393C304.76 74.9375 305.822 76.0003 305.822 77.3668V140.224C305.822 141.439 304.76 142.501 303.393 142.501Z" fill="#3D3D3D"/>
<path opacity="0.72" d="M246.761 142.502H228.997C227.631 142.502 226.568 141.439 226.568 140.073V110.466C226.568 109.1 227.631 108.037 228.997 108.037H246.761C248.128 108.037 249.19 109.1 249.19 110.466V140.073C249.039 141.439 247.976 142.502 246.761 142.502Z" fill="#3D3D3D"/>
<path opacity="0.72" d="M275.001 142.503H257.237C255.871 142.503 254.808 141.44 254.808 140.074V129.446C254.808 128.079 255.871 127.017 257.237 127.017H275.001C276.368 127.017 277.431 128.079 277.431 129.446V140.074C277.431 141.44 276.368 142.503 275.001 142.503Z" fill="#3D3D3D"/>
<path opacity="0.72" d="M303.393 142.502H285.629C284.263 142.502 283.2 141.439 283.2 140.073V110.466C283.2 109.1 284.263 108.037 285.629 108.037H303.393C304.76 108.037 305.822 109.1 305.822 110.466V140.073C305.822 141.439 304.76 142.502 303.393 142.502Z" fill="#3D3D3D"/>
<path opacity="0.25" d="M305.823 152.068H169.784V155.56H305.823V152.068Z" fill="#3D3D3D"/>
<path opacity="0.25" d="M243.117 159.203H169.784V162.695H243.117V159.203Z" fill="#3D3D3D"/>
<path opacity="0.25" d="M198.176 58.3896H169.784V61.8817H198.176V58.3896Z" fill="#3D3D3D"/>
</g>
<path d="M322.372 173.323H149.742C146.402 173.323 143.821 170.742 143.821 167.401V41.687C143.821 38.3467 146.402 35.7656 149.742 35.7656H322.372C325.712 35.7656 328.293 38.3467 328.293 41.687V167.401C328.293 170.742 325.712 173.323 322.372 173.323Z" fill="#EDEDED"/>
<path d="M213.51 137.795H195.898C194.532 137.795 193.469 136.732 193.469 135.366V72.5084C193.469 71.1419 194.532 70.0791 195.898 70.0791H213.662C215.029 70.0791 216.092 71.1419 216.092 72.5084V135.366C215.94 136.732 214.877 137.795 213.51 137.795Z" fill="#F3F9FF"/>
<path d="M185.119 137.795H167.506C166.14 137.795 165.077 136.732 165.077 135.366V72.5084C165.077 71.1419 166.14 70.0791 167.506 70.0791H185.27C186.637 70.0791 187.7 71.1419 187.7 72.5084V135.366C187.548 136.732 186.485 137.795 185.119 137.795Z" fill="#F3F9FF"/>
<path opacity="0.72" d="M185.119 137.795H167.506C166.14 137.795 165.077 136.732 165.077 135.365V99.8375C165.077 98.471 166.14 97.4082 167.506 97.4082H185.27C186.637 97.4082 187.7 98.471 187.7 99.8375V135.365C187.548 136.732 186.485 137.795 185.119 137.795Z" fill="url(#paint0_linear)"/>
<path opacity="0.72" d="M213.51 137.796H195.898C194.532 137.796 193.469 136.733 193.469 135.367V120.032C193.469 118.665 194.532 117.603 195.898 117.603H213.662C215.029 117.603 216.092 118.665 216.092 120.032V135.518C215.94 136.733 214.877 137.796 213.51 137.796Z" fill="url(#paint1_linear)"/>
<path d="M241.903 137.795H224.139C222.772 137.795 221.709 136.732 221.709 135.366V72.5084C221.709 71.1419 222.772 70.0791 224.139 70.0791H241.903C243.269 70.0791 244.332 71.1419 244.332 72.5084V135.366C244.332 136.732 243.269 137.795 241.903 137.795Z" fill="#F3F9FF"/>
<path d="M270.295 137.795H252.531C251.164 137.795 250.101 136.732 250.101 135.366V72.5084C250.101 71.1419 251.164 70.0791 252.531 70.0791H270.295C271.661 70.0791 272.724 71.1419 272.724 72.5084V135.366C272.724 136.732 271.661 137.795 270.295 137.795Z" fill="#F3F9FF"/>
<path d="M298.687 137.795H280.923C279.556 137.795 278.493 136.732 278.493 135.366V72.5084C278.493 71.1419 279.556 70.0791 280.923 70.0791H298.687C300.053 70.0791 301.116 71.1419 301.116 72.5084V135.366C301.116 136.732 300.053 137.795 298.687 137.795Z" fill="#F3F9FF"/>
<path opacity="0.72" d="M241.903 137.795H224.139C222.772 137.795 221.709 136.732 221.709 135.366V105.759C221.709 104.393 222.772 103.33 224.139 103.33H241.903C243.269 103.33 244.332 104.393 244.332 105.759V135.366C244.332 136.732 243.269 137.795 241.903 137.795Z" fill="url(#paint2_linear)"/>
<path opacity="0.72" d="M270.295 137.795H252.531C251.164 137.795 250.101 136.732 250.101 135.366V124.738C250.101 123.371 251.164 122.309 252.531 122.309H270.295C271.661 122.309 272.724 123.371 272.724 124.738V135.366C272.724 136.732 271.661 137.795 270.295 137.795Z" fill="url(#paint3_linear)"/>
<path opacity="0.72" d="M298.687 137.795H280.923C279.556 137.795 278.493 136.732 278.493 135.366V105.759C278.493 104.393 279.556 103.33 280.923 103.33H298.687C300.053 103.33 301.116 104.393 301.116 105.759V135.366C301.116 136.732 300.053 137.795 298.687 137.795Z" fill="url(#paint4_linear)"/>
<path d="M301.116 147.36H165.077V150.852H301.116V147.36Z" fill="#F3F9FF"/>
<path d="M238.411 154.344H165.077V157.836H238.411V154.344Z" fill="#F3F9FF"/>
<path d="M193.469 53.6816H165.077V57.1737H193.469V53.6816Z" fill="#E9998F"/>
<g opacity="0.25">
<path opacity="0.25" d="M226.872 64.9166C226.872 64.9166 232.793 50.1892 233.552 51.5556C234.463 52.9221 232.793 55.0477 233.249 58.5398C233.249 58.5398 244.028 45.4825 244.636 47.0008C245.243 48.5191 238.563 57.3251 238.714 57.477C238.866 57.6288 246.761 48.5191 247.52 49.43C248.28 50.4928 240.992 58.9953 240.992 58.9953C240.992 58.9953 248.431 51.5556 249.342 52.6184C250.253 53.6813 243.421 60.5136 243.421 60.5136C243.421 60.5136 249.191 54.8959 250.102 55.8069C250.557 56.4142 235.981 74.7855 236.437 75.0891C236.589 75.5446 226.872 64.9166 226.872 64.9166Z" fill="#3D3D3D"/>
<path opacity="0.25" d="M103.131 243.011C103.738 246.807 110.419 373.888 118.314 456.483H149.591C149.591 456.483 134.104 265.937 137.748 265.634C141.999 265.33 177.679 456.483 177.679 456.483H207.589L162.041 237.394L103.131 243.011Z" fill="#3D3D3D"/>
<path opacity="0.25" d="M228.238 61.1211C228.238 61.1211 201.82 92.7015 187.396 106.062C172.972 119.423 143.669 136.732 143.669 136.732C136.837 138.098 132.282 139.465 129.094 140.224C119.528 142.805 117.403 143.109 110.722 145.69C98.4242 150.548 88.2517 159.354 81.8749 170.59C72.917 186.836 61.2261 212.495 63.0481 235.117C65.0218 259.562 85.6706 252.274 100.702 243.468C100.702 244.075 100.854 244.531 100.854 244.531H165.077V170.438C165.077 170.438 165.077 169.679 164.925 168.464L165.077 168.616C165.077 168.616 188.459 140.376 199.391 129.292C218.066 110.617 239.17 74.9375 239.17 74.9375L228.238 61.1211ZM91.7438 218.416L99.0316 188.354C99.487 193.516 96.9059 210.976 97.3614 215.835L91.7438 218.416Z" fill="#3D3D3D"/>
<path opacity="0.25" d="M120.439 142.35C120.439 142.35 116.188 161.784 122.11 159.051C128.031 156.166 132.282 153.585 132.282 153.585C132.282 153.585 138.052 160.721 140.936 156.47C143.821 152.067 138.203 137.795 138.203 137.795L120.439 142.35Z" fill="#3D3D3D"/>
<path opacity="0.25" d="M115.429 99.0781L116.795 116.842C116.795 116.842 110.115 117.753 112.089 123.826C114.063 129.899 118.617 127.318 118.617 127.318C118.617 127.318 119.832 142.957 135.774 137.946C151.716 132.936 146.402 108.188 144.884 93.3086L115.429 99.0781Z" fill="#3D3D3D"/>
<path opacity="0.25" d="M116.796 123.371L121.047 146.297C121.958 151.459 127.12 154.8 132.282 153.585C136.989 152.522 140.025 147.816 139.266 142.957L136.989 129.748L116.796 123.371Z" fill="#3D3D3D"/>
<path opacity="0.25" d="M119.073 226.918C119.073 226.918 118.921 227.222 118.466 227.829C118.01 228.436 117.403 229.195 116.492 230.106C114.822 231.928 112.241 234.509 109.204 236.939C106.167 239.52 103.283 241.494 101.157 242.86C100.094 243.467 99.1833 244.075 98.576 244.378C97.9687 244.682 97.5132 244.834 97.5132 244.834C97.5132 244.682 98.7278 243.923 100.853 242.405C102.979 241.038 105.864 238.912 108.749 236.331C111.785 233.902 114.214 231.473 116.036 229.651C118.01 227.981 119.073 226.918 119.073 226.918Z" fill="#3D3D3D"/>
<path opacity="0.25" d="M87.0371 226.159C86.8852 226.007 87.7962 224.185 89.0108 222.059C90.2255 219.934 91.4401 218.264 91.4401 218.264C91.5919 218.416 90.681 220.237 89.4663 222.363C88.2517 224.489 87.1889 226.159 87.0371 226.159Z" fill="#3D3D3D"/>
<path opacity="0.25" d="M91.2883 218.871C91.2883 218.871 91.8956 218.567 92.9584 217.96C94.1731 217.353 95.6914 216.745 97.5133 215.834C101.309 214.012 106.775 211.431 112.544 208.547C113.455 208.091 114.518 207.636 115.429 207.18L115.733 207.028V207.484C116.492 213.253 117.251 218.264 117.707 221.908C117.858 223.73 118.162 225.096 118.314 226.159C118.466 227.222 118.466 227.677 118.466 227.677C118.466 227.677 118.314 227.07 118.162 226.159C118.01 225.096 117.707 223.578 117.403 221.908C116.796 218.264 116.036 213.253 115.125 207.484L115.581 207.636C114.67 208.091 113.759 208.547 112.696 209.154C106.927 212.039 101.461 214.62 97.6652 216.29C95.6914 217.201 94.1731 217.808 92.9584 218.264C91.8956 218.719 91.2883 218.871 91.2883 218.871Z" fill="#3D3D3D"/>
<path opacity="0.25" d="M91.7438 218.112C91.8957 218.264 90.3774 219.631 88.4036 221.301C86.4298 222.971 84.7597 224.186 84.6079 224.186C84.4561 224.034 85.9743 222.667 87.9481 220.997C89.9219 219.175 91.592 217.961 91.7438 218.112Z" fill="#3D3D3D"/>
<path opacity="0.25" d="M134.56 244.683C134.408 244.683 133.649 224.945 133.041 200.652C132.282 176.36 131.827 156.622 131.979 156.622C132.13 156.622 132.89 176.36 133.497 200.652C134.256 224.945 134.711 244.683 134.56 244.683Z" fill="#3D3D3D"/>
<path opacity="0.25" d="M116.34 211.28C116.34 211.28 129.246 202.019 129.246 203.689C129.246 205.359 126.816 206.27 125.146 209.458C125.146 209.458 141.24 204.296 140.936 205.966C140.633 207.485 130.308 211.28 130.308 211.584C130.308 211.888 141.847 208.395 141.999 209.61C142.151 210.977 131.371 214.165 131.371 214.165C131.371 214.165 141.544 211.888 141.847 213.406C142.151 214.772 132.586 216.898 132.586 216.898C132.586 216.898 140.481 215.228 140.633 216.594C140.785 217.353 118.618 224.793 118.618 225.4C118.921 225.4 116.34 211.28 116.34 211.28Z" fill="#3D3D3D"/>
<path opacity="0.25" d="M236.437 78.5815C236.285 78.7333 233.4 76.0004 229.756 72.5083C226.264 69.0162 223.38 66.1315 223.531 65.9797C223.683 65.8278 226.568 68.5608 230.212 72.0528C233.704 75.5449 236.437 78.4296 236.437 78.5815Z" fill="#3D3D3D"/>
<path opacity="0.25" d="M134.56 123.675C134.56 123.675 134.711 123.827 135.167 123.978C135.471 124.13 136.078 123.978 136.533 123.371C136.989 122.764 136.989 122.005 136.837 120.942C136.685 119.879 136.685 118.816 136.533 117.753C136.382 115.476 136.23 113.502 136.078 111.984C135.926 110.466 135.926 109.555 136.078 109.555C136.23 109.555 136.382 110.466 136.533 111.984C136.685 113.502 136.989 115.476 137.141 117.753C137.292 118.816 137.292 119.879 137.444 120.942C137.596 121.853 137.444 122.916 136.989 123.675C136.382 124.282 135.622 124.434 135.167 124.13C134.56 123.978 134.56 123.675 134.56 123.675Z" fill="#3D3D3D"/>
<path opacity="0.25" d="M140.329 135.82C140.329 135.82 139.722 136.58 138.355 137.187C136.989 137.946 135.015 138.553 132.738 138.705C130.46 138.705 128.335 138.098 127.12 137.491C125.754 136.883 125.146 136.124 125.146 136.124C125.146 135.972 125.905 136.58 127.272 137.035C128.638 137.642 130.612 138.098 132.738 138.098C134.863 138.098 136.837 137.491 138.204 136.883C139.57 136.276 140.329 135.669 140.329 135.82Z" fill="#3D3D3D"/>
<path opacity="0.25" d="M136.533 126.863C136.533 126.863 136.381 127.318 135.622 127.774C135.015 128.229 133.8 128.533 132.434 128.229C131.219 127.774 130.46 126.863 130.156 126.104C129.853 125.345 130.005 124.737 130.005 124.737C130.156 124.737 130.156 125.193 130.46 125.8C130.764 126.407 131.523 127.318 132.586 127.622C133.649 127.926 134.711 127.774 135.319 127.47C136.078 127.167 136.533 126.711 136.533 126.863Z" fill="#3D3D3D"/>
<path opacity="0.25" d="M130.764 124.434C130.764 124.585 130.156 124.737 129.549 125.193C128.942 125.648 128.638 126.256 128.486 126.104C128.334 126.104 128.486 125.193 129.094 124.737C130.005 124.13 130.764 124.282 130.764 124.434Z" fill="#3D3D3D"/>
<path opacity="0.25" d="M116.34 124.585C116.34 124.585 115.885 124.737 115.277 124.585C114.974 124.433 114.518 124.13 114.366 123.674C114.214 123.522 114.214 123.219 114.366 122.915C114.366 122.611 114.67 122.308 114.974 122.308C115.429 122.156 115.885 122.308 116.188 122.611L115.733 122.915C115.277 121.7 114.974 120.638 114.974 120.638C115.125 120.638 115.581 121.397 116.188 122.763L115.733 123.067C115.733 122.915 115.429 122.915 115.277 122.915C114.974 123.067 114.974 123.371 114.974 123.674C115.125 123.978 115.277 124.13 115.429 124.282C115.885 124.433 116.34 124.433 116.34 124.585Z" fill="#3D3D3D"/>
<path opacity="0.25" d="M141.999 113.502C141.847 113.502 141.544 113.047 141.392 112.287C141.24 111.528 141.24 111.073 141.392 110.921C141.544 110.921 141.847 111.376 141.999 112.136C142.151 112.895 142.151 113.502 141.999 113.502Z" fill="#3D3D3D"/>
<path opacity="0.25" d="M129.397 114.868C129.246 114.868 128.942 114.413 128.79 113.654C128.638 112.894 128.638 112.287 128.79 112.287C128.942 112.287 129.246 112.743 129.397 113.502C129.549 114.109 129.549 114.716 129.397 114.868Z" fill="#3D3D3D"/>
<path opacity="0.25" d="M115.429 117.298C113.303 112.591 112.696 108.036 112.241 103.026C112.089 100.901 111.937 98.7749 112.544 96.8011C113.152 94.8273 114.366 93.0054 116.34 92.0944C119.073 90.8798 122.413 92.2463 125.146 91.1834C126.513 90.728 127.727 89.5133 128.79 88.4505C129.853 87.3877 130.764 86.1731 131.978 85.2621C133.193 84.3511 134.711 83.7438 136.23 84.0475C137.748 84.3511 139.114 85.7176 138.811 87.2359C140.177 84.6548 143.062 82.9847 145.947 83.1365C148.831 83.2883 151.564 85.1103 152.779 87.6914C153.994 90.2725 153.538 93.6127 151.716 95.8901C150.046 98.0158 146.858 98.1676 144.732 99.8377C140.329 103.33 133.193 104.089 126.209 102.571C123.172 101.811 119.528 103.026 118.921 106.215C118.769 107.277 118.921 111.832 118.921 113.047C118.921 114.261 118.921 115.476 118.314 116.387C117.707 117.146 116.34 117.754 115.429 117.298Z" fill="#3D3D3D"/>
<path opacity="0.25" d="M128.638 109.098C128.487 109.554 127.879 109.706 127.12 110.009C126.513 110.161 125.754 110.313 125.45 110.009C125.298 109.858 125.298 109.554 125.45 109.25C125.602 108.947 126.057 108.491 126.665 108.339C127.272 108.187 127.727 108.339 128.183 108.491C128.487 108.643 128.638 108.947 128.638 109.098Z" fill="#3D3D3D"/>
<path opacity="0.25" d="M142.455 106.973C142.303 107.429 141.544 107.58 140.633 107.58C139.874 107.58 139.114 107.732 138.811 107.277C138.507 106.821 139.266 105.91 140.481 105.91C141.695 105.759 142.606 106.518 142.455 106.973Z" fill="#3D3D3D"/>
<path opacity="0.25" d="M113.759 231.928C113.607 231.928 112.392 227.222 111.178 221.148C109.963 215.227 109.052 210.369 109.204 210.217C109.356 210.217 110.571 214.923 111.785 220.997C113.152 227.07 113.911 231.928 113.759 231.928Z" fill="#3D3D3D"/>
<path opacity="0.25" d="M113.152 212.646C113.152 212.798 112.696 213.102 112.089 213.406C111.482 213.709 110.874 213.861 110.722 213.709C110.722 213.557 111.178 213.254 111.785 212.95C112.393 212.646 113 212.495 113.152 212.646Z" fill="#3D3D3D"/>
<path opacity="0.25" d="M154.753 174.082C154.753 174.234 152.02 174.841 148.528 175.448C145.036 176.056 142.303 176.511 142.303 176.359C142.303 176.208 145.036 175.6 148.528 174.993C152.02 174.234 154.753 173.93 154.753 174.082Z" fill="#3D3D3D"/>
<path opacity="0.25" d="M94.7804 156.165C94.7804 156.165 94.9322 156.165 95.2359 156.317C95.5395 156.317 95.8432 156.469 96.2987 156.621C97.2097 157.076 98.4243 157.683 99.6389 158.898C100.854 160.113 102.22 161.783 102.979 163.908C103.89 166.034 104.346 168.615 104.194 171.196C104.042 176.51 102.22 181.065 100.854 184.102C100.094 185.62 99.4871 186.986 99.1834 187.745C98.7279 188.656 98.4243 189.112 98.4243 189.112C98.4243 189.112 98.5761 188.656 98.8798 187.745C99.3353 186.834 99.7908 185.468 100.398 183.95C101.613 180.761 103.435 176.358 103.435 171.196C103.435 168.615 103.131 166.186 102.22 164.06C101.461 161.935 100.246 160.264 99.0316 159.05C96.906 156.772 94.7804 156.317 94.7804 156.165Z" fill="#3D3D3D"/>
<path opacity="0.25" d="M133.041 448.589C133.041 448.589 133.041 448.437 132.889 448.133C132.889 447.83 132.738 447.223 132.738 446.615C132.586 445.249 132.434 443.275 132.13 440.694C131.523 435.532 130.764 428.092 129.853 418.83C128.031 400.459 125.905 374.952 124.083 346.712C122.261 318.472 121.047 292.964 120.288 274.441C119.984 265.18 119.68 257.74 119.529 252.578C119.529 249.997 119.377 248.023 119.377 246.656C119.377 246.049 119.377 245.442 119.377 245.138C119.377 244.834 119.377 244.683 119.377 244.683C119.377 244.683 119.377 244.834 119.377 245.138C119.377 245.442 119.377 246.049 119.377 246.656C119.377 248.023 119.529 249.997 119.68 252.578C119.832 257.74 120.136 265.18 120.591 274.441C121.35 292.964 122.717 318.472 124.539 346.56C126.361 374.8 128.486 400.156 130.157 418.679C131.068 427.94 131.675 435.38 132.13 440.542C132.434 443.123 132.586 445.097 132.738 446.463C132.738 447.071 132.889 447.678 132.889 447.982C133.041 448.285 133.041 448.589 133.041 448.589Z" fill="#3D3D3D"/>
<path opacity="0.25" d="M189.673 449.65C189.673 449.65 189.673 449.498 189.522 449.195C189.37 448.891 189.37 448.284 189.218 447.676C188.914 446.31 188.459 444.336 188.003 441.755C186.941 436.593 185.574 429.001 183.752 419.74C180.26 401.065 175.705 375.254 170.543 346.862C165.381 318.47 160.37 292.659 156.423 274.136C155.512 269.429 154.449 265.33 153.69 261.686C152.931 258.042 152.172 254.854 151.564 252.273C150.957 249.691 150.502 247.718 150.198 246.351C150.046 245.744 149.894 245.137 149.894 244.833C149.894 244.529 149.742 244.226 149.742 244.226C149.742 244.226 149.742 244.377 149.894 244.681C150.046 244.985 150.046 245.592 150.35 246.199C150.653 247.566 151.109 249.54 151.868 252.121C152.475 254.702 153.235 257.89 154.145 261.534C154.905 265.178 155.967 269.429 156.878 273.984C160.978 292.507 165.988 318.166 171.15 346.71C176.161 375.102 180.867 400.913 184.056 419.588C185.726 428.85 187.092 436.441 188.155 441.603C188.611 444.184 189.066 446.158 189.218 447.676C189.37 448.284 189.37 448.891 189.522 449.195C189.673 449.498 189.673 449.65 189.673 449.65Z" fill="#3D3D3D"/>
<path opacity="0.25" d="M113 245.138C113 245.138 113.455 246.049 113.607 247.871C113.759 249.541 113.455 252.122 112.089 254.551C110.722 256.98 108.749 258.499 107.079 259.258C105.56 260.017 104.346 260.169 104.346 260.017C104.346 259.865 105.408 259.713 106.775 258.802C108.293 258.043 110.115 256.525 111.482 254.247C112.696 251.97 113.152 249.541 113 247.871C113.303 246.201 113 245.138 113 245.138Z" fill="#3D3D3D"/>
<path opacity="0.25" d="M141.392 262.902C141.392 262.902 141.392 263.357 140.936 263.813C140.481 264.268 139.57 264.724 138.355 264.42C137.748 264.268 137.141 263.813 136.837 263.206C136.533 262.598 136.382 261.839 136.23 261.08C135.926 259.562 135.774 258.043 135.471 256.373C135.015 253.033 134.56 249.997 134.256 247.719C133.952 245.442 133.8 244.075 133.952 244.075C134.104 244.075 134.256 245.442 134.711 247.567C135.167 249.693 135.622 252.729 136.078 256.222C136.382 257.892 136.533 259.41 136.837 260.928C136.989 261.687 136.989 262.295 137.292 262.902C137.596 263.509 138.052 263.813 138.507 263.965C139.57 264.268 140.329 263.965 140.785 263.509C141.24 263.206 141.392 262.902 141.392 262.902Z" fill="#3D3D3D"/>
<path opacity="0.25" d="M166.292 256.829C166.292 256.829 165.988 256.829 165.533 256.829C165.077 256.829 164.47 256.677 163.711 256.525C162.952 256.373 162.041 255.918 161.13 255.462C160.219 254.855 159.156 254.247 158.397 253.337C157.486 252.426 156.878 251.515 156.271 250.604C155.816 249.693 155.36 248.782 155.208 248.022C155.056 247.263 154.905 246.656 154.905 246.201C154.905 245.745 154.905 245.441 154.905 245.441C155.056 245.441 155.056 246.504 155.664 247.871C155.967 248.63 156.271 249.541 156.878 250.3C157.486 251.211 158.093 252.122 159.004 252.881C159.915 253.792 160.826 254.399 161.737 255.007C162.648 255.462 163.559 255.918 164.166 256.221C165.381 256.677 166.292 256.677 166.292 256.829Z" fill="#3D3D3D"/>
</g>
<path d="M222.165 60.2105C222.165 60.2105 228.086 45.4831 228.845 46.8496C229.756 48.216 228.086 50.3417 228.542 53.8337C228.542 53.8337 239.321 40.7764 239.929 42.2947C240.536 43.813 233.856 52.6191 234.007 52.7709C234.159 52.9228 242.054 43.813 242.814 44.724C243.573 45.7868 236.285 54.2892 236.285 54.2892C236.285 54.2892 243.725 46.8496 244.635 47.9124C245.546 48.9752 238.714 55.8075 238.714 55.8075C238.714 55.8075 244.484 50.1898 245.395 51.1008C245.85 51.7081 231.275 70.0794 231.73 70.3831C231.882 70.8386 222.165 60.2105 222.165 60.2105Z" fill="#F9B9B4"/>
<path d="M98.4241 238.305C99.0314 242.101 105.712 369.182 113.607 451.777H144.884C144.884 451.777 129.397 261.231 133.041 260.928C137.292 260.624 172.972 451.777 172.972 451.777H202.882L157.334 232.688L98.4241 238.305Z" fill="#251A51"/>
<path d="M223.531 56.415C223.531 56.415 197.113 87.9955 182.689 101.356C168.266 114.717 138.963 132.026 138.963 132.026C132.13 133.392 127.575 134.759 124.387 135.518C114.822 138.099 112.696 138.403 106.016 140.984C93.7175 145.842 83.5449 154.648 77.1681 165.884C68.0584 182.129 56.3675 207.789 58.1895 230.411C60.1633 254.856 80.812 247.568 95.8431 238.762C95.8431 239.369 95.9949 239.824 95.9949 239.824H160.219V165.732C160.219 165.732 160.219 164.973 160.067 163.758L160.219 163.91C160.219 163.91 183.6 135.67 194.532 124.586C213.207 105.759 234.311 70.2315 234.311 70.2315L223.531 56.415ZM87.037 213.71L94.3248 183.648C94.7803 188.81 92.1992 206.27 92.6547 211.129L87.037 213.71Z" fill="url(#paint5_linear)"/>
<path d="M115.581 137.644C115.581 137.644 111.33 157.078 117.251 154.345C123.172 151.46 127.424 148.879 127.424 148.879C127.424 148.879 133.193 156.015 136.078 151.764C138.963 147.361 133.345 133.089 133.345 133.089L115.581 137.644Z" fill="#F4D3B9"/>
<path d="M110.722 94.372L112.089 112.136C112.089 112.136 105.408 113.047 107.382 119.12C109.356 125.193 113.911 122.612 113.911 122.612C113.911 122.612 115.125 138.251 131.067 133.24C147.009 128.23 141.695 103.482 140.177 88.6025L110.722 94.372Z" fill="#F9B9B4"/>
<path d="M112.089 118.665L116.34 141.591C117.251 146.753 122.413 150.094 127.575 148.879C132.282 147.816 135.319 143.11 134.559 138.251L132.282 125.042L112.089 118.665Z" fill="#F9B9B4"/>
<g opacity="0.36">
<path opacity="0.36" d="M114.366 222.212C114.366 222.212 114.214 222.516 113.759 223.123C113.303 223.73 112.696 224.489 111.785 225.4C110.115 227.222 107.534 229.803 104.497 232.233C101.461 234.814 98.576 236.788 96.4504 238.154C95.3876 238.761 94.4766 239.369 93.8693 239.672C93.262 239.976 92.8065 240.128 92.8065 240.128C92.8065 239.976 94.0212 239.217 96.1468 237.699C98.2724 236.332 101.157 234.207 104.042 231.625C107.078 229.196 109.508 226.767 111.33 224.945C113.303 223.275 114.366 222.06 114.366 222.212Z" fill="#251A51"/>
</g>
<g opacity="0.36">
<path opacity="0.36" d="M82.1785 221.453C82.0267 221.301 82.9377 219.479 84.1523 217.353C85.367 215.228 86.5816 213.558 86.5816 213.558C86.7334 213.709 85.8224 215.531 84.6078 217.657C83.545 219.783 82.3304 221.453 82.1785 221.453Z" fill="#251A51"/>
</g>
<g opacity="0.36">
<path opacity="0.36" d="M86.5815 214.165C86.5815 214.165 87.1889 213.861 88.2517 213.254C89.4663 212.647 90.9846 212.039 92.8065 211.128C96.6023 209.306 102.068 206.725 107.838 203.841C108.749 203.385 109.811 202.93 110.722 202.474L111.026 202.322V202.778C111.785 208.547 112.544 213.558 113 217.202C113.152 219.023 113.455 220.39 113.607 221.453C113.759 222.516 113.759 222.971 113.759 222.971C113.759 222.971 113.607 222.364 113.455 221.453C113.303 220.39 113 218.872 112.696 217.202C112.089 213.558 111.33 208.547 110.419 202.778L110.874 202.93C109.963 203.385 109.052 203.841 107.989 204.448C102.22 207.333 96.7541 209.914 92.9584 211.584C90.9846 212.495 89.4663 213.102 88.2517 213.558C87.1889 214.013 86.5815 214.165 86.5815 214.165Z" fill="#251A51"/>
</g>
<g opacity="0.36">
<path opacity="0.36" d="M87.0371 213.406C87.1889 213.558 85.6706 214.925 83.6968 216.595C81.723 218.265 80.0529 219.48 79.9011 219.48C79.7493 219.328 81.2676 217.961 83.2413 216.291C85.2151 214.469 86.8852 213.255 87.0371 213.406Z" fill="#251A51"/>
</g>
<g opacity="0.36">
<path opacity="0.36" d="M129.853 239.977C129.701 239.977 128.942 220.239 128.334 195.946C127.575 171.654 127.12 151.916 127.272 151.916C127.423 151.916 128.183 171.654 128.79 195.946C129.549 220.239 130.005 239.977 129.853 239.977Z" fill="#251A51"/>
</g>
<path d="M111.633 206.574C111.633 206.574 124.539 197.313 124.539 198.983C124.539 200.653 122.11 201.564 120.439 204.752C120.439 204.752 136.533 199.59 136.23 201.26C135.926 202.778 125.602 206.574 125.602 206.878C125.602 207.181 137.141 203.689 137.292 204.904C137.444 206.271 126.664 209.459 126.664 209.459C126.664 209.459 136.837 207.182 137.141 208.7C137.444 210.066 127.879 212.192 127.879 212.192C127.879 212.192 135.774 210.522 135.926 211.888C136.078 212.647 113.911 220.087 113.911 220.694C114.214 220.694 111.633 206.574 111.633 206.574Z" fill="#F9B9B4"/>
<g opacity="0.36">
<path opacity="0.36" d="M231.73 73.8754C231.578 74.0272 228.693 71.2943 225.05 67.8023C221.558 64.3102 218.673 61.4254 218.825 61.2736C218.976 61.1218 221.861 63.8547 225.505 67.3468C228.997 70.8388 231.73 73.7236 231.73 73.8754Z" fill="#251A51"/>
</g>
<path d="M129.853 118.816C129.853 118.816 130.005 118.968 130.46 119.12C130.764 119.272 131.371 119.12 131.827 118.513C132.282 117.905 132.282 117.146 132.13 116.083C131.978 115.021 131.978 113.958 131.827 112.895C131.675 110.618 131.523 108.644 131.371 107.126C131.219 105.607 131.219 104.696 131.371 104.696C131.523 104.696 131.675 105.607 131.827 107.126C131.978 108.644 132.282 110.618 132.434 112.895C132.586 113.958 132.586 115.021 132.738 116.083C132.889 116.994 132.738 118.057 132.282 118.816C131.675 119.424 130.916 119.576 130.46 119.272C129.853 119.12 129.853 118.816 129.853 118.816Z" fill="#251A51"/>
<path d="M135.622 131.114C135.622 131.114 135.015 131.874 133.648 132.481C132.282 133.24 130.308 133.847 128.031 133.999C125.753 133.999 123.628 133.392 122.413 132.785C121.047 132.177 120.439 131.418 120.439 131.418C120.439 131.266 121.198 131.874 122.565 132.329C123.931 132.936 125.905 133.392 128.031 133.392C130.156 133.392 132.13 132.785 133.497 132.177C134.863 131.57 135.47 130.963 135.622 131.114Z" fill="#251A51"/>
<path d="M131.827 122.157C131.827 122.157 131.675 122.612 130.916 123.068C130.308 123.523 129.094 123.827 127.727 123.523C126.513 123.068 125.753 122.157 125.45 121.398C125.146 120.639 125.298 120.031 125.298 120.031C125.45 120.031 125.45 120.487 125.753 121.094C126.057 121.701 126.816 122.612 127.879 122.916C128.942 123.22 130.005 123.068 130.612 122.764C131.371 122.461 131.675 122.005 131.827 122.157Z" fill="#251A51"/>
<path d="M126.057 119.728C126.057 119.879 125.45 120.031 124.842 120.487C124.235 120.942 123.931 121.55 123.78 121.398C123.628 121.398 123.78 120.487 124.387 120.031C125.298 119.424 126.057 119.576 126.057 119.728Z" fill="#251A51"/>
<path d="M111.633 119.879C111.633 119.879 111.178 120.031 110.57 119.879C110.267 119.727 109.811 119.424 109.66 118.968C109.508 118.816 109.508 118.513 109.66 118.209C109.66 117.905 109.963 117.602 110.267 117.602C110.722 117.45 111.178 117.602 111.481 117.905L111.026 118.209C110.57 116.994 110.267 115.932 110.267 115.932C110.419 115.932 110.874 116.691 111.481 118.057L111.026 118.361C111.026 118.209 110.722 118.209 110.57 118.209C110.267 118.361 110.267 118.665 110.267 118.968C110.419 119.272 110.57 119.424 110.722 119.576C111.178 119.727 111.633 119.727 111.633 119.879Z" fill="#251A51"/>
<path d="M137.292 108.796C137.141 108.796 136.837 108.34 136.685 107.581C136.533 106.822 136.533 106.367 136.685 106.215C136.837 106.215 137.141 106.67 137.292 107.429C137.444 108.189 137.444 108.796 137.292 108.796Z" fill="#251A51"/>
<path d="M124.691 110.162C124.539 110.162 124.235 109.707 124.083 108.948C123.932 108.188 123.932 107.581 124.083 107.581C124.235 107.581 124.539 108.037 124.691 108.796C124.842 109.403 124.842 110.01 124.691 110.162Z" fill="#251A51"/>
<path d="M110.571 112.44C108.445 107.733 107.838 103.178 107.382 98.1677C107.23 96.0421 107.078 93.9165 107.686 91.9427C108.293 89.9689 109.508 88.147 111.482 87.236C114.214 86.0214 117.555 87.3879 120.288 86.325C121.654 85.8696 122.869 84.6549 123.931 83.5921C124.994 82.5293 125.905 81.3147 127.12 80.4037C128.335 79.4927 129.853 78.8854 131.371 79.1891C132.889 79.4927 134.256 80.8592 133.952 82.3775C135.319 79.7964 138.203 78.1263 141.088 78.2781C143.973 78.4299 146.706 80.2519 147.92 82.833C149.135 85.4141 148.68 88.7543 146.858 91.0318C145.188 93.1574 141.999 93.3092 139.874 94.9793C135.471 98.4714 128.335 99.2305 121.35 97.7122C118.314 96.9531 114.67 98.1677 114.063 101.356C113.911 102.419 114.063 106.974 114.063 108.188C114.063 109.403 114.063 110.618 113.455 111.529C113 112.44 111.633 113.047 110.571 112.44Z" fill="#251A51"/>
<path d="M123.931 104.392C123.78 104.848 123.172 105 122.413 105.303C121.806 105.455 121.047 105.607 120.743 105.303C120.591 105.151 120.591 104.848 120.743 104.544C120.895 104.241 121.35 103.785 121.958 103.633C122.565 103.481 123.02 103.633 123.476 103.785C123.78 103.937 123.931 104.089 123.931 104.392Z" fill="#251A51"/>
<path d="M137.596 102.115C137.444 102.57 136.685 102.722 135.774 102.722C135.015 102.722 134.256 102.874 133.952 102.419C133.649 101.963 134.408 101.052 135.622 101.052C136.989 100.9 137.9 101.811 137.596 102.115Z" fill="#251A51"/>
<g opacity="0.36">
<path opacity="0.36" d="M109.052 227.222C108.9 227.222 107.686 222.516 106.471 216.442C105.256 210.521 104.345 205.663 104.497 205.511C104.649 205.511 105.864 210.217 107.078 216.291C108.293 222.364 109.204 227.222 109.052 227.222Z" fill="#251A51"/>
</g>
<g opacity="0.36">
<path opacity="0.36" d="M108.445 207.94C108.445 208.092 107.989 208.396 107.382 208.7C106.775 209.003 106.167 209.155 106.016 209.003C106.016 208.851 106.471 208.548 107.078 208.244C107.686 207.789 108.293 207.789 108.445 207.94Z" fill="#251A51"/>
</g>
<g opacity="0.36">
<path opacity="0.36" d="M150.046 169.223C150.046 169.375 147.313 169.982 143.821 170.589C140.329 171.197 137.596 171.652 137.596 171.5C137.596 171.348 140.329 170.741 143.821 170.134C147.313 169.526 150.046 169.071 150.046 169.223Z" fill="#251A51"/>
</g>
<g opacity="0.36">
<path opacity="0.36" d="M90.0736 151.459C90.0736 151.459 90.2254 151.459 90.5291 151.611C90.8327 151.611 91.1364 151.763 91.5919 151.914C92.5029 152.37 93.7175 152.977 94.9321 154.192C96.1468 155.407 97.5132 157.077 98.2724 159.202C99.1833 161.328 99.6388 163.909 99.487 166.49C99.3352 171.804 97.5132 176.359 96.1468 179.396C95.3876 180.914 94.7803 182.28 94.4766 183.039C94.0212 183.95 93.7175 184.406 93.7175 184.406C93.7175 184.406 93.8693 183.95 94.173 183.039C94.6285 182.128 95.084 180.762 95.6913 179.244C96.9059 176.055 98.7279 171.652 98.7279 166.49C98.7279 163.909 98.4242 161.48 97.5132 159.354C96.7541 157.228 95.5394 155.558 94.3248 154.344C92.1992 152.066 89.9218 151.611 90.0736 151.459Z" fill="#251A51"/>
</g>
<path d="M128.183 443.731C128.183 443.731 128.183 443.579 128.031 443.275C128.031 442.971 127.879 442.364 127.879 441.757C127.727 440.39 127.575 438.417 127.272 435.836C126.665 430.673 125.905 423.234 124.994 413.972C123.172 395.601 121.047 370.094 119.225 341.853C117.403 313.613 116.188 288.106 115.429 269.583C115.126 260.321 114.822 252.882 114.67 247.719C114.67 245.138 114.518 243.164 114.518 241.798C114.518 241.191 114.518 240.583 114.518 240.28C114.518 239.976 114.518 239.824 114.518 239.824C114.518 239.824 114.518 239.976 114.518 240.28C114.518 240.583 114.518 241.191 114.518 241.798C114.518 243.164 114.67 245.138 114.822 247.719C114.974 252.882 115.277 260.321 115.733 269.583C116.492 288.106 117.858 313.613 119.68 341.702C121.502 369.942 123.628 395.297 125.298 413.82C126.209 423.082 126.816 430.521 127.272 435.684C127.575 438.265 127.727 440.239 127.879 441.605C127.879 442.212 128.031 442.82 128.031 443.123C128.183 443.579 128.183 443.731 128.183 443.731Z" fill="#4A4182"/>
<path d="M184.967 444.944C184.967 444.944 184.967 444.792 184.815 444.489C184.663 444.185 184.663 443.578 184.511 442.97C184.208 441.604 183.752 439.63 183.297 437.049C182.234 431.887 180.867 424.295 179.045 415.034C175.553 396.359 170.999 370.548 165.836 342.156C160.674 313.764 155.664 287.953 151.716 269.43C150.805 264.723 149.742 260.624 148.983 256.98C148.224 253.336 147.465 250.148 146.858 247.566C146.25 244.985 145.795 243.012 145.491 241.645C145.339 241.038 145.188 240.431 145.188 240.127C145.188 239.823 145.036 239.52 145.036 239.52C145.036 239.52 145.036 239.671 145.188 239.975C145.339 240.279 145.339 240.886 145.643 241.493C145.947 242.86 146.402 244.834 147.161 247.415C147.769 249.996 148.528 253.184 149.439 256.828C150.198 260.472 151.261 264.723 152.172 269.278C156.271 287.801 161.281 313.46 166.444 342.004C171.454 370.396 176.161 396.207 179.349 414.882C181.019 424.144 182.386 431.735 183.449 436.897C183.904 439.478 184.359 441.452 184.511 442.97C184.663 443.578 184.663 444.185 184.815 444.489C184.967 444.792 184.967 444.944 184.967 444.944Z" fill="#4A4182"/>
<path d="M108.293 240.432C108.293 240.432 108.749 241.343 108.9 243.165C109.052 244.835 108.749 247.416 107.382 249.845C106.016 252.274 104.042 253.793 102.372 254.552C100.853 255.311 99.6388 255.463 99.6388 255.311C99.6388 255.159 100.702 255.007 102.068 254.096C103.586 253.337 105.408 251.819 106.775 249.541C107.989 247.264 108.445 244.835 108.293 243.165C108.597 241.494 108.293 240.432 108.293 240.432Z" fill="#4A4182"/>
<path d="M136.685 258.196C136.685 258.196 136.685 258.651 136.23 259.107C135.774 259.562 134.863 260.018 133.649 259.714C133.041 259.562 132.434 259.107 132.13 258.5C131.827 257.892 131.675 257.133 131.523 256.374C131.219 254.856 131.068 253.337 130.764 251.667C130.308 248.327 129.853 245.29 129.549 243.013C129.246 240.736 129.094 239.369 129.246 239.369C129.397 239.369 129.549 240.736 130.005 242.861C130.46 244.987 130.916 248.023 131.371 251.515C131.675 253.186 131.827 254.704 132.13 256.222C132.282 256.981 132.282 257.589 132.586 258.196C132.889 258.803 133.345 259.107 133.8 259.259C134.863 259.562 135.622 259.259 136.078 258.803C136.533 258.5 136.685 258.196 136.685 258.196Z" fill="#4A4182"/>
<path d="M161.585 252.123C161.585 252.123 161.282 252.123 160.826 252.123C160.371 252.123 159.763 251.971 159.004 251.819C158.245 251.667 157.334 251.212 156.423 250.756C155.512 250.149 154.449 249.541 153.69 248.63C152.779 247.719 152.172 246.809 151.564 245.898C151.109 244.987 150.653 244.076 150.502 243.316C150.35 242.557 150.198 241.95 150.198 241.494C150.198 241.039 150.198 240.735 150.198 240.735C150.35 240.735 150.35 241.798 150.957 243.165C151.261 243.924 151.564 244.835 152.172 245.594C152.779 246.505 153.386 247.416 154.297 248.175C155.208 249.086 156.119 249.693 157.03 250.301C157.941 250.756 158.852 251.212 159.46 251.515C160.674 251.971 161.585 251.971 161.585 252.123Z" fill="#4A4182"/>
<g opacity="0.1">
<path opacity="0.1" d="M68.5138 31.3636L72.9169 57.4782C73.0687 58.541 73.9797 59.3001 75.0425 59.1483L114.063 57.1745L118.01 63.3995L118.162 57.0227L125.905 56.5672C126.968 56.5672 128.031 55.6562 128.031 54.5934L128.942 31.2117C128.942 29.9971 128.031 29.0861 126.816 29.0861H70.4876C69.273 28.9343 68.2102 30.1489 68.5138 31.3636Z" fill="#7F7F7F"/>
<path opacity="0.1" d="M122.109 41.2321H78.6864C78.2309 41.2321 77.7754 40.7766 77.7754 40.3211V40.0174C77.7754 39.5619 78.2309 39.1064 78.6864 39.1064H122.109C122.565 39.1064 123.02 39.5619 123.02 40.0174V40.3211C123.02 40.9284 122.565 41.2321 122.109 41.2321Z" fill="#7F7F7F"/>
<path opacity="0.1" d="M105.408 46.0914H79.2937C78.8382 46.0914 78.3827 45.6359 78.3827 45.1805V44.8768C78.3827 44.4213 78.8382 43.9658 79.2937 43.9658H105.56C106.016 43.9658 106.471 44.4213 106.471 44.8768V45.1805C106.319 45.7878 105.864 46.0914 105.408 46.0914Z" fill="#7F7F7F"/>
</g>
<path d="M62.4407 25.2903L66.8438 51.4049C66.9956 52.4677 67.9066 53.2269 68.9694 53.075L107.989 51.1013L111.937 57.3263L112.089 50.9494L119.832 50.494C120.895 50.494 121.958 49.583 121.958 48.5202L122.869 25.1385C122.869 23.9239 121.958 23.0129 120.743 23.0129H64.4145C63.1999 22.8611 62.1371 24.0757 62.4407 25.2903Z" fill="#EDC483"/>
<path d="M116.036 35.1588H72.6131C72.1577 35.1588 71.854 34.8552 71.854 34.2478V33.9442C71.854 33.4887 72.1577 33.0332 72.6131 33.0332H116.036C116.492 33.0332 116.947 33.4887 116.947 33.9442V34.2478C116.947 34.8552 116.492 35.1588 116.036 35.1588Z" fill="white"/>
<path d="M99.3351 40.0182H73.2205C72.7651 40.0182 72.3096 39.5627 72.3096 39.1072V38.8036C72.3096 38.3481 72.7651 37.8926 73.2205 37.8926H99.487C99.9425 37.8926 100.398 38.3481 100.398 38.8036V39.1072C100.246 39.7145 99.7906 40.0182 99.3351 40.0182Z" fill="white"/>
</g>
<defs>
<linearGradient id="paint0_linear" x1="275.724" y1="25.9374" x2="144.716" y2="146.801" gradientUnits="userSpaceOnUse">
<stop offset="0.0500413" stop-color="#9668F7"/>
<stop offset="1" stop-color="#78D8FB"/>
</linearGradient>
<linearGradient id="paint1_linear" x1="293.854" y1="45.4762" x2="162.55" y2="166.614" gradientUnits="userSpaceOnUse">
<stop offset="0.0500413" stop-color="#9668F7"/>
<stop offset="1" stop-color="#78D8FB"/>
</linearGradient>
<linearGradient id="paint2_linear" x1="304.326" y1="54.8863" x2="171.692" y2="177.25" gradientUnits="userSpaceOnUse">
<stop offset="0.0500413" stop-color="#9668F7"/>
<stop offset="1" stop-color="#78D8FB"/>
</linearGradient>
<linearGradient id="paint3_linear" x1="321.051" y1="75.1267" x2="190.04" y2="195.993" gradientUnits="userSpaceOnUse">
<stop offset="0.0500413" stop-color="#9668F7"/>
<stop offset="1" stop-color="#78D8FB"/>
</linearGradient>
<linearGradient id="paint4_linear" x1="330.025" y1="83.5477" x2="197.392" y2="205.911" gradientUnits="userSpaceOnUse">
<stop offset="0.0500413" stop-color="#9668F7"/>
<stop offset="1" stop-color="#78D8FB"/>
</linearGradient>
<linearGradient id="paint5_linear" x1="142.539" y1="141.913" x2="174.756" y2="227.195" gradientUnits="userSpaceOnUse">
<stop stop-color="#E58F7E"/>
<stop offset="0.1391" stop-color="#E4857E"/>
<stop offset="0.6977" stop-color="#E0637F"/>
<stop offset="1" stop-color="#DE567F"/>
</linearGradient>
</defs>
</svg>
