<svg height="511pt" viewBox="0 -7 511.99999 511" width="511pt" xmlns="http://www.w3.org/2000/svg"><path d="m339.46875 320.042969c-28.261719-14.347657-58.042969-24.464844-88.441406-30.363281-13.960938-2.707032-24.117188-14.804688-24.117188-29.027344v-46.003906h-80.351562v46.003906c0 14.222656-10.152344 26.320312-24.113282 29.027344-30.402343 5.898437-60.179687 16.015624-88.441406 30.363281-20.859375 10.589843-34.003906 32-34.003906 55.394531v110.792969c0 6.660156 5.402344 12.0625 12.0625 12.0625h361.410156v-122.855469c0-23.394531-13.144531-44.804688-34.003906-55.394531zm0 0" fill="#fed6a6"/><path d="m339.46875 320.042969c-28.261719-14.347657-58.042969-24.464844-88.441406-30.363281-13.960938-2.707032-24.117188-14.804688-24.117188-29.027344v-46.003906h-51.136718v79.886718c0 14.222656 10.15625 26.320313 24.113281 29.027344 30.402343 5.898438 60.179687 16.015625 88.441406 30.363281 20.859375 10.589844 34.003906 32 34.003906 55.394531v88.972657h51.140625v-122.855469c0-23.394531-13.144531-44.804688-34.003906-55.394531zm0 0" fill="#efc79c"/><path d="m339.46875 320.042969c-26.210938-13.304688-53.730469-22.96875-81.835938-29.007813 0 .085938.011719.171875.011719.257813 0 20.714843-31.746093 37.507812-70.910156 37.507812-39.160156 0-70.910156-16.792969-70.910156-37.507812 0-.085938.011719-.171875.015625-.257813-28.109375 6.039063-55.625 15.703125-81.835938 29.007813-20.859375 10.589843-34.003906 32-34.003906 55.394531v110.792969c0 6.660156 5.402344 12.0625 12.0625 12.0625h361.410156v-122.855469c0-23.394531-13.144531-44.804688-34.003906-55.394531zm0 0" fill="#fc6a58"/><path d="m373.472656 498.292969v-122.855469c0-23.394531-13.144531-44.804688-34.003906-55.394531-26.210938-13.304688-53.730469-22.96875-81.835938-29.007813 0 .085938.011719.171875.011719.261719 0 15.917969-18.757812 29.511719-45.214843 34.957031 26.042968 6.089844 51.535156 15.304688 75.898437 27.675782 20.859375 10.585937 34.003906 32 34.003906 55.390624v88.972657zm0 0" fill="#e35052"/><path d="m209.40625.5h-45.34375c-49.34375 0-89.34375 40-89.34375 89.34375v55.007812h224.035156v-55.003906c0-49.34375-40.003906-89.347656-89.347656-89.347656zm0 0" fill="#fdbd37"/><path d="m209.40625.5h-45.34375c-.96875 0-1.929688.042969-2.898438.074219 48 1.53125 86.449219 40.898437 86.449219 89.269531v55.007812h51.140625v-55.007812c0-49.339844-40.003906-89.34375-89.347656-89.34375zm0 0" fill="#fa9a39"/><path d="m101.816406 113.355469h-14.605468c-12.398438 0-22.433594 10.050781-22.433594 22.445312v10.617188c0 12.394531 10.035156 22.445312 22.433594 22.445312h14.605468zm0 0" fill="#fed6a6"/><path d="m271.652344 113.355469h14.609375c12.394531 0 22.433593 10.050781 22.433593 22.445312v10.617188c0 12.394531-10.039062 22.445312-22.433593 22.445312h-14.609375zm0 0" fill="#fed6a6"/><path d="m104.761719 101.066406c-6.652344-1.148437-12.722657 4.007813-12.695313 10.761719l.269532 57.273437c0 70.355469 66.699218 92.644532 94.902343 92.886719 28.203125-.4375 94.265625-18.816406 94.265625-93.539062l-.242187-56.636719c-.023438-5.273438-4.417969-9.445312-9.6875-9.246094-20.6875.777344-39.027344-22.179687-46.4375-32.894531-1.757813-2.542969-5.410157-2.6875-7.433594-.351563-28.765625 33.164063-87.144531 36.207032-112.941406 31.746094zm0 0" fill="#ffe3c2"/><path d="m281.257812 111.8125c-.023437-5.273438-4.414062-9.445312-9.683593-9.246094-16.933594.636719-32.292969-14.628906-41.371094-26.066406l.226563 91.949219c0 56.324219-37.53125 80.628906-68.089844 89.375 9.515625 2.828125 18.269531 4.105469 24.898437 4.164062 28.203125-.4375 94.261719-18.816406 94.261719-93.539062zm0 0" fill="#f7d6b5"/><path d="m66.679688 498.289062v-90.605468c0-4.269532-3.457032-7.726563-7.726563-7.726563-4.265625 0-7.722656 3.460938-7.722656 7.726563v90.605468zm0 0" fill="#e35052"/><path d="m195.132812 176.589844h-6.953124c-6.089844 0-11.042969-4.953125-11.042969-11.042969v-21.097656c0-4.269531 3.457031-7.726563 7.722656-7.726563 4.269531 0 7.726563 3.457032 7.726563 7.726563v16.6875h2.542968c4.269532 0 7.726563 3.460937 7.726563 7.726562s-3.457031 7.726563-7.722657 7.726563zm0 0" fill="#d08f61"/><path d="m186.738281 222.375c-16.101562 0-30.691406-7.25-38.078125-18.921875-2.28125-3.605469-1.207031-8.378906 2.398438-10.660156 3.605468-2.28125 8.378906-1.207031 10.660156 2.394531 4.507812 7.128906 14.332031 11.734375 25.019531 11.734375 10.691407 0 20.511719-4.605469 25.019531-11.734375 2.285157-3.601562 7.054688-4.675781 10.664063-2.394531 3.605469 2.28125 4.675781 7.054687 2.394531 10.660156-7.382812 11.671875-21.976562 18.921875-38.078125 18.921875zm0 0" fill="#c35f58"/><path d="m235.035156 145.628906c-4.269531 0-7.726562-3.460937-7.726562-7.726562v-6.160156c0-4.269532 3.460937-7.726563 7.726562-7.726563s7.726563 3.460937 7.726563 7.726563v6.160156c0 4.269531-3.457031 7.726562-7.726563 7.726562zm0 0" fill="#844535"/><path d="m138.4375 145.628906c-4.269531 0-7.726562-3.460937-7.726562-7.726562v-6.160156c0-4.269532 3.457031-7.726563 7.726562-7.726563 4.265625 0 7.722656 3.460937 7.722656 7.726563v6.160156c0 4.269531-3.457031 7.726562-7.722656 7.726562zm0 0" fill="#844535"/><path d="m510.816406 399.160156c-1.351562-6.066406-7.367187-9.890625-13.433594-8.535156-6.066406 1.355469-9.890624 7.371094-8.535156 13.4375.019532.097656 2.0625 10.011719-1.273437 22.65625-4.59375 17.433594-16.921875 31.09375-36.632813 40.59375-18.285156 8.8125-31.148437 19.910156-40.175781 30.855469h32.429687c5.027344-3.773438 10.820313-7.351563 17.515626-10.578125 32.28125-15.558594 44.265624-38.566406 48.632812-55.132813 4.6875-17.777343 1.816406-31.761719 1.472656-33.296875zm0 0" fill="#7c513c"/><path d="m352.4375 357.78125h-.039062c-62.433594 0-111.332032 53.722656-105.46875 115.878906l2.320312 24.628906h198.566406c4.425782 0 8.121094-3.363281 8.539063-7.765624l1.585937-16.859376c5.863282-62.160156-43.035156-115.882812-105.472656-115.882812zm0 0" fill="#d08f61"/><path d="m352.46875 357.78125h-.070312c-7.199219 0-14.214844.722656-20.988282 2.082031 47.355469 9.925781 81.558594 54.171875 76.820313 104.421875l-3.203125 34.003906h42.789062c4.421875 0 8.121094-3.363281 8.535156-7.765624l1.589844-16.859376c5.863282-62.160156-43.035156-115.882812-105.472656-115.882812zm0 0" fill="#c67f4f"/><path d="m295.382812 498.289062v-25.527343c0-4.269531-3.460937-7.726563-7.726562-7.726563s-7.726562 3.457032-7.726562 7.726563v25.527343zm0 0" fill="#7c513c"/><path d="m424.941406 498.289062v-25.527343c0-4.269531-3.457031-7.726563-7.726562-7.726563-4.265625 0-7.726563 3.457032-7.726563 7.726563v25.527343zm0 0" fill="#7c513c"/><path d="m422.417969 228.230469-.101563-.128907c-2.246094-2.90625-4.800781-5.613281-7.621094-8.089843-10.429687-9.152344-25.46875-13.523438-40.457031-12.183594l-17.003906 4.460937c-.921875.082032-2.136719.121094-3.351563.121094-1.214843 0-2.429687-.039062-3.351562-.121094l-17.003906-4.460937c-14.988282-1.339844-30.027344 3.03125-40.457032 12.183594-2.820312 2.476562-5.375 5.183593-7.625 8.089843l-.097656.128907c-10.417968 13.472656-15.578125 29.34375-14.757812 45.402343 0 0 3.472656 53.511719 4.289062 57.121094 3.855469 17.078125 13.011719 32.488282 25.886719 44.351563 2.625 2.417969 5 4.863281 6.117187 6.679687 11.507813 18.675782 24.152344 30.394532 41.308594 30.394532h11.382813c17.15625 0 29.796875-11.722657 41.304687-30.394532 1.117188-1.816406 3.496094-4.261718 6.121094-6.679687 12.875-11.863281 22.03125-27.273438 25.886719-44.351563.8125-3.609375 4.289062-57.121094 4.289062-57.121094.816407-16.058593-4.339843-31.929687-14.757812-45.402343zm0 0" fill="#d08f61"/><path d="m422.414062 228.226562-.097656-.125c-2.246094-2.90625-4.800781-5.613281-7.625-8.089843-10.425781-9.15625-25.46875-13.523438-40.457031-12.183594l-10.761719 2.824219c15.371094 14.191406 23.558594 47.382812 22.765625 62.976562 0 0-3.476562 53.515625-4.292969 57.125-3.851562 17.078125-13.007812 32.484375-25.882812 44.351563-2.625 2.417969-5.003906 4.863281-6.121094 6.675781-6.589844 10.699219-13.558594 19.105469-21.527344 24.34375 5.945313 3.90625 12.449219 6.050781 19.777344 6.050781h11.382813c17.15625 0 29.800781-11.71875 41.304687-30.394531 1.117188-1.8125 3.496094-4.257812 6.121094-6.675781 12.875-11.867188 22.03125-27.273438 25.886719-44.351563.8125-3.609375 4.289062-57.125 4.289062-57.125.816407-16.054687-4.339843-31.925781-14.761719-45.402344zm0 0" fill="#c67f4f"/><g fill="#8b5f46"><path d="m236.617188 261.46875c-.371094 10.566406 4.996093 20.914062 14.949218 28.835938l.523438.414062c6.71875 5.347656 11.195312 11.949219 12.886718 19.007812l.914063 3.816407c.515625 2.152343 4.148437 3.058593 6.296875 1.570312 10.980469-7.59375 17.339844-18.042969 17.726562-29.144531l.144532-4.007812c.105468-3.03125-.234375-6.066407-1.019532-9.058594l-4.328124-18.40625c-1.582032-4.289063-1.078126-11.207032 1.359374-18.417969 4.472657-13.234375 16.152344-23.40625 30.757813-27.386719 0 .003906-84.050781-14.851562-80.210937 52.777344zm0 0"/><path d="m471.191406 261.46875c.371094 10.566406-4.996094 20.914062-14.949218 28.835938l-.523438.414062c-6.71875 5.347656-11.191406 11.949219-12.882812 19.007812l-.914063 3.816407c-.519531 2.152343-4.148437 3.058593-6.300781 1.570312-10.980469-7.59375-17.339844-18.042969-17.726563-29.144531l-.140625-4.007812c-.105468-3.03125.234375-6.066407 1.015625-9.058594l4.332031-18.40625c1.578126-4.289063 1.074219-11.207032-1.363281-18.417969-4.472656-13.234375-16.152343-23.40625-30.757812-27.386719 0 .003906 84.050781-14.851562 80.210937 52.777344zm0 0"/><path d="m400.882812 381.785156-13.890624-39.53125c-4.035157-11.484375-16.03125-18.121094-27.902344-15.441406-3.429688.773438-6.988282.785156-10.421875.03125l-.589844-.128906c-11.933594-2.621094-23.925781 4.148437-27.851563 15.71875l-13.34375 39.351562c11.507813 18.675782 24.152344 30.394532 41.308594 30.394532h11.382813c17.15625 0 29.800781-11.71875 41.308593-30.394532zm0 0"/><path d="m353.882812 381.785156c-31.167968 19.925782-47 0-47 0 11.507813 18.675782 24.152344 30.394532 41.308594 30.394532h11.382813c17.15625 0 29.796875-11.722657 41.304687-30.394532.003906 0-12.851562 17.054688-46.996094 0zm0 0"/></g><path d="m371.386719 358.730469c0 5.695312-7.835938 15.132812-17.503907 15.132812-9.667968 0-17.503906-9.4375-17.503906-15.132812 0-5.699219 7.839844-10.316407 17.503906-10.316407 9.667969 0 17.503907 4.617188 17.503907 10.316407zm0 0" fill="#7c513c"/><path d="m402.074219 305.238281c-4.265625 0-7.726563-3.457031-7.726563-7.726562 0-.496094-.402344-.902344-.902344-.902344s-.90625.40625-.90625.902344c0 4.269531-3.457031 7.726562-7.722656 7.726562-4.269531 0-7.726562-3.457031-7.726562-7.726562 0-9.019531 7.335937-16.355469 16.355468-16.355469 9.019532 0 16.359376 7.335938 16.359376 16.355469-.003907 4.269531-3.460938 7.726562-7.730469 7.726562zm0 0" fill="#8b5f46"/><path d="m322.996094 305.238281c-4.269532 0-7.726563-3.457031-7.726563-7.726562 0-.496094-.40625-.902344-.902343-.902344-.5 0-.90625.40625-.90625.902344 0 4.269531-3.457032 7.726562-7.726563 7.726562-4.265625 0-7.722656-3.457031-7.722656-7.726562 0-9.019531 7.335937-16.355469 16.355469-16.355469 9.019531 0 16.355468 7.335938 16.355468 16.355469 0 4.269531-3.457031 7.726562-7.726562 7.726562zm0 0" fill="#8b5f46"/><path d="m354.316406 390.5625c15.929688 7.15625 27.839844 7.472656 36.28125 5.480469 3.574219-4.105469 6.976563-8.890625 10.285156-14.257813l-3.046874-8.671875-3.050782 3.898438c-.03125.035156-.058594.074219-.089844.113281-.089843.121094-9.746093 11.523438-37.351562-2.269531-2.4375-1.214844-5.335938-1.066407-7.632812.40625-23.390626 14.957031-34.917969 3.773437-36.699219 1.773437l-3.046875-4.332031-3.078125 9.082031c3.605469 5.855469 7.328125 11.027344 11.261719 15.367188 2.917968.742187 6.121093 1.1875 9.597656 1.1875 7.644531-.003906 16.582031-2.121094 26.570312-7.777344zm0 0" fill="#7c513c"/></svg>