<svg width="163" height="66" viewBox="0 0 163 66" fill="none" xmlns="http://www.w3.org/2000/svg">
<g filter="url(#filter0_d)">
<rect x="4" y="9.74707" width="155" height="42.2536" rx="12" fill="#4C75A3"/>
<path d="M54.9624 43.5542C53.4968 44.4724 47.5344 44.7456 46.0913 43.6969C45.2996 43.1221 44.5758 42.4024 43.8879 41.718C43.4077 41.2389 42.8613 41.0063 42.4484 40.4866C42.112 40.0609 41.8805 39.5592 41.525 39.1404C40.9259 38.4357 40.0025 37.8366 39.2717 38.6973C38.1726 39.9913 39.4451 42.5352 37.9789 43.5026C37.487 43.8274 36.9911 43.9214 36.3769 43.875L35.0162 43.937C34.2164 43.9527 32.9503 43.9597 32.0414 43.7955C31.0264 43.6128 30.1895 43.0583 29.2731 42.6512C27.5319 41.8792 25.8725 40.8271 24.6105 39.3695C21.1757 35.4006 16.5618 29.9416 14.7696 24.9513C14.4001 23.9259 13.4275 21.8965 14.3503 21.0166C15.6054 20.1048 21.7679 19.8467 22.7284 21.2579C23.1193 21.8303 23.3652 22.6708 23.6413 23.3198C23.9846 24.1295 24.1714 24.8933 24.7085 25.6102C25.1841 26.2465 25.5356 26.8856 25.9039 27.5834C26.3174 28.3658 26.7072 29.1163 27.21 29.8372C27.5511 30.3273 28.453 31.3012 29.0225 31.3742C30.4134 31.5523 30.3264 28.1721 30.2231 27.3461C30.1245 26.551 30.0984 25.7076 30.1245 24.9009C30.1471 24.213 30.2092 23.2438 29.8015 22.6818C29.1374 21.7654 27.6584 22.4515 27.5424 21.2202C27.7871 20.8704 27.7349 20.5601 29.367 20.0231C30.6517 19.6002 31.4817 19.6136 32.3291 19.6814C34.0575 19.8201 35.8897 19.352 37.5572 19.9123C39.1499 20.4488 38.904 22.7125 38.8506 24.0697C38.7793 25.9228 38.8553 27.7307 38.8506 29.6105C38.8483 30.4671 38.8147 31.2994 39.8575 31.2304C40.8365 31.1649 40.9357 30.3418 41.4026 29.6621C42.0528 28.7149 42.6485 27.755 43.3102 26.8108C44.2017 25.5354 44.4702 24.1022 45.3095 22.7955C45.6099 22.3274 45.868 21.306 46.3303 20.9366C46.6806 20.6576 47.3453 20.7771 47.7687 20.7771H48.7756C49.547 20.7863 50.3335 20.7974 51.1252 20.8252C52.266 20.8646 53.5438 20.617 54.6753 20.7765C59.5566 21.4655 48.5401 31.9073 49.1131 33.7702C49.5099 35.0567 52.0224 36.498 52.9295 37.5524C54.1388 38.9548 57.8456 41.7499 54.9624 43.5542Z" fill="white"/>
<path d="M64.9521 31V20.3359H68.6875C69.9814 20.3359 70.9629 20.585 71.6318 21.083C72.3008 21.5762 72.6353 22.3013 72.6353 23.2583C72.6353 23.7808 72.501 24.2422 72.2324 24.6426C71.9639 25.0381 71.5903 25.3286 71.1118 25.5142C71.6587 25.6509 72.0884 25.9268 72.4009 26.3418C72.7183 26.7568 72.877 27.2646 72.877 27.8652C72.877 28.8906 72.5498 29.667 71.8955 30.1943C71.2412 30.7217 70.3086 30.9902 69.0977 31H64.9521ZM67.1494 26.3564V29.2349H69.0317C69.5493 29.2349 69.9521 29.1128 70.2402 28.8687C70.5332 28.6196 70.6797 28.2778 70.6797 27.8433C70.6797 26.8667 70.1743 26.3711 69.1636 26.3564H67.1494ZM67.1494 24.8037H68.7754C69.8838 24.7842 70.438 24.3423 70.438 23.478C70.438 22.9946 70.2964 22.6479 70.0132 22.438C69.7349 22.2231 69.293 22.1157 68.6875 22.1157H67.1494V24.8037ZM77.689 29.4399C78.0796 29.4399 78.397 29.3325 78.6411 29.1177C78.8853 28.9028 79.0122 28.6172 79.022 28.2607H81.0068C81.002 28.7979 80.8555 29.291 80.5674 29.7402C80.2793 30.1846 79.8838 30.5312 79.3809 30.7803C78.8828 31.0244 78.3311 31.1465 77.7256 31.1465C76.5928 31.1465 75.6992 30.7876 75.0449 30.0698C74.3906 29.3472 74.0635 28.3511 74.0635 27.0815V26.9424C74.0635 25.7217 74.3882 24.7476 75.0376 24.02C75.687 23.2925 76.5781 22.9287 77.7109 22.9287C78.7021 22.9287 79.4956 23.2119 80.0913 23.7783C80.6919 24.3398 80.9971 25.0894 81.0068 26.0269H79.022C79.0122 25.6167 78.8853 25.2847 78.6411 25.0308C78.397 24.772 78.0747 24.6426 77.6743 24.6426C77.1812 24.6426 76.8076 24.8232 76.5537 25.1846C76.3047 25.541 76.1802 26.1221 76.1802 26.9277V27.1475C76.1802 27.9629 76.3047 28.5488 76.5537 28.9053C76.8027 29.2617 77.1812 29.4399 77.689 29.4399ZM88.7925 24.7744H86.251V31H84.127V24.7744H81.6294V23.0752H88.7925V24.7744ZM92.9087 28.0044L94.3735 23.0752H96.644L93.458 32.2305L93.2822 32.6479C92.8086 33.6831 92.0273 34.2007 90.9385 34.2007C90.6309 34.2007 90.3184 34.1543 90.001 34.0615V32.4575L90.3232 32.4648C90.7236 32.4648 91.0215 32.4038 91.2168 32.2817C91.417 32.1597 91.5732 31.957 91.6855 31.6738L91.9346 31.022L89.1587 23.0752H91.4365L92.9087 28.0044ZM104.371 31H102.247V24.7891H99.5957V31H97.479V23.0752H104.371V31ZM110.765 23.0752H112.882V31H110.765V26.1074L108.114 31H105.99V23.0752H108.114V27.9604L110.765 23.0752ZM121.078 24.7744H118.536V31H116.412V24.7744H113.915V23.0752H121.078V24.7744ZM125.326 31.1465C124.164 31.1465 123.216 30.79 122.484 30.0771C121.756 29.3643 121.393 28.4146 121.393 27.228V27.0229C121.393 26.2271 121.546 25.5166 121.854 24.8916C122.162 24.2617 122.596 23.7783 123.158 23.4414C123.724 23.0996 124.369 22.9287 125.091 22.9287C126.175 22.9287 127.027 23.2705 127.647 23.9541C128.272 24.6377 128.585 25.6069 128.585 26.8618V27.7261H123.539C123.607 28.2437 123.812 28.6587 124.154 28.9712C124.5 29.2837 124.938 29.4399 125.465 29.4399C126.28 29.4399 126.917 29.1445 127.376 28.5537L128.417 29.7183C128.099 30.1675 127.669 30.519 127.127 30.7729C126.585 31.022 125.985 31.1465 125.326 31.1465ZM125.084 24.6426C124.664 24.6426 124.322 24.7842 124.059 25.0674C123.8 25.3506 123.634 25.7559 123.561 26.2832H126.505V26.1147C126.495 25.646 126.368 25.2847 126.124 25.0308C125.88 24.772 125.533 24.6426 125.084 24.6426ZM133.668 31V23.0752H136.979C138.058 23.0752 138.885 23.2656 139.461 23.6465C140.038 24.0273 140.326 24.5742 140.326 25.2871C140.326 25.6533 140.204 25.9829 139.959 26.2759C139.72 26.564 139.369 26.7861 138.905 26.9424C139.471 27.0498 139.916 27.2622 140.238 27.5796C140.565 27.8921 140.729 28.2778 140.729 28.7368C140.729 29.4741 140.45 30.0356 139.894 30.4214C139.342 30.8071 138.539 31 137.484 31H133.668ZM135.785 27.7114V29.3081H137.491C138.238 29.3081 138.612 29.0469 138.612 28.5244C138.612 27.9922 138.255 27.7212 137.542 27.7114H135.785ZM135.785 26.2905H137.096C137.838 26.2808 138.209 26.0415 138.209 25.5728C138.209 25.2847 138.106 25.0796 137.901 24.9575C137.701 24.8354 137.394 24.7744 136.979 24.7744H135.785V26.2905Z" fill="white"/>
<path d="M66.7393 41.96C66.9997 41.96 67.2113 41.8883 67.374 41.7451C67.5368 41.6019 67.6214 41.4115 67.6279 41.1738H68.9512C68.9479 41.5319 68.8503 41.8607 68.6582 42.1602C68.4661 42.4564 68.2025 42.6875 67.8672 42.8535C67.5352 43.0163 67.1673 43.0977 66.7637 43.0977C66.0085 43.0977 65.4128 42.8584 64.9766 42.3799C64.5404 41.8981 64.3223 41.234 64.3223 40.3877V40.2949C64.3223 39.4811 64.5387 38.8317 64.9717 38.3467C65.4046 37.8617 65.9987 37.6191 66.7539 37.6191C67.4147 37.6191 67.9437 37.8079 68.3408 38.1855C68.7412 38.5599 68.9447 39.0596 68.9512 39.6846H67.6279C67.6214 39.4111 67.5368 39.1898 67.374 39.0205C67.2113 38.848 66.9964 38.7617 66.7295 38.7617C66.4007 38.7617 66.1517 38.8822 65.9824 39.123C65.8164 39.3607 65.7334 39.748 65.7334 40.2852V40.4316C65.7334 40.9753 65.8164 41.3659 65.9824 41.6035C66.1484 41.8411 66.4007 41.96 66.7393 41.96ZM69.5371 40.3096C69.5371 39.7855 69.638 39.3184 69.8398 38.9082C70.0417 38.498 70.3314 38.1807 70.709 37.9561C71.0898 37.7314 71.5309 37.6191 72.0322 37.6191C72.7451 37.6191 73.3262 37.8372 73.7754 38.2734C74.2279 38.7096 74.4801 39.3021 74.5322 40.0508L74.542 40.4121C74.542 41.2227 74.3158 41.8737 73.8633 42.3652C73.4108 42.8535 72.8037 43.0977 72.042 43.0977C71.2803 43.0977 70.6715 42.8535 70.2158 42.3652C69.7633 41.877 69.5371 41.2129 69.5371 40.373V40.3096ZM70.9482 40.4121C70.9482 40.9134 71.0426 41.2975 71.2314 41.5645C71.4202 41.8281 71.6904 41.96 72.042 41.96C72.3838 41.96 72.6507 41.8298 72.8428 41.5693C73.0348 41.3057 73.1309 40.8857 73.1309 40.3096C73.1309 39.818 73.0348 39.4372 72.8428 39.167C72.6507 38.8968 72.3805 38.7617 72.0322 38.7617C71.6872 38.7617 71.4202 38.8968 71.2314 39.167C71.0426 39.4339 70.9482 39.849 70.9482 40.4121ZM75.1914 40.3096C75.1914 39.7855 75.2923 39.3184 75.4941 38.9082C75.696 38.498 75.9857 38.1807 76.3633 37.9561C76.7441 37.7314 77.1852 37.6191 77.6865 37.6191C78.3994 37.6191 78.9805 37.8372 79.4297 38.2734C79.8822 38.7096 80.1344 39.3021 80.1865 40.0508L80.1963 40.4121C80.1963 41.2227 79.9701 41.8737 79.5176 42.3652C79.0651 42.8535 78.458 43.0977 77.6963 43.0977C76.9346 43.0977 76.3258 42.8535 75.8701 42.3652C75.4176 41.877 75.1914 41.2129 75.1914 40.373V40.3096ZM76.6025 40.4121C76.6025 40.9134 76.6969 41.2975 76.8857 41.5645C77.0745 41.8281 77.3447 41.96 77.6963 41.96C78.0381 41.96 78.305 41.8298 78.4971 41.5693C78.6891 41.3057 78.7852 40.8857 78.7852 40.3096C78.7852 39.818 78.6891 39.4372 78.4971 39.167C78.305 38.8968 78.0348 38.7617 77.6865 38.7617C77.3415 38.7617 77.0745 38.8968 76.8857 39.167C76.6969 39.4339 76.6025 39.849 76.6025 40.4121ZM83.6875 38.0098C84.3646 38.0098 84.9049 38.2344 85.3086 38.6836C85.7122 39.1328 85.9141 39.7432 85.9141 40.5146V40.583C85.9141 41.3447 85.6895 41.9551 85.2402 42.4141C84.791 42.873 84.1872 43.1025 83.4287 43.1025C82.667 43.1025 82.0599 42.8551 81.6074 42.3604C81.1582 41.8623 80.9336 41.1868 80.9336 40.334V40.0996C80.9401 38.9115 81.1403 37.9821 81.5342 37.3115C81.9313 36.6377 82.527 36.2129 83.3213 36.0371C83.738 35.946 84.0065 35.8564 84.127 35.7686C84.2474 35.6774 84.3076 35.5521 84.3076 35.3926H85.4502C85.4502 35.9036 85.3118 36.2878 85.0352 36.5449C84.7617 36.8021 84.2734 37.0007 83.5703 37.1406C83.1536 37.2253 82.8249 37.3896 82.584 37.6338C82.3431 37.8779 82.1803 38.2214 82.0957 38.6641C82.5449 38.2279 83.0755 38.0098 83.6875 38.0098ZM83.4189 39.1523C83.0837 39.1523 82.82 39.2646 82.6279 39.4893C82.4391 39.7139 82.3447 40.0785 82.3447 40.583C82.3447 41.0322 82.4375 41.3757 82.623 41.6133C82.8086 41.8477 83.0771 41.9648 83.4287 41.9648C83.7705 41.9648 84.0342 41.8493 84.2197 41.6182C84.4053 41.387 84.4997 41.0469 84.5029 40.5977V40.4805C84.5029 40.0475 84.4069 39.7188 84.2148 39.4941C84.026 39.2663 83.7607 39.1523 83.4189 39.1523ZM88.0674 37.7168V41.8623H89.5176V37.7168H90.9336V41.8623H92.3789V37.7168H93.7949V41.8721H94.8447L94.7471 44.5674H93.4336V43H86.6562V37.7168H88.0674ZM98.0186 43.0977C97.2438 43.0977 96.6123 42.86 96.124 42.3848C95.639 41.9095 95.3965 41.2764 95.3965 40.4854V40.3486C95.3965 39.818 95.499 39.3444 95.7041 38.9277C95.9092 38.5078 96.1989 38.1855 96.5732 37.9609C96.9508 37.7331 97.3805 37.6191 97.8623 37.6191C98.585 37.6191 99.153 37.847 99.5664 38.3027C99.9831 38.7585 100.191 39.4046 100.191 40.2412V40.8174H96.8271C96.8727 41.1624 97.0094 41.4391 97.2373 41.6475C97.4684 41.8558 97.7598 41.96 98.1113 41.96C98.6549 41.96 99.0798 41.763 99.3857 41.3691L100.079 42.1455C99.8675 42.445 99.5811 42.6794 99.2197 42.8486C98.8584 43.0146 98.458 43.0977 98.0186 43.0977ZM97.8574 38.7617C97.5775 38.7617 97.3496 38.8561 97.1738 39.0449C97.0013 39.2337 96.8906 39.5039 96.8418 39.8555H98.8047V39.7432C98.7982 39.4307 98.7135 39.1898 98.5508 39.0205C98.388 38.848 98.1569 38.7617 97.8574 38.7617ZM103.194 41.96C103.455 41.96 103.666 41.8883 103.829 41.7451C103.992 41.6019 104.076 41.4115 104.083 41.1738H105.406C105.403 41.5319 105.305 41.8607 105.113 42.1602C104.921 42.4564 104.658 42.6875 104.322 42.8535C103.99 43.0163 103.622 43.0977 103.219 43.0977C102.464 43.0977 101.868 42.8584 101.432 42.3799C100.995 41.8981 100.777 41.234 100.777 40.3877V40.2949C100.777 39.4811 100.994 38.8317 101.427 38.3467C101.86 37.8617 102.454 37.6191 103.209 37.6191C103.87 37.6191 104.399 37.8079 104.796 38.1855C105.196 38.5599 105.4 39.0596 105.406 39.6846H104.083C104.076 39.4111 103.992 39.1898 103.829 39.0205C103.666 38.848 103.451 38.7617 103.185 38.7617C102.856 38.7617 102.607 38.8822 102.438 39.123C102.271 39.3607 102.188 39.748 102.188 40.2852V40.4316C102.188 40.9753 102.271 41.3659 102.438 41.6035C102.604 41.8411 102.856 41.96 103.194 41.96ZM110.597 38.8496H108.902V43H107.486V38.8496H105.821V37.7168H110.597V38.8496ZM111.402 43V37.7168H113.609C114.329 37.7168 114.881 37.8438 115.265 38.0977C115.649 38.3516 115.841 38.7161 115.841 39.1914C115.841 39.4355 115.759 39.6553 115.597 39.8506C115.437 40.0426 115.203 40.1908 114.894 40.2949C115.271 40.3665 115.567 40.5081 115.782 40.7197C116 40.9281 116.109 41.1852 116.109 41.4912C116.109 41.9827 115.924 42.3571 115.553 42.6143C115.185 42.8714 114.649 43 113.946 43H111.402ZM112.813 40.8076V41.8721H113.951C114.449 41.8721 114.698 41.6979 114.698 41.3496C114.698 40.9948 114.461 40.8141 113.985 40.8076H112.813ZM112.813 39.8604H113.688C114.182 39.8538 114.43 39.6943 114.43 39.3818C114.43 39.1898 114.361 39.0531 114.225 38.9717C114.091 38.8903 113.886 38.8496 113.609 38.8496H112.813V39.8604ZM116.754 40.3096C116.754 39.7855 116.855 39.3184 117.057 38.9082C117.258 38.498 117.548 38.1807 117.926 37.9561C118.307 37.7314 118.748 37.6191 119.249 37.6191C119.962 37.6191 120.543 37.8372 120.992 38.2734C121.445 38.7096 121.697 39.3021 121.749 40.0508L121.759 40.4121C121.759 41.2227 121.533 41.8737 121.08 42.3652C120.628 42.8535 120.021 43.0977 119.259 43.0977C118.497 43.0977 117.888 42.8535 117.433 42.3652C116.98 41.877 116.754 41.2129 116.754 40.373V40.3096ZM118.165 40.4121C118.165 40.9134 118.259 41.2975 118.448 41.5645C118.637 41.8281 118.907 41.96 119.259 41.96C119.601 41.96 119.868 41.8298 120.06 41.5693C120.252 41.3057 120.348 40.8857 120.348 40.3096C120.348 39.818 120.252 39.4372 120.06 39.167C119.868 38.8968 119.597 38.7617 119.249 38.7617C118.904 38.7617 118.637 38.8968 118.448 39.167C118.259 39.4339 118.165 39.849 118.165 40.4121ZM131.207 40.1045H130.362V43H128.897V40.1045H128.033L126.485 43H124.659L126.876 39.1865L124.767 35.8906H126.588L128.17 38.7568H128.897V35.8906H130.362V38.7568H131.075L132.618 35.8906H134.435L132.364 39.1816L134.547 43H132.716L131.207 40.1045ZM137.511 40.0947H136.666V43H135.201V35.8906H136.666V38.7373H137.335L139.073 35.8906H140.86L138.668 39.2549L141.09 43H139.342L137.511 40.0947Z" fill="white"/>
</g>
<defs>
<filter id="filter0_d" x="0" y="0" width="163" height="66" filterUnits="userSpaceOnUse" color-interpolation-filters="sRGB">
<feFlood flood-opacity="0" result="BackgroundImageFix"/>
<feColorMatrix in="SourceAlpha" type="matrix" values="0 0 0 0 0 0 0 0 0 0 0 0 0 0 0 0 0 0 127 0"/>
<feOffset dy="1"/>
<feGaussianBlur stdDeviation="2"/>
<feColorMatrix type="matrix" values="0 0 0 0 0 0 0 0 0 0 0 0 0 0 0 0 0 0 0.25 0"/>
<feBlend mode="normal" in2="BackgroundImageFix" result="effect1_dropShadow"/>
<feBlend mode="normal" in="SourceGraphic" in2="effect1_dropShadow" result="shape"/>
</filter>
</defs>
</svg>
