<svg width="29" height="29" viewBox="0 0 29 29" fill="none" xmlns="http://www.w3.org/2000/svg">
<path d="M14.5773 28.679C22.4967 28.679 28.9167 22.259 28.9167 14.3395C28.9167 6.42 22.4967 0 14.5773 0C6.6578 0 0.237793 6.42 0.237793 14.3395C0.237793 22.259 6.6578 28.679 14.5773 28.679Z" fill="#4D76A1"/>
<path fill-rule="evenodd" clip-rule="evenodd" d="M14.0355 19.6429H15.1609C15.1609 19.6429 15.5009 19.6056 15.6745 19.4185C15.8342 19.2467 15.8291 18.9241 15.8291 18.9241C15.8291 18.9241 15.8071 17.4139 16.508 17.1915C17.1989 16.9725 18.0862 18.6511 19.0266 19.2965C19.7377 19.785 20.2781 19.6779 20.2781 19.6779L22.7926 19.6429C22.7926 19.6429 24.108 19.5619 23.4843 18.5276C23.4331 18.443 23.121 17.7626 21.6147 16.3644C20.0381 14.901 20.2492 15.1377 22.1484 12.6063C23.3051 11.0647 23.7675 10.1235 23.6231 9.72043C23.4853 9.3365 22.6346 9.43798 22.6346 9.43798L19.8034 9.45561C19.8034 9.45561 19.5935 9.42698 19.4379 9.52003C19.2858 9.61128 19.1879 9.82396 19.1879 9.82396C19.1879 9.82396 18.7398 11.0169 18.1422 12.0314C16.8815 14.1722 16.3774 14.2852 16.1714 14.1523C15.6921 13.8425 15.8117 12.9077 15.8117 12.2436C15.8117 10.169 16.1264 9.30404 15.199 9.08012C14.8913 9.00573 14.6648 8.95665 13.8777 8.94873C12.8676 8.93825 12.0125 8.9518 11.5284 9.18901C11.2063 9.34672 10.9579 9.69819 11.1092 9.71839C11.2963 9.74344 11.7201 9.83265 11.9448 10.1386C12.2349 10.5333 12.2247 11.4198 12.2247 11.4198C12.2247 11.4198 12.3913 13.8619 11.8354 14.1653C11.4538 14.3734 10.9303 13.9486 9.80631 12.0064C9.23041 11.0115 8.79561 9.91189 8.79561 9.91189C8.79561 9.91189 8.71177 9.70637 8.56224 9.59646C8.38075 9.46328 8.12718 9.42085 8.12718 9.42085L5.43684 9.43849C5.43684 9.43849 5.03297 9.44974 4.88471 9.62534C4.75281 9.78152 4.87423 10.1046 4.87423 10.1046C4.87423 10.1046 6.98049 15.0324 9.36538 17.5157C11.5522 19.7924 14.0355 19.6429 14.0355 19.6429Z" fill="white"/>
</svg>
