<svg width="149" height="54" viewBox="0 0 149 54" fill="none" xmlns="http://www.w3.org/2000/svg">
<rect x="10" y="5" width="139" height="43" rx="21" fill="#4D76A1"/>
<path d="M57.9482 25.5293V14.909H61.6683C62.9569 14.909 63.9343 15.157 64.6005 15.653C65.2667 16.1441 65.5998 16.8662 65.5998 17.8193C65.5998 18.3397 65.4661 18.7992 65.1987 19.1979C64.9312 19.5918 64.5592 19.8812 64.0827 20.066C64.6273 20.2021 65.0552 20.4769 65.3664 20.8902C65.6825 21.3035 65.8406 21.8093 65.8406 22.4074C65.8406 23.4286 65.5147 24.2018 64.8631 24.7269C64.2115 25.2521 63.2827 25.5196 62.0768 25.5293H57.9482ZM60.1365 20.9048V23.7714H62.0111C62.5266 23.7714 62.9277 23.6498 63.2146 23.4067C63.5064 23.1587 63.6523 22.8183 63.6523 22.3855C63.6523 21.4129 63.149 20.9194 62.1424 20.9048H60.1365ZM60.1365 19.3584H61.7558C62.8597 19.339 63.4116 18.8989 63.4116 18.0382C63.4116 17.5568 63.2706 17.2115 62.9885 17.0024C62.7113 16.7884 62.2713 16.6814 61.6683 16.6814H60.1365V19.3584ZM70.6328 23.9756C71.0219 23.9756 71.3379 23.8687 71.5811 23.6547C71.8242 23.4407 71.9507 23.1563 71.9604 22.8013H73.9371C73.9322 23.3362 73.7864 23.8273 73.4994 24.2747C73.2125 24.7172 72.8187 25.0625 72.3178 25.3105C71.8218 25.5536 71.2723 25.6752 70.6693 25.6752C69.5411 25.6752 68.6512 25.3178 67.9996 24.6029C67.348 23.8832 67.0222 22.8912 67.0222 21.6269V21.4883C67.0222 20.2726 67.3456 19.3025 67.9923 18.5779C68.6391 17.8534 69.5265 17.4911 70.6547 17.4911C71.6419 17.4911 72.4321 17.7731 73.0253 18.3372C73.6235 18.8965 73.9274 19.6429 73.9371 20.5765H71.9604C71.9507 20.1681 71.8242 19.8374 71.5811 19.5845C71.3379 19.3268 71.017 19.1979 70.6182 19.1979C70.1271 19.1979 69.7551 19.3779 69.5022 19.7377C69.2542 20.0927 69.1302 20.6714 69.1302 21.4737V21.6926C69.1302 22.5046 69.2542 23.0882 69.5022 23.4432C69.7502 23.7981 70.1271 23.9756 70.6328 23.9756ZM81.6908 19.3292H79.1597V25.5293H77.0444V19.3292H74.5571V17.637H81.6908V19.3292ZM85.7902 22.546L87.249 17.637H89.5102L86.3372 26.7547L86.1622 27.1705C85.6905 28.2014 84.9124 28.7169 83.828 28.7169C83.5217 28.7169 83.2104 28.6707 82.8944 28.5783V26.9808L83.2153 26.9881C83.6141 26.9881 83.9107 26.9273 84.1052 26.8058C84.3046 26.6842 84.4602 26.4824 84.572 26.2004L84.82 25.5512L82.0555 17.637H84.324L85.7902 22.546ZM97.2056 25.5293H95.0902V19.3438H92.4497V25.5293H90.3417V17.637H97.2056V25.5293ZM103.573 17.637H105.681V25.5293H103.573V20.6568L100.933 25.5293H98.8176V17.637H100.933V22.5022L103.573 17.637ZM113.844 19.3292H111.313V25.5293H109.197V19.3292H106.71V17.637H113.844V19.3292ZM118.074 25.6752C116.917 25.6752 115.973 25.3202 115.244 24.6102C114.52 23.9003 114.157 22.9544 114.157 21.7728V21.5686C114.157 20.7759 114.31 20.0684 114.617 19.4459C114.923 18.8186 115.356 18.3372 115.915 18.0017C116.479 17.6613 117.121 17.4911 117.841 17.4911C118.92 17.4911 119.769 17.8315 120.386 18.5123C121.009 19.1931 121.32 20.1583 121.32 21.4081V22.2688H116.294C116.363 22.7843 116.567 23.1976 116.907 23.5088C117.252 23.82 117.688 23.9756 118.213 23.9756C119.025 23.9756 119.659 23.6814 120.117 23.093L121.152 24.2528C120.836 24.7002 120.408 25.0503 119.869 25.3032C119.329 25.5512 118.731 25.6752 118.074 25.6752ZM117.834 19.1979C117.415 19.1979 117.075 19.339 116.812 19.621C116.555 19.903 116.389 20.3067 116.316 20.8318H119.249V20.6641C119.239 20.1972 119.112 19.8374 118.869 19.5845C118.626 19.3268 118.281 19.1979 117.834 19.1979ZM126.382 25.5293V17.637H129.679C130.754 17.637 131.578 17.8266 132.152 18.2059C132.726 18.5852 133.013 19.1299 133.013 19.8398C133.013 20.2045 132.891 20.5328 132.648 20.8245C132.41 21.1115 132.06 21.3327 131.598 21.4883C132.162 21.5953 132.604 21.8068 132.925 22.1229C133.251 22.4341 133.414 22.8183 133.414 23.2754C133.414 24.0097 133.137 24.5689 132.582 24.9531C132.033 25.3372 131.233 25.5293 130.183 25.5293H126.382ZM128.49 22.2542V23.8443H130.19C130.934 23.8443 131.306 23.5842 131.306 23.0639C131.306 22.5338 130.951 22.2639 130.241 22.2542H128.49ZM128.49 20.8391H129.796C130.535 20.8294 130.905 20.5911 130.905 20.1243C130.905 19.8374 130.803 19.6332 130.598 19.5116C130.399 19.39 130.093 19.3292 129.679 19.3292H128.49V20.8391Z" fill="white"/>
<path d="M60.3987 36.8266C60.7213 36.8266 61.0031 36.7288 61.2442 36.5334C61.4853 36.3379 61.6189 36.0935 61.6449 35.8003H62.5002C62.4839 36.1033 62.3796 36.3916 62.1874 36.6653C61.9952 36.939 61.7378 37.1573 61.4152 37.3202C61.0959 37.4831 60.7571 37.5645 60.3987 37.5645C59.6787 37.5645 59.1053 37.3251 58.6784 36.8461C58.2549 36.3639 58.0431 35.7058 58.0431 34.8717V34.7202C58.0431 34.2055 58.1376 33.7477 58.3266 33.347C58.5155 32.9462 58.786 32.6351 59.1378 32.4135C59.493 32.192 59.9116 32.0812 60.3938 32.0812C60.9868 32.0812 61.4788 32.2588 61.8697 32.6139C62.2639 32.969 62.4741 33.43 62.5002 33.997H61.6449C61.6189 33.6549 61.4885 33.3747 61.2539 33.1564C61.0226 32.9348 60.7359 32.824 60.3938 32.824C59.9344 32.824 59.5777 32.9902 59.3235 33.3225C59.0727 33.6516 58.9472 34.1289 58.9472 34.7545V34.9255C58.9472 35.5348 59.0727 36.0039 59.3235 36.333C59.5744 36.6621 59.9328 36.8266 60.3987 36.8266ZM63.2772 34.774C63.2772 34.256 63.3782 33.7901 63.5802 33.3763C63.7855 32.9625 64.0689 32.6432 64.4306 32.4184C64.7955 32.1936 65.2109 32.0812 65.6768 32.0812C66.3968 32.0812 66.9784 32.3304 67.4215 32.8289C67.8678 33.3274 68.091 33.9904 68.091 34.818V34.8815C68.091 35.3963 67.9916 35.8589 67.7929 36.2695C67.5974 36.6767 67.3156 36.9944 66.9474 37.2224C66.5825 37.4505 66.1622 37.5645 65.6866 37.5645C64.9698 37.5645 64.3882 37.3153 63.9419 36.8168C63.4988 36.3183 63.2772 35.6586 63.2772 34.8375V34.774ZM64.1862 34.8815C64.1862 35.468 64.3214 35.9388 64.5918 36.2939C64.8655 36.649 65.2304 36.8266 65.6866 36.8266C66.1459 36.8266 66.5108 36.6474 66.7813 36.289C67.0517 35.9274 67.1869 35.4224 67.1869 34.774C67.1869 34.1941 67.0484 33.7249 66.7715 33.3665C66.4978 33.0049 66.1329 32.824 65.6768 32.824C65.2304 32.824 64.8704 33.0016 64.5967 33.3567C64.323 33.7119 64.1862 34.2201 64.1862 34.8815ZM68.9853 34.774C68.9853 34.256 69.0863 33.7901 69.2883 33.3763C69.4936 32.9625 69.7771 32.6432 70.1387 32.4184C70.5036 32.1936 70.919 32.0812 71.3849 32.0812C72.1049 32.0812 72.6865 32.3304 73.1296 32.8289C73.576 33.3274 73.7991 33.9904 73.7991 34.818V34.8815C73.7991 35.3963 73.6998 35.8589 73.501 36.2695C73.3055 36.6767 73.0237 36.9944 72.6556 37.2224C72.2907 37.4505 71.8704 37.5645 71.3947 37.5645C70.6779 37.5645 70.0963 37.3153 69.65 36.8168C69.2069 36.3183 68.9853 35.6586 68.9853 34.8375V34.774ZM69.8943 34.8815C69.8943 35.468 70.0296 35.9388 70.3 36.2939C70.5737 36.649 70.9386 36.8266 71.3947 36.8266C71.8541 36.8266 72.219 36.6474 72.4894 36.289C72.7598 35.9274 72.895 35.4224 72.895 34.774C72.895 34.1941 72.7566 33.7249 72.4796 33.3665C72.2059 33.0049 71.841 32.824 71.3849 32.824C70.9386 32.824 70.5785 33.0016 70.3049 33.3567C70.0312 33.7119 69.8943 34.2201 69.8943 34.8815ZM77.2543 32.4819C77.919 32.4819 78.45 32.7051 78.8475 33.1515C79.2483 33.5946 79.4486 34.1794 79.4486 34.906V34.989C79.4486 35.4875 79.3525 35.9339 79.1603 36.3281C78.9681 36.7191 78.6911 37.0237 78.3295 37.242C77.9711 37.457 77.5573 37.5645 77.0882 37.5645C76.3779 37.5645 75.8061 37.3283 75.3728 36.8559C74.9395 36.3802 74.7228 35.7433 74.7228 34.9451V34.5052C74.7228 33.3942 74.9281 32.5113 75.3386 31.8564C75.7524 31.2015 76.3616 30.8024 77.1664 30.6591C77.6225 30.5776 77.9304 30.4782 78.09 30.3609C78.2497 30.2437 78.3295 30.0824 78.3295 29.8771H79.0723C79.0723 30.2844 78.9795 30.602 78.7938 30.8301C78.6113 31.0582 78.3181 31.2194 77.9141 31.3139L77.2397 31.4654C76.7021 31.5925 76.2981 31.8075 76.0277 32.1105C75.7605 32.4103 75.5862 32.811 75.5047 33.3128C75.9837 32.7589 76.5669 32.4819 77.2543 32.4819ZM77.0784 33.2248C76.6353 33.2248 76.2834 33.3747 76.0228 33.6744C75.7621 33.9709 75.6318 34.383 75.6318 34.9108V34.989C75.6318 35.5559 75.7621 36.0056 76.0228 36.3379C76.2867 36.6669 76.6418 36.8315 77.0882 36.8315C77.5378 36.8315 77.8929 36.6653 78.1536 36.333C78.4142 36.0007 78.5445 35.5152 78.5445 34.8766C78.5445 34.3781 78.4126 33.979 78.1487 33.6793C77.888 33.3763 77.5313 33.2248 77.0784 33.2248ZM81.3106 32.1789V36.7288H83.2459V32.1789H84.15V36.7288H86.0804V32.1789H86.9894V36.7288H87.7323L87.6443 39.0356H86.8331V37.4668H80.4016V32.1789H81.3106ZM90.9089 37.5645C90.1921 37.5645 89.6089 37.33 89.1593 36.8608C88.7097 36.3884 88.4849 35.7579 88.4849 34.9695V34.8033C88.4849 34.2788 88.5843 33.8112 88.783 33.4007C88.985 32.987 89.2652 32.6644 89.6236 32.4331C89.9852 32.1985 90.3762 32.0812 90.7965 32.0812C91.4839 32.0812 92.0183 32.3076 92.3995 32.7605C92.7807 33.2134 92.9713 33.8617 92.9713 34.7056V35.0819H89.389C89.402 35.6032 89.5535 36.0251 89.8435 36.3476C90.1367 36.6669 90.5082 36.8266 90.9578 36.8266C91.2771 36.8266 91.5475 36.7614 91.769 36.6311C91.9906 36.5008 92.1844 36.3281 92.3506 36.1131L92.9028 36.5431C92.4597 37.2241 91.7951 37.5645 90.9089 37.5645ZM90.7965 32.824C90.4316 32.824 90.1253 32.9576 89.8777 33.2248C89.6301 33.4887 89.477 33.8601 89.4183 34.339H92.0671V34.2706C92.0411 33.8112 91.9173 33.4561 91.6957 33.2052C91.4742 32.9511 91.1744 32.824 90.7965 32.824ZM96.143 36.8266C96.4655 36.8266 96.7474 36.7288 96.9885 36.5334C97.2296 36.3379 97.3631 36.0935 97.3892 35.8003H98.2444C98.2282 36.1033 98.1239 36.3916 97.9317 36.6653C97.7394 36.939 97.4821 37.1573 97.1595 37.3202C96.8402 37.4831 96.5014 37.5645 96.143 37.5645C95.423 37.5645 94.8495 37.3251 94.4227 36.8461C93.9992 36.3639 93.7874 35.7058 93.7874 34.8717V34.7202C93.7874 34.2055 93.8819 33.7477 94.0709 33.347C94.2598 32.9462 94.5302 32.6351 94.8821 32.4135C95.2372 32.192 95.6559 32.0812 96.1381 32.0812C96.7311 32.0812 97.223 32.2588 97.614 32.6139C98.0082 32.969 98.2184 33.43 98.2444 33.997H97.3892C97.3631 33.6549 97.2328 33.3747 96.9982 33.1564C96.7669 32.9348 96.4802 32.824 96.1381 32.824C95.6787 32.824 95.322 32.9902 95.0678 33.3225C94.817 33.6516 94.6915 34.1289 94.6915 34.7545V34.9255C94.6915 35.5348 94.817 36.0039 95.0678 36.333C95.3187 36.6621 95.6771 36.8266 96.143 36.8266ZM103.19 32.912H101.416V37.4668H100.512V32.912H98.7723V32.1789H103.19V32.912ZM104.153 37.4668V32.1789H106.215C106.919 32.1789 107.458 32.3028 107.833 32.5504C108.211 32.7947 108.4 33.1547 108.4 33.6304C108.4 33.8748 108.327 34.0963 108.18 34.2951C108.033 34.4905 107.817 34.6404 107.53 34.7447C107.849 34.8196 108.105 34.9662 108.297 35.1845C108.493 35.4028 108.59 35.6635 108.59 35.9665C108.59 36.4519 108.411 36.8233 108.053 37.0807C107.698 37.3381 107.194 37.4668 106.543 37.4668H104.153ZM105.057 35.1454V36.7386H106.553C106.93 36.7386 107.212 36.6686 107.398 36.5285C107.587 36.3884 107.681 36.1913 107.681 35.9371C107.681 35.4093 107.294 35.1454 106.518 35.1454H105.057ZM105.057 34.4221H106.225C107.072 34.4221 107.496 34.1745 107.496 33.6793C107.496 33.1841 107.095 32.9283 106.294 32.912H105.057V34.4221ZM109.548 34.774C109.548 34.256 109.649 33.7901 109.851 33.3763C110.057 32.9625 110.34 32.6432 110.702 32.4184C111.067 32.1936 111.482 32.0812 111.948 32.0812C112.668 32.0812 113.249 32.3304 113.693 32.8289C114.139 33.3274 114.362 33.9904 114.362 34.818V34.8815C114.362 35.3963 114.263 35.8589 114.064 36.2695C113.869 36.6767 113.587 36.9944 113.219 37.2224C112.854 37.4505 112.433 37.5645 111.958 37.5645C111.241 37.5645 110.659 37.3153 110.213 36.8168C109.77 36.3183 109.548 35.6586 109.548 34.8375V34.774ZM110.457 34.8815C110.457 35.468 110.593 35.9388 110.863 36.2939C111.137 36.649 111.502 36.8266 111.958 36.8266C112.417 36.8266 112.782 36.6474 113.052 36.289C113.323 35.9274 113.458 35.4224 113.458 34.774C113.458 34.1941 113.32 33.7249 113.043 33.3665C112.769 33.0049 112.404 32.824 111.948 32.824C111.502 32.824 111.142 33.0016 110.868 33.3567C110.594 33.7119 110.457 34.2201 110.457 34.8815ZM123.12 34.2218H122.357V37.4668H121.419V34.2218H120.613L118.599 37.4668H117.426L119.821 33.7135L117.612 30.3512H118.721L120.613 33.4398H121.419V30.3512H122.357V33.4398H123.13L125.021 30.3512H126.125L123.916 33.7086L126.311 37.4668H125.143L123.12 34.2218ZM129.058 34.2706H128.193V37.4668H127.254V30.3512H128.193V33.4887H128.926L131.413 30.3512H132.581L129.864 33.8015L132.782 37.4668H131.633L129.058 34.2706Z" fill="white"/>
<g filter="url(#filter0_d)">
<path d="M26 49C38.7025 49 49 38.7025 49 26C49 13.2975 38.7025 3 26 3C13.2975 3 3 13.2975 3 26C3 38.7025 13.2975 49 26 49Z" fill="#4D76A1"/>
<path fill-rule="evenodd" clip-rule="evenodd" d="M25.1312 36.0876H26.9364C26.9364 36.0876 27.4817 36.0278 27.7601 35.7276C28.0163 35.4521 28.0081 34.9347 28.0081 34.9347C28.0081 34.9347 27.9729 32.5124 29.0971 32.1557C30.2053 31.8044 31.6284 34.4968 33.1368 35.5321C34.2774 36.3156 35.1441 36.1438 35.1441 36.1438L39.1772 36.0876C39.1772 36.0876 41.2871 35.9576 40.2867 34.2988C40.2047 34.1631 39.7041 33.0717 37.288 30.829C34.7591 28.4818 35.0978 28.8614 38.1441 24.8012C39.9993 22.3285 40.741 20.8189 40.5093 20.1724C40.2883 19.5565 38.9239 19.7193 38.9239 19.7193L34.3827 19.7476C34.3827 19.7476 34.0461 19.7017 33.7965 19.8509C33.5525 19.9973 33.3955 20.3384 33.3955 20.3384C33.3955 20.3384 32.6768 22.2519 31.7182 23.8791C29.6961 27.3129 28.8876 27.4941 28.5571 27.2809C27.7884 26.784 27.9802 25.2846 27.9802 24.2194C27.9802 20.8919 28.4849 19.5045 26.9975 19.1453C26.5038 19.026 26.1406 18.9473 24.8782 18.9346C23.2579 18.9178 21.8865 18.9395 21.1099 19.32C20.5933 19.5729 20.1948 20.1367 20.4375 20.1691C20.7376 20.2093 21.4174 20.3523 21.7778 20.8431C22.2432 21.4761 22.2268 22.898 22.2268 22.898C22.2268 22.898 22.4941 26.8151 21.6023 27.3018C20.9902 27.6355 20.1505 26.9541 18.3478 23.839C17.424 22.2433 16.7266 20.4794 16.7266 20.4794C16.7266 20.4794 16.5922 20.1498 16.3523 19.9735C16.0612 19.7599 15.6545 19.6918 15.6545 19.6918L11.3393 19.7201C11.3393 19.7201 10.6915 19.7382 10.4537 20.0198C10.2421 20.2703 10.4369 20.7886 10.4369 20.7886C10.4369 20.7886 13.8153 28.6925 17.6405 32.6756C21.1481 36.3275 25.1312 36.0876 25.1312 36.0876Z" fill="white"/>
</g>
<defs>
<filter id="filter0_d" x="0" y="0" width="54" height="54" filterUnits="userSpaceOnUse" color-interpolation-filters="sRGB">
<feFlood flood-opacity="0" result="BackgroundImageFix"/>
<feColorMatrix in="SourceAlpha" type="matrix" values="0 0 0 0 0 0 0 0 0 0 0 0 0 0 0 0 0 0 127 0"/>
<feOffset dx="1" dy="1"/>
<feGaussianBlur stdDeviation="2"/>
<feColorMatrix type="matrix" values="0 0 0 0 0 0 0 0 0 0 0 0 0 0 0 0 0 0 0.25 0"/>
<feBlend mode="normal" in2="BackgroundImageFix" result="effect1_dropShadow"/>
<feBlend mode="normal" in="SourceGraphic" in2="effect1_dropShadow" result="shape"/>
</filter>
</defs>
</svg>
