<svg width="29" height="29" viewBox="0 0 29 29" fill="none" xmlns="http://www.w3.org/2000/svg">
<path d="M14.6608 28.679C22.5802 28.679 29.0002 22.259 29.0002 14.3395C29.0002 6.42 22.5802 0 14.6608 0C6.74129 0 0.321289 6.42 0.321289 14.3395C0.321289 22.259 6.74129 28.679 14.6608 28.679Z" fill="#D7143A"/>
<path d="M17.6131 4.85742H14.9061C12.1636 4.85742 9.39633 6.86801 9.39633 11.3598C9.39633 13.6865 10.3896 15.4986 12.2103 16.5292L8.87785 22.5175C8.71985 22.8007 8.71572 23.1217 8.86677 23.3761C9.01424 23.6245 9.28391 23.7729 9.58786 23.7729H11.2736C11.6565 23.7729 11.9551 23.5892 12.0983 23.2672L15.2228 17.1998H15.4509V23.0167C15.4509 23.4266 15.7993 23.7729 16.2117 23.7729H17.6843C18.1468 23.7729 18.4697 23.4523 18.4697 22.9932V5.68509C18.4698 5.19779 18.1175 4.85742 17.6131 4.85742ZM15.4509 14.5045H15.0486C13.4889 14.5045 12.5577 13.2405 12.5577 11.1233C12.5577 8.49067 13.734 7.55269 14.8348 7.55269H15.4509V14.5045Z" fill="white"/>
</svg>
